G75*
%MOIN*%
%OFA0B0*%
%FSLAX25Y25*%
%IPPOS*%
%LPD*%
%AMOC8*
5,1,8,0,0,1.08239X$1,22.5*
%
%ADD10C,0.00000*%
%ADD11R,0.04331X0.03937*%
%ADD12R,0.03937X0.04331*%
%ADD13C,0.07400*%
%ADD14R,0.03150X0.03150*%
%ADD15R,0.04724X0.09843*%
%ADD16R,0.06299X0.09055*%
%ADD17C,0.08661*%
%ADD18C,0.06693*%
%ADD19R,0.02200X0.05000*%
%ADD20R,0.05000X0.02200*%
%ADD21R,0.07874X0.03937*%
%ADD22R,0.02165X0.04724*%
%ADD23R,0.07480X0.04331*%
%ADD24C,0.02000*%
%ADD25C,0.04165*%
%ADD26C,0.01000*%
D10*
X0001000Y0001000D02*
X0001000Y0178165D01*
X0256906Y0178165D01*
X0256906Y0001000D01*
X0001000Y0001000D01*
X0201787Y0087024D02*
X0201789Y0087177D01*
X0201795Y0087331D01*
X0201805Y0087484D01*
X0201819Y0087636D01*
X0201837Y0087789D01*
X0201859Y0087940D01*
X0201884Y0088091D01*
X0201914Y0088242D01*
X0201948Y0088392D01*
X0201985Y0088540D01*
X0202026Y0088688D01*
X0202071Y0088834D01*
X0202120Y0088980D01*
X0202173Y0089124D01*
X0202229Y0089266D01*
X0202289Y0089407D01*
X0202353Y0089547D01*
X0202420Y0089685D01*
X0202491Y0089821D01*
X0202566Y0089955D01*
X0202643Y0090087D01*
X0202725Y0090217D01*
X0202809Y0090345D01*
X0202897Y0090471D01*
X0202988Y0090594D01*
X0203082Y0090715D01*
X0203180Y0090833D01*
X0203280Y0090949D01*
X0203384Y0091062D01*
X0203490Y0091173D01*
X0203599Y0091281D01*
X0203711Y0091386D01*
X0203825Y0091487D01*
X0203943Y0091586D01*
X0204062Y0091682D01*
X0204184Y0091775D01*
X0204309Y0091864D01*
X0204436Y0091951D01*
X0204565Y0092033D01*
X0204696Y0092113D01*
X0204829Y0092189D01*
X0204964Y0092262D01*
X0205101Y0092331D01*
X0205240Y0092396D01*
X0205380Y0092458D01*
X0205522Y0092516D01*
X0205665Y0092571D01*
X0205810Y0092622D01*
X0205956Y0092669D01*
X0206103Y0092712D01*
X0206251Y0092751D01*
X0206400Y0092787D01*
X0206550Y0092818D01*
X0206701Y0092846D01*
X0206852Y0092870D01*
X0207005Y0092890D01*
X0207157Y0092906D01*
X0207310Y0092918D01*
X0207463Y0092926D01*
X0207616Y0092930D01*
X0207770Y0092930D01*
X0207923Y0092926D01*
X0208076Y0092918D01*
X0208229Y0092906D01*
X0208381Y0092890D01*
X0208534Y0092870D01*
X0208685Y0092846D01*
X0208836Y0092818D01*
X0208986Y0092787D01*
X0209135Y0092751D01*
X0209283Y0092712D01*
X0209430Y0092669D01*
X0209576Y0092622D01*
X0209721Y0092571D01*
X0209864Y0092516D01*
X0210006Y0092458D01*
X0210146Y0092396D01*
X0210285Y0092331D01*
X0210422Y0092262D01*
X0210557Y0092189D01*
X0210690Y0092113D01*
X0210821Y0092033D01*
X0210950Y0091951D01*
X0211077Y0091864D01*
X0211202Y0091775D01*
X0211324Y0091682D01*
X0211443Y0091586D01*
X0211561Y0091487D01*
X0211675Y0091386D01*
X0211787Y0091281D01*
X0211896Y0091173D01*
X0212002Y0091062D01*
X0212106Y0090949D01*
X0212206Y0090833D01*
X0212304Y0090715D01*
X0212398Y0090594D01*
X0212489Y0090471D01*
X0212577Y0090345D01*
X0212661Y0090217D01*
X0212743Y0090087D01*
X0212820Y0089955D01*
X0212895Y0089821D01*
X0212966Y0089685D01*
X0213033Y0089547D01*
X0213097Y0089407D01*
X0213157Y0089266D01*
X0213213Y0089124D01*
X0213266Y0088980D01*
X0213315Y0088834D01*
X0213360Y0088688D01*
X0213401Y0088540D01*
X0213438Y0088392D01*
X0213472Y0088242D01*
X0213502Y0088091D01*
X0213527Y0087940D01*
X0213549Y0087789D01*
X0213567Y0087636D01*
X0213581Y0087484D01*
X0213591Y0087331D01*
X0213597Y0087177D01*
X0213599Y0087024D01*
X0213597Y0086871D01*
X0213591Y0086717D01*
X0213581Y0086564D01*
X0213567Y0086412D01*
X0213549Y0086259D01*
X0213527Y0086108D01*
X0213502Y0085957D01*
X0213472Y0085806D01*
X0213438Y0085656D01*
X0213401Y0085508D01*
X0213360Y0085360D01*
X0213315Y0085214D01*
X0213266Y0085068D01*
X0213213Y0084924D01*
X0213157Y0084782D01*
X0213097Y0084641D01*
X0213033Y0084501D01*
X0212966Y0084363D01*
X0212895Y0084227D01*
X0212820Y0084093D01*
X0212743Y0083961D01*
X0212661Y0083831D01*
X0212577Y0083703D01*
X0212489Y0083577D01*
X0212398Y0083454D01*
X0212304Y0083333D01*
X0212206Y0083215D01*
X0212106Y0083099D01*
X0212002Y0082986D01*
X0211896Y0082875D01*
X0211787Y0082767D01*
X0211675Y0082662D01*
X0211561Y0082561D01*
X0211443Y0082462D01*
X0211324Y0082366D01*
X0211202Y0082273D01*
X0211077Y0082184D01*
X0210950Y0082097D01*
X0210821Y0082015D01*
X0210690Y0081935D01*
X0210557Y0081859D01*
X0210422Y0081786D01*
X0210285Y0081717D01*
X0210146Y0081652D01*
X0210006Y0081590D01*
X0209864Y0081532D01*
X0209721Y0081477D01*
X0209576Y0081426D01*
X0209430Y0081379D01*
X0209283Y0081336D01*
X0209135Y0081297D01*
X0208986Y0081261D01*
X0208836Y0081230D01*
X0208685Y0081202D01*
X0208534Y0081178D01*
X0208381Y0081158D01*
X0208229Y0081142D01*
X0208076Y0081130D01*
X0207923Y0081122D01*
X0207770Y0081118D01*
X0207616Y0081118D01*
X0207463Y0081122D01*
X0207310Y0081130D01*
X0207157Y0081142D01*
X0207005Y0081158D01*
X0206852Y0081178D01*
X0206701Y0081202D01*
X0206550Y0081230D01*
X0206400Y0081261D01*
X0206251Y0081297D01*
X0206103Y0081336D01*
X0205956Y0081379D01*
X0205810Y0081426D01*
X0205665Y0081477D01*
X0205522Y0081532D01*
X0205380Y0081590D01*
X0205240Y0081652D01*
X0205101Y0081717D01*
X0204964Y0081786D01*
X0204829Y0081859D01*
X0204696Y0081935D01*
X0204565Y0082015D01*
X0204436Y0082097D01*
X0204309Y0082184D01*
X0204184Y0082273D01*
X0204062Y0082366D01*
X0203943Y0082462D01*
X0203825Y0082561D01*
X0203711Y0082662D01*
X0203599Y0082767D01*
X0203490Y0082875D01*
X0203384Y0082986D01*
X0203280Y0083099D01*
X0203180Y0083215D01*
X0203082Y0083333D01*
X0202988Y0083454D01*
X0202897Y0083577D01*
X0202809Y0083703D01*
X0202725Y0083831D01*
X0202643Y0083961D01*
X0202566Y0084093D01*
X0202491Y0084227D01*
X0202420Y0084363D01*
X0202353Y0084501D01*
X0202289Y0084641D01*
X0202229Y0084782D01*
X0202173Y0084924D01*
X0202120Y0085068D01*
X0202071Y0085214D01*
X0202026Y0085360D01*
X0201985Y0085508D01*
X0201948Y0085656D01*
X0201914Y0085806D01*
X0201884Y0085957D01*
X0201859Y0086108D01*
X0201837Y0086259D01*
X0201819Y0086412D01*
X0201805Y0086564D01*
X0201795Y0086717D01*
X0201789Y0086871D01*
X0201787Y0087024D01*
X0197850Y0170291D02*
X0197852Y0170375D01*
X0197858Y0170458D01*
X0197868Y0170541D01*
X0197882Y0170624D01*
X0197899Y0170706D01*
X0197921Y0170787D01*
X0197946Y0170866D01*
X0197975Y0170945D01*
X0198008Y0171022D01*
X0198044Y0171097D01*
X0198084Y0171171D01*
X0198127Y0171243D01*
X0198174Y0171312D01*
X0198224Y0171379D01*
X0198277Y0171444D01*
X0198333Y0171506D01*
X0198391Y0171566D01*
X0198453Y0171623D01*
X0198517Y0171676D01*
X0198584Y0171727D01*
X0198653Y0171774D01*
X0198724Y0171819D01*
X0198797Y0171859D01*
X0198872Y0171896D01*
X0198949Y0171930D01*
X0199027Y0171960D01*
X0199106Y0171986D01*
X0199187Y0172009D01*
X0199269Y0172027D01*
X0199351Y0172042D01*
X0199434Y0172053D01*
X0199517Y0172060D01*
X0199601Y0172063D01*
X0199685Y0172062D01*
X0199768Y0172057D01*
X0199852Y0172048D01*
X0199934Y0172035D01*
X0200016Y0172019D01*
X0200097Y0171998D01*
X0200178Y0171974D01*
X0200256Y0171946D01*
X0200334Y0171914D01*
X0200410Y0171878D01*
X0200484Y0171839D01*
X0200556Y0171797D01*
X0200626Y0171751D01*
X0200694Y0171702D01*
X0200759Y0171650D01*
X0200822Y0171595D01*
X0200882Y0171537D01*
X0200940Y0171476D01*
X0200994Y0171412D01*
X0201046Y0171346D01*
X0201094Y0171278D01*
X0201139Y0171207D01*
X0201180Y0171134D01*
X0201219Y0171060D01*
X0201253Y0170984D01*
X0201284Y0170906D01*
X0201311Y0170827D01*
X0201335Y0170746D01*
X0201354Y0170665D01*
X0201370Y0170583D01*
X0201382Y0170500D01*
X0201390Y0170416D01*
X0201394Y0170333D01*
X0201394Y0170249D01*
X0201390Y0170166D01*
X0201382Y0170082D01*
X0201370Y0169999D01*
X0201354Y0169917D01*
X0201335Y0169836D01*
X0201311Y0169755D01*
X0201284Y0169676D01*
X0201253Y0169598D01*
X0201219Y0169522D01*
X0201180Y0169448D01*
X0201139Y0169375D01*
X0201094Y0169304D01*
X0201046Y0169236D01*
X0200994Y0169170D01*
X0200940Y0169106D01*
X0200882Y0169045D01*
X0200822Y0168987D01*
X0200759Y0168932D01*
X0200694Y0168880D01*
X0200626Y0168831D01*
X0200556Y0168785D01*
X0200484Y0168743D01*
X0200410Y0168704D01*
X0200334Y0168668D01*
X0200256Y0168636D01*
X0200178Y0168608D01*
X0200097Y0168584D01*
X0200016Y0168563D01*
X0199934Y0168547D01*
X0199852Y0168534D01*
X0199768Y0168525D01*
X0199685Y0168520D01*
X0199601Y0168519D01*
X0199517Y0168522D01*
X0199434Y0168529D01*
X0199351Y0168540D01*
X0199269Y0168555D01*
X0199187Y0168573D01*
X0199106Y0168596D01*
X0199027Y0168622D01*
X0198949Y0168652D01*
X0198872Y0168686D01*
X0198797Y0168723D01*
X0198724Y0168763D01*
X0198653Y0168808D01*
X0198584Y0168855D01*
X0198517Y0168906D01*
X0198453Y0168959D01*
X0198391Y0169016D01*
X0198333Y0169076D01*
X0198277Y0169138D01*
X0198224Y0169203D01*
X0198174Y0169270D01*
X0198127Y0169339D01*
X0198084Y0169411D01*
X0198044Y0169485D01*
X0198008Y0169560D01*
X0197975Y0169637D01*
X0197946Y0169716D01*
X0197921Y0169795D01*
X0197899Y0169876D01*
X0197882Y0169958D01*
X0197868Y0170041D01*
X0197858Y0170124D01*
X0197852Y0170207D01*
X0197850Y0170291D01*
X0225803Y0170291D02*
X0225805Y0170375D01*
X0225811Y0170458D01*
X0225821Y0170541D01*
X0225835Y0170624D01*
X0225852Y0170706D01*
X0225874Y0170787D01*
X0225899Y0170866D01*
X0225928Y0170945D01*
X0225961Y0171022D01*
X0225997Y0171097D01*
X0226037Y0171171D01*
X0226080Y0171243D01*
X0226127Y0171312D01*
X0226177Y0171379D01*
X0226230Y0171444D01*
X0226286Y0171506D01*
X0226344Y0171566D01*
X0226406Y0171623D01*
X0226470Y0171676D01*
X0226537Y0171727D01*
X0226606Y0171774D01*
X0226677Y0171819D01*
X0226750Y0171859D01*
X0226825Y0171896D01*
X0226902Y0171930D01*
X0226980Y0171960D01*
X0227059Y0171986D01*
X0227140Y0172009D01*
X0227222Y0172027D01*
X0227304Y0172042D01*
X0227387Y0172053D01*
X0227470Y0172060D01*
X0227554Y0172063D01*
X0227638Y0172062D01*
X0227721Y0172057D01*
X0227805Y0172048D01*
X0227887Y0172035D01*
X0227969Y0172019D01*
X0228050Y0171998D01*
X0228131Y0171974D01*
X0228209Y0171946D01*
X0228287Y0171914D01*
X0228363Y0171878D01*
X0228437Y0171839D01*
X0228509Y0171797D01*
X0228579Y0171751D01*
X0228647Y0171702D01*
X0228712Y0171650D01*
X0228775Y0171595D01*
X0228835Y0171537D01*
X0228893Y0171476D01*
X0228947Y0171412D01*
X0228999Y0171346D01*
X0229047Y0171278D01*
X0229092Y0171207D01*
X0229133Y0171134D01*
X0229172Y0171060D01*
X0229206Y0170984D01*
X0229237Y0170906D01*
X0229264Y0170827D01*
X0229288Y0170746D01*
X0229307Y0170665D01*
X0229323Y0170583D01*
X0229335Y0170500D01*
X0229343Y0170416D01*
X0229347Y0170333D01*
X0229347Y0170249D01*
X0229343Y0170166D01*
X0229335Y0170082D01*
X0229323Y0169999D01*
X0229307Y0169917D01*
X0229288Y0169836D01*
X0229264Y0169755D01*
X0229237Y0169676D01*
X0229206Y0169598D01*
X0229172Y0169522D01*
X0229133Y0169448D01*
X0229092Y0169375D01*
X0229047Y0169304D01*
X0228999Y0169236D01*
X0228947Y0169170D01*
X0228893Y0169106D01*
X0228835Y0169045D01*
X0228775Y0168987D01*
X0228712Y0168932D01*
X0228647Y0168880D01*
X0228579Y0168831D01*
X0228509Y0168785D01*
X0228437Y0168743D01*
X0228363Y0168704D01*
X0228287Y0168668D01*
X0228209Y0168636D01*
X0228131Y0168608D01*
X0228050Y0168584D01*
X0227969Y0168563D01*
X0227887Y0168547D01*
X0227805Y0168534D01*
X0227721Y0168525D01*
X0227638Y0168520D01*
X0227554Y0168519D01*
X0227470Y0168522D01*
X0227387Y0168529D01*
X0227304Y0168540D01*
X0227222Y0168555D01*
X0227140Y0168573D01*
X0227059Y0168596D01*
X0226980Y0168622D01*
X0226902Y0168652D01*
X0226825Y0168686D01*
X0226750Y0168723D01*
X0226677Y0168763D01*
X0226606Y0168808D01*
X0226537Y0168855D01*
X0226470Y0168906D01*
X0226406Y0168959D01*
X0226344Y0169016D01*
X0226286Y0169076D01*
X0226230Y0169138D01*
X0226177Y0169203D01*
X0226127Y0169270D01*
X0226080Y0169339D01*
X0226037Y0169411D01*
X0225997Y0169485D01*
X0225961Y0169560D01*
X0225928Y0169637D01*
X0225899Y0169716D01*
X0225874Y0169795D01*
X0225852Y0169876D01*
X0225835Y0169958D01*
X0225821Y0170041D01*
X0225811Y0170124D01*
X0225805Y0170207D01*
X0225803Y0170291D01*
D11*
X0098835Y0138795D03*
X0092142Y0138795D03*
X0063402Y0115173D03*
X0056709Y0115173D03*
X0092142Y0052181D03*
X0098835Y0052181D03*
X0182102Y0020094D03*
X0182102Y0013402D03*
X0205724Y0013402D03*
X0205724Y0020094D03*
X0229346Y0020094D03*
X0229346Y0013402D03*
D12*
X0154543Y0100016D03*
X0154543Y0106709D03*
X0154543Y0131512D03*
X0154543Y0138205D03*
X0201787Y0138205D03*
X0201787Y0131512D03*
D13*
X0074622Y0024622D03*
X0064622Y0024622D03*
X0054622Y0024622D03*
X0044622Y0024622D03*
X0034622Y0024622D03*
X0024622Y0024622D03*
X0008874Y0044858D03*
X0008874Y0054858D03*
X0008874Y0064858D03*
X0008874Y0074858D03*
X0008874Y0084858D03*
X0008874Y0094858D03*
X0008874Y0104858D03*
X0008874Y0114858D03*
X0008874Y0124858D03*
X0008874Y0134858D03*
D14*
X0182102Y0039386D03*
X0182102Y0033480D03*
X0205724Y0033480D03*
X0205724Y0039386D03*
X0229346Y0039386D03*
X0229346Y0033480D03*
D15*
X0223441Y0159465D03*
X0213598Y0159465D03*
X0203756Y0159465D03*
D16*
X0140764Y0038992D03*
X0140764Y0014189D03*
D17*
X0142732Y0158480D03*
X0121079Y0158480D03*
X0093520Y0158480D03*
X0071866Y0158480D03*
X0044307Y0158480D03*
X0170291Y0158480D03*
D18*
X0165370Y0168323D03*
X0147654Y0168323D03*
X0116157Y0168323D03*
X0098441Y0168323D03*
X0066945Y0168323D03*
X0049228Y0168323D03*
D19*
X0088402Y0100577D03*
X0091551Y0100577D03*
X0094701Y0100577D03*
X0097850Y0100577D03*
X0101000Y0100577D03*
X0104150Y0100577D03*
X0107299Y0100577D03*
X0110449Y0100577D03*
X0110449Y0066777D03*
X0107299Y0066777D03*
X0104150Y0066777D03*
X0101000Y0066777D03*
X0097850Y0066777D03*
X0094701Y0066777D03*
X0091551Y0066777D03*
X0088402Y0066777D03*
D20*
X0082525Y0072654D03*
X0082525Y0075803D03*
X0082525Y0078953D03*
X0082525Y0082102D03*
X0082525Y0085252D03*
X0082525Y0088402D03*
X0082525Y0091551D03*
X0082525Y0094701D03*
X0116325Y0094701D03*
X0116325Y0091551D03*
X0116325Y0088402D03*
X0116325Y0085252D03*
X0116325Y0082102D03*
X0116325Y0078953D03*
X0116325Y0075803D03*
X0116325Y0072654D03*
D21*
X0176197Y0074819D03*
X0176197Y0080724D03*
X0176197Y0086630D03*
X0176197Y0092535D03*
X0176197Y0098441D03*
X0176197Y0104346D03*
X0176197Y0110252D03*
X0176197Y0068913D03*
X0176197Y0063008D03*
X0176197Y0057102D03*
X0235252Y0057102D03*
X0235252Y0063008D03*
X0235252Y0068913D03*
X0235252Y0074819D03*
X0235252Y0080724D03*
X0235252Y0086630D03*
X0235252Y0092535D03*
X0235252Y0098441D03*
X0235252Y0104346D03*
X0235252Y0110252D03*
D22*
X0181906Y0129740D03*
X0178165Y0129740D03*
X0174425Y0129740D03*
X0174425Y0139977D03*
X0181906Y0139977D03*
D23*
X0090961Y0123638D03*
X0090961Y0114583D03*
X0076394Y0114583D03*
X0076394Y0123638D03*
D24*
X0070054Y0122909D02*
X0014886Y0122909D01*
X0015174Y0123605D02*
X0014215Y0121290D01*
X0012784Y0119858D01*
X0014215Y0118427D01*
X0014409Y0117958D01*
X0043270Y0117958D01*
X0044410Y0117486D01*
X0057788Y0104108D01*
X0059018Y0104108D01*
X0060739Y0103395D01*
X0062056Y0102078D01*
X0062769Y0100357D01*
X0062769Y0098494D01*
X0062340Y0097457D01*
X0065244Y0097457D01*
X0065277Y0097489D01*
X0066998Y0098202D01*
X0068861Y0098202D01*
X0070582Y0097489D01*
X0070614Y0097457D01*
X0071866Y0097457D01*
X0071866Y0109929D01*
X0071181Y0110213D01*
X0070449Y0110945D01*
X0070226Y0111483D01*
X0067522Y0111483D01*
X0067040Y0111001D01*
X0066084Y0110605D01*
X0060719Y0110605D01*
X0059763Y0111001D01*
X0059470Y0111294D01*
X0059137Y0111205D01*
X0056709Y0111205D01*
X0056709Y0115173D01*
X0056709Y0115173D01*
X0056709Y0111205D01*
X0054280Y0111205D01*
X0053771Y0111341D01*
X0053315Y0111604D01*
X0052943Y0111977D01*
X0052680Y0112433D01*
X0052543Y0112941D01*
X0052543Y0115173D01*
X0056709Y0115173D01*
X0056709Y0115173D01*
X0056709Y0119142D01*
X0059137Y0119142D01*
X0059470Y0119053D01*
X0059763Y0119346D01*
X0060719Y0119742D01*
X0066084Y0119742D01*
X0067040Y0119346D01*
X0067771Y0118615D01*
X0068157Y0117683D01*
X0070226Y0117683D01*
X0070449Y0118221D01*
X0071181Y0118952D01*
X0071562Y0119110D01*
X0071181Y0119268D01*
X0070449Y0120000D01*
X0070054Y0120955D01*
X0070054Y0126320D01*
X0070449Y0127276D01*
X0071181Y0128007D01*
X0072136Y0128403D01*
X0080651Y0128403D01*
X0081607Y0128007D01*
X0082338Y0127276D01*
X0082459Y0126984D01*
X0084895Y0126984D01*
X0085016Y0127276D01*
X0085748Y0128007D01*
X0086703Y0128403D01*
X0089042Y0128403D01*
X0089042Y0134400D01*
X0088504Y0134623D01*
X0087772Y0135354D01*
X0087376Y0136310D01*
X0087376Y0141281D01*
X0087772Y0142237D01*
X0088504Y0142968D01*
X0089459Y0143364D01*
X0094824Y0143364D01*
X0095780Y0142968D01*
X0096073Y0142675D01*
X0096406Y0142764D01*
X0098835Y0142764D01*
X0098835Y0138795D01*
X0098835Y0138795D01*
X0103000Y0138795D01*
X0103000Y0136563D01*
X0102864Y0136055D01*
X0102600Y0135599D01*
X0102228Y0135226D01*
X0101772Y0134963D01*
X0101263Y0134827D01*
X0098835Y0134827D01*
X0098835Y0138795D01*
X0098835Y0138795D01*
X0103000Y0138795D01*
X0103000Y0141027D01*
X0102864Y0141536D01*
X0102600Y0141992D01*
X0102228Y0142364D01*
X0101772Y0142627D01*
X0101263Y0142764D01*
X0098835Y0142764D01*
X0098835Y0138795D01*
X0098835Y0134827D01*
X0096406Y0134827D01*
X0096073Y0134916D01*
X0095780Y0134623D01*
X0095242Y0134400D01*
X0095242Y0128393D01*
X0096174Y0128007D01*
X0096905Y0127276D01*
X0097301Y0126320D01*
X0097301Y0124044D01*
X0099213Y0122132D01*
X0100085Y0121260D01*
X0100557Y0120121D01*
X0100557Y0110620D01*
X0100085Y0109480D01*
X0099213Y0108608D01*
X0096282Y0105677D01*
X0096318Y0105677D01*
X0097274Y0105281D01*
X0097478Y0105077D01*
X0097850Y0105077D01*
X0097850Y0104705D01*
X0097850Y0104704D01*
X0097850Y0104705D01*
X0097850Y0105077D01*
X0098223Y0105077D01*
X0098427Y0105281D01*
X0099383Y0105677D01*
X0102617Y0105677D01*
X0103573Y0105281D01*
X0103777Y0105077D01*
X0104150Y0105077D01*
X0104150Y0104705D01*
X0104150Y0104704D01*
X0104150Y0104705D01*
X0104150Y0105077D01*
X0104199Y0105077D01*
X0104199Y0141448D01*
X0100110Y0145538D01*
X0069530Y0145538D01*
X0068297Y0145538D01*
X0067157Y0146010D01*
X0050680Y0162488D01*
X0050411Y0162376D01*
X0050195Y0162376D01*
X0051238Y0159859D01*
X0051238Y0157102D01*
X0050183Y0154554D01*
X0048233Y0152605D01*
X0045686Y0151550D01*
X0042928Y0151550D01*
X0040381Y0152605D01*
X0038432Y0154554D01*
X0037376Y0157102D01*
X0037376Y0159859D01*
X0038432Y0162406D01*
X0040381Y0164356D01*
X0042928Y0165411D01*
X0043998Y0165411D01*
X0043282Y0167140D01*
X0043282Y0169506D01*
X0044187Y0171691D01*
X0045860Y0173364D01*
X0047947Y0174228D01*
X0004937Y0174228D01*
X0004937Y0138982D01*
X0005161Y0139206D01*
X0005887Y0139733D01*
X0006686Y0140141D01*
X0007539Y0140418D01*
X0008425Y0140558D01*
X0008874Y0140558D01*
X0008874Y0134858D01*
X0008874Y0134858D01*
X0014574Y0134858D01*
X0014574Y0134410D01*
X0014434Y0133523D01*
X0014156Y0132670D01*
X0013749Y0131871D01*
X0013222Y0131145D01*
X0012587Y0130511D01*
X0012262Y0130274D01*
X0012443Y0130199D01*
X0014215Y0128427D01*
X0015174Y0126111D01*
X0015174Y0123605D01*
X0015174Y0124908D02*
X0070054Y0124908D01*
X0070296Y0126906D02*
X0014845Y0126906D01*
X0013737Y0128905D02*
X0089042Y0128905D01*
X0089042Y0130903D02*
X0012980Y0130903D01*
X0014232Y0132902D02*
X0089042Y0132902D01*
X0088226Y0134900D02*
X0014574Y0134900D01*
X0014574Y0134858D02*
X0014574Y0135307D01*
X0014434Y0136193D01*
X0014156Y0137046D01*
X0013749Y0137846D01*
X0013222Y0138572D01*
X0012587Y0139206D01*
X0011861Y0139733D01*
X0011062Y0140141D01*
X0010209Y0140418D01*
X0009323Y0140558D01*
X0008874Y0140558D01*
X0008874Y0134858D01*
X0014574Y0134858D01*
X0014204Y0136899D02*
X0087376Y0136899D01*
X0087376Y0138897D02*
X0012896Y0138897D01*
X0008874Y0138897D02*
X0008874Y0138897D01*
X0008874Y0136899D02*
X0008874Y0136899D01*
X0008874Y0134900D02*
X0008874Y0134900D01*
X0008874Y0134858D02*
X0008874Y0134858D01*
X0004937Y0140896D02*
X0087376Y0140896D01*
X0088430Y0142894D02*
X0004937Y0142894D01*
X0004937Y0144893D02*
X0100755Y0144893D01*
X0102753Y0142894D02*
X0095853Y0142894D01*
X0098835Y0140896D02*
X0098835Y0140896D01*
X0098835Y0138897D02*
X0098835Y0138897D01*
X0098835Y0138795D02*
X0098835Y0138795D01*
X0099425Y0138205D01*
X0099425Y0130921D01*
X0098835Y0134900D02*
X0098835Y0134900D01*
X0098835Y0136899D02*
X0098835Y0136899D01*
X0101538Y0134900D02*
X0104199Y0134900D01*
X0104199Y0132902D02*
X0095242Y0132902D01*
X0095242Y0130903D02*
X0104199Y0130903D01*
X0104199Y0128905D02*
X0095242Y0128905D01*
X0097058Y0126906D02*
X0104199Y0126906D01*
X0104199Y0124908D02*
X0097301Y0124908D01*
X0098435Y0122909D02*
X0104199Y0122909D01*
X0104199Y0120911D02*
X0100229Y0120911D01*
X0100557Y0118912D02*
X0104199Y0118912D01*
X0104199Y0116914D02*
X0100557Y0116914D01*
X0100557Y0114915D02*
X0104199Y0114915D01*
X0104199Y0112917D02*
X0100557Y0112917D01*
X0100557Y0110918D02*
X0104199Y0110918D01*
X0104199Y0108920D02*
X0099524Y0108920D01*
X0097526Y0106921D02*
X0104199Y0106921D01*
X0104150Y0106512D02*
X0104150Y0100577D01*
X0101000Y0100577D02*
X0101000Y0093126D01*
X0095488Y0087614D01*
X0094701Y0087614D01*
X0094701Y0100577D01*
X0097850Y0100577D02*
X0097850Y0104937D01*
X0097457Y0105331D01*
X0101394Y0105331D01*
X0103362Y0107299D01*
X0104150Y0106512D01*
X0104150Y0104923D02*
X0104150Y0104923D01*
X0097850Y0104923D02*
X0097850Y0104923D01*
X0088402Y0100577D02*
X0075803Y0113176D01*
X0075803Y0114583D01*
X0071141Y0118912D02*
X0067473Y0118912D01*
X0070072Y0120911D02*
X0013836Y0120911D01*
X0013730Y0118912D02*
X0053610Y0118912D01*
X0053771Y0119005D02*
X0053315Y0118742D01*
X0052943Y0118370D01*
X0052680Y0117914D01*
X0052543Y0117405D01*
X0052543Y0115173D01*
X0056709Y0115173D01*
X0056709Y0115173D01*
X0056709Y0119142D01*
X0054280Y0119142D01*
X0053771Y0119005D01*
X0052543Y0116914D02*
X0044982Y0116914D01*
X0046981Y0114915D02*
X0052543Y0114915D01*
X0052550Y0112917D02*
X0048979Y0112917D01*
X0050978Y0110918D02*
X0059962Y0110918D01*
X0056709Y0112917D02*
X0056709Y0112917D01*
X0056709Y0114915D02*
X0056709Y0114915D01*
X0056709Y0116914D02*
X0056709Y0116914D01*
X0056709Y0118912D02*
X0056709Y0118912D01*
X0066841Y0110918D02*
X0070476Y0110918D01*
X0071866Y0108920D02*
X0052976Y0108920D01*
X0054975Y0106921D02*
X0071866Y0106921D01*
X0071866Y0104923D02*
X0056973Y0104923D01*
X0061210Y0102924D02*
X0071866Y0102924D01*
X0071866Y0100926D02*
X0062534Y0100926D01*
X0062769Y0098927D02*
X0071866Y0098927D01*
X0094701Y0087614D02*
X0094701Y0082890D01*
X0091551Y0079740D01*
X0091551Y0066777D01*
X0091551Y0052772D01*
X0092142Y0052181D01*
X0091551Y0051591D01*
X0091551Y0050213D01*
X0042339Y0050213D01*
X0034465Y0042339D01*
X0034465Y0024780D01*
X0034622Y0024622D01*
X0030070Y0028979D02*
X0028322Y0028979D01*
X0028335Y0028970D02*
X0027609Y0029497D01*
X0026810Y0029904D01*
X0025957Y0030182D01*
X0025071Y0030322D01*
X0024622Y0030322D01*
X0024173Y0030322D01*
X0023287Y0030182D01*
X0022434Y0029904D01*
X0021635Y0029497D01*
X0020909Y0028970D01*
X0020274Y0028335D01*
X0019747Y0027609D01*
X0019340Y0026810D01*
X0019062Y0025957D01*
X0018922Y0025071D01*
X0018922Y0024622D01*
X0018922Y0024173D01*
X0019062Y0023287D01*
X0019340Y0022434D01*
X0019747Y0021635D01*
X0020274Y0020909D01*
X0020909Y0020274D01*
X0021635Y0019747D01*
X0022434Y0019340D01*
X0023287Y0019062D01*
X0024173Y0018922D01*
X0024622Y0018922D01*
X0024622Y0024622D01*
X0024622Y0024622D01*
X0018922Y0024622D01*
X0024622Y0024622D01*
X0024622Y0024622D01*
X0024622Y0018922D01*
X0025071Y0018922D01*
X0025957Y0019062D01*
X0026810Y0019340D01*
X0027609Y0019747D01*
X0028335Y0020274D01*
X0028970Y0020909D01*
X0029206Y0021234D01*
X0029281Y0021053D01*
X0031053Y0019281D01*
X0033369Y0018322D01*
X0035875Y0018322D01*
X0038191Y0019281D01*
X0039622Y0020713D01*
X0041053Y0019281D01*
X0043369Y0018322D01*
X0045875Y0018322D01*
X0048191Y0019281D01*
X0049622Y0020713D01*
X0051053Y0019281D01*
X0053369Y0018322D01*
X0055875Y0018322D01*
X0058191Y0019281D01*
X0059622Y0020713D01*
X0061053Y0019281D01*
X0063369Y0018322D01*
X0065875Y0018322D01*
X0068191Y0019281D01*
X0069622Y0020713D01*
X0071053Y0019281D01*
X0073369Y0018322D01*
X0075875Y0018322D01*
X0078191Y0019281D01*
X0079963Y0021053D01*
X0080157Y0021522D01*
X0123664Y0021522D01*
X0124803Y0021994D01*
X0135606Y0032796D01*
X0136141Y0032260D01*
X0137097Y0031865D01*
X0144431Y0031865D01*
X0145386Y0032260D01*
X0146118Y0032992D01*
X0146513Y0033947D01*
X0146513Y0044037D01*
X0146118Y0044992D01*
X0145386Y0045724D01*
X0144431Y0046120D01*
X0143864Y0046120D01*
X0143864Y0072256D01*
X0155740Y0060380D01*
X0156879Y0059908D01*
X0164009Y0059908D01*
X0163640Y0059018D01*
X0163640Y0057155D01*
X0164353Y0055434D01*
X0165670Y0054117D01*
X0167391Y0053404D01*
X0169254Y0053404D01*
X0170029Y0053725D01*
X0170056Y0053661D01*
X0170787Y0052930D01*
X0171743Y0052534D01*
X0176197Y0052534D01*
X0176197Y0049376D01*
X0163701Y0049376D01*
X0154331Y0058746D01*
X0153191Y0059218D01*
X0152160Y0059218D01*
X0151290Y0060088D01*
X0149569Y0060801D01*
X0147706Y0060801D01*
X0145985Y0060088D01*
X0144668Y0058771D01*
X0143955Y0057050D01*
X0143955Y0055187D01*
X0144668Y0053466D01*
X0144968Y0053165D01*
X0144668Y0052865D01*
X0143955Y0051144D01*
X0143955Y0049281D01*
X0144668Y0047560D01*
X0145985Y0046243D01*
X0147706Y0045530D01*
X0148936Y0045530D01*
X0157709Y0036758D01*
X0158848Y0036286D01*
X0176197Y0036286D01*
X0176197Y0004937D01*
X0176197Y0037086D01*
X0178728Y0037086D01*
X0178728Y0037065D01*
X0179360Y0036433D01*
X0178728Y0035801D01*
X0178728Y0031160D01*
X0179782Y0030106D01*
X0179802Y0030106D01*
X0179802Y0023863D01*
X0179191Y0023863D01*
X0178137Y0022809D01*
X0178137Y0017380D01*
X0178628Y0016889D01*
X0178337Y0016598D01*
X0178073Y0016142D01*
X0177937Y0015633D01*
X0177937Y0013402D01*
X0182102Y0013402D01*
X0182102Y0013402D01*
X0177937Y0013402D01*
X0177937Y0011170D01*
X0178073Y0010661D01*
X0178337Y0010205D01*
X0178709Y0009833D01*
X0179165Y0009569D01*
X0179674Y0009433D01*
X0182102Y0009433D01*
X0182102Y0013401D01*
X0182102Y0013401D01*
X0182102Y0009433D01*
X0184531Y0009433D01*
X0185040Y0009569D01*
X0185496Y0009833D01*
X0185868Y0010205D01*
X0186131Y0010661D01*
X0186268Y0011170D01*
X0186268Y0013402D01*
X0186268Y0015633D01*
X0186131Y0016142D01*
X0185868Y0016598D01*
X0185577Y0016889D01*
X0186068Y0017380D01*
X0186068Y0022809D01*
X0185013Y0023863D01*
X0184402Y0023863D01*
X0184402Y0030106D01*
X0184423Y0030106D01*
X0185477Y0031160D01*
X0185477Y0035801D01*
X0184845Y0036433D01*
X0185477Y0037065D01*
X0185477Y0041706D01*
X0184423Y0042761D01*
X0179782Y0042761D01*
X0178728Y0041706D01*
X0178728Y0041686D01*
X0176197Y0041686D01*
X0176197Y0043976D01*
X0197882Y0043976D01*
X0202350Y0039508D01*
X0202350Y0037065D01*
X0202982Y0036433D01*
X0202350Y0035801D01*
X0202350Y0031160D01*
X0203404Y0030106D01*
X0203424Y0030106D01*
X0203424Y0023863D01*
X0202813Y0023863D01*
X0201759Y0022809D01*
X0201759Y0017380D01*
X0202250Y0016889D01*
X0201959Y0016598D01*
X0201695Y0016142D01*
X0201559Y0015633D01*
X0201559Y0013402D01*
X0205724Y0013402D01*
X0205724Y0013402D01*
X0201559Y0013402D01*
X0201559Y0011170D01*
X0201695Y0010661D01*
X0201959Y0010205D01*
X0202331Y0009833D01*
X0202787Y0009569D01*
X0203296Y0009433D01*
X0205724Y0009433D01*
X0205724Y0013401D01*
X0205724Y0013401D01*
X0205724Y0009433D01*
X0208153Y0009433D01*
X0208662Y0009569D01*
X0209118Y0009833D01*
X0209490Y0010205D01*
X0209753Y0010661D01*
X0209890Y0011170D01*
X0209890Y0013402D01*
X0209890Y0015633D01*
X0209753Y0016142D01*
X0209490Y0016598D01*
X0209199Y0016889D01*
X0209690Y0017380D01*
X0209690Y0022809D01*
X0208635Y0023863D01*
X0208024Y0023863D01*
X0208024Y0030106D01*
X0208045Y0030106D01*
X0209099Y0031160D01*
X0209099Y0035801D01*
X0208467Y0036433D01*
X0209099Y0037065D01*
X0209099Y0041706D01*
X0208045Y0042761D01*
X0205602Y0042761D01*
X0199787Y0048576D01*
X0176197Y0048576D01*
X0176197Y0052181D01*
X0235252Y0052181D01*
X0235252Y0053334D01*
X0239935Y0053334D01*
X0240989Y0054388D01*
X0240989Y0059816D01*
X0240864Y0059941D01*
X0241053Y0060267D01*
X0241189Y0060776D01*
X0241189Y0063008D01*
X0241189Y0065240D01*
X0241085Y0065629D01*
X0242173Y0065629D01*
X0244763Y0063039D01*
X0244763Y0057341D01*
X0243771Y0056349D01*
X0243180Y0054922D01*
X0243180Y0053377D01*
X0243771Y0051950D01*
X0244864Y0050858D01*
X0246291Y0050267D01*
X0247835Y0050267D01*
X0249262Y0050858D01*
X0250355Y0051950D01*
X0250946Y0053377D01*
X0250946Y0054922D01*
X0250355Y0056349D01*
X0249363Y0057341D01*
X0249363Y0064945D01*
X0245426Y0068882D01*
X0244079Y0070229D01*
X0240989Y0070229D01*
X0240989Y0071627D01*
X0240750Y0071866D01*
X0240989Y0072105D01*
X0240989Y0077533D01*
X0240750Y0077772D01*
X0240989Y0078010D01*
X0240989Y0083438D01*
X0240750Y0083677D01*
X0240989Y0083916D01*
X0240989Y0089344D01*
X0240750Y0089583D01*
X0240989Y0089821D01*
X0240989Y0095250D01*
X0240750Y0095488D01*
X0240989Y0095727D01*
X0240989Y0101155D01*
X0240864Y0101280D01*
X0241053Y0101606D01*
X0241189Y0102115D01*
X0241189Y0104346D01*
X0235252Y0104346D01*
X0235252Y0104347D01*
X0241189Y0104347D01*
X0241189Y0106578D01*
X0241053Y0107087D01*
X0240864Y0107413D01*
X0240989Y0107538D01*
X0240989Y0112966D01*
X0239935Y0114020D01*
X0235252Y0114020D01*
X0235252Y0115173D01*
X0176197Y0115173D01*
X0176197Y0119660D01*
X0176428Y0119756D01*
X0177520Y0120848D01*
X0178111Y0122275D01*
X0178111Y0123820D01*
X0177520Y0125247D01*
X0177389Y0125378D01*
X0178165Y0125378D01*
X0178165Y0129740D01*
X0178165Y0134102D01*
X0176819Y0134102D01*
X0176311Y0133966D01*
X0176200Y0133902D01*
X0176197Y0133902D01*
X0176197Y0135815D01*
X0176253Y0135815D01*
X0177308Y0136869D01*
X0177308Y0143085D01*
X0176253Y0144139D01*
X0176197Y0144139D01*
X0176197Y0156717D01*
X0176422Y0157261D01*
X0176422Y0159700D01*
X0176197Y0160243D01*
X0176197Y0174228D01*
X0252969Y0174228D01*
X0252969Y0004937D01*
X0176197Y0004937D01*
X0004937Y0004937D01*
X0004937Y0039886D01*
X0005305Y0039517D01*
X0007621Y0038558D01*
X0010127Y0038558D01*
X0012443Y0039517D01*
X0014215Y0041290D01*
X0014498Y0041973D01*
X0015118Y0042230D01*
X0028260Y0055372D01*
X0029490Y0055372D01*
X0031212Y0056085D01*
X0032529Y0057403D01*
X0033242Y0059124D01*
X0033242Y0060987D01*
X0032922Y0061758D01*
X0048062Y0061758D01*
X0056008Y0053813D01*
X0041622Y0053813D01*
X0040299Y0053265D01*
X0039287Y0052252D01*
X0032425Y0045391D01*
X0031413Y0044378D01*
X0030865Y0043055D01*
X0030865Y0029774D01*
X0029281Y0028191D01*
X0029206Y0028010D01*
X0028970Y0028335D01*
X0028335Y0028970D01*
X0030865Y0030978D02*
X0004937Y0030978D01*
X0004937Y0032976D02*
X0030865Y0032976D01*
X0030865Y0034975D02*
X0004937Y0034975D01*
X0004937Y0036973D02*
X0030865Y0036973D01*
X0030865Y0038972D02*
X0011125Y0038972D01*
X0013896Y0040970D02*
X0030865Y0040970D01*
X0030865Y0042969D02*
X0015857Y0042969D01*
X0017855Y0044967D02*
X0032002Y0044967D01*
X0034001Y0046966D02*
X0019854Y0046966D01*
X0021852Y0048964D02*
X0035999Y0048964D01*
X0037998Y0050963D02*
X0023851Y0050963D01*
X0025849Y0052961D02*
X0039996Y0052961D01*
X0043830Y0046613D02*
X0092267Y0046613D01*
X0093590Y0047161D01*
X0094042Y0047613D01*
X0094824Y0047613D01*
X0095780Y0048008D01*
X0096073Y0048302D01*
X0096406Y0048213D01*
X0098835Y0048213D01*
X0101263Y0048213D01*
X0101772Y0048349D01*
X0102228Y0048612D01*
X0102600Y0048985D01*
X0102864Y0049441D01*
X0103000Y0049949D01*
X0103000Y0052181D01*
X0098835Y0052181D01*
X0098835Y0052181D01*
X0103000Y0052181D01*
X0103000Y0054413D01*
X0102864Y0054922D01*
X0102600Y0055378D01*
X0102228Y0055750D01*
X0101772Y0056013D01*
X0101263Y0056150D01*
X0098835Y0056150D01*
X0098835Y0052181D01*
X0098835Y0048213D01*
X0098835Y0052181D01*
X0098835Y0052181D01*
X0098835Y0052181D01*
X0099425Y0052181D01*
X0098835Y0052181D02*
X0098835Y0056150D01*
X0096406Y0056150D01*
X0096073Y0056060D01*
X0095780Y0056354D01*
X0095151Y0056614D01*
X0095151Y0061677D01*
X0099468Y0061677D01*
X0100423Y0062073D01*
X0100627Y0062277D01*
X0101000Y0062277D01*
X0101373Y0062277D01*
X0101577Y0062073D01*
X0102532Y0061677D01*
X0104199Y0061677D01*
X0104199Y0059438D01*
X0104671Y0058299D01*
X0105543Y0057427D01*
X0115386Y0047585D01*
X0116525Y0047113D01*
X0127399Y0047113D01*
X0128269Y0046243D01*
X0129990Y0045530D01*
X0131853Y0045530D01*
X0133574Y0046243D01*
X0134891Y0047560D01*
X0135604Y0049281D01*
X0135604Y0051144D01*
X0134891Y0052865D01*
X0134591Y0053165D01*
X0134891Y0053466D01*
X0135604Y0055187D01*
X0135604Y0057050D01*
X0134891Y0058771D01*
X0133574Y0060088D01*
X0131853Y0060801D01*
X0129990Y0060801D01*
X0128269Y0060088D01*
X0127399Y0059218D01*
X0118426Y0059218D01*
X0114071Y0063573D01*
X0114149Y0063760D01*
X0114149Y0068954D01*
X0119342Y0068954D01*
X0120298Y0069349D01*
X0121029Y0070081D01*
X0121425Y0071036D01*
X0121425Y0079002D01*
X0123338Y0079002D01*
X0130176Y0072165D01*
X0130176Y0070935D01*
X0130888Y0069214D01*
X0132206Y0067896D01*
X0133927Y0067183D01*
X0135790Y0067183D01*
X0137511Y0067896D01*
X0137664Y0068049D01*
X0137664Y0046120D01*
X0137097Y0046120D01*
X0136141Y0045724D01*
X0135410Y0044992D01*
X0135014Y0044037D01*
X0135014Y0040973D01*
X0121763Y0027722D01*
X0080157Y0027722D01*
X0079963Y0028191D01*
X0078191Y0029963D01*
X0075875Y0030922D01*
X0073369Y0030922D01*
X0071053Y0029963D01*
X0069622Y0028532D01*
X0068191Y0029963D01*
X0067722Y0030157D01*
X0067722Y0035687D01*
X0068861Y0035687D01*
X0070582Y0036400D01*
X0071899Y0037718D01*
X0072612Y0039439D01*
X0072612Y0041302D01*
X0071899Y0043023D01*
X0070582Y0044340D01*
X0068861Y0045053D01*
X0066998Y0045053D01*
X0065277Y0044340D01*
X0063959Y0043023D01*
X0063246Y0041302D01*
X0063246Y0040071D01*
X0061994Y0038819D01*
X0061522Y0037680D01*
X0061522Y0030157D01*
X0061053Y0029963D01*
X0059622Y0028532D01*
X0058191Y0029963D01*
X0057722Y0030157D01*
X0057722Y0035966D01*
X0058771Y0036400D01*
X0060088Y0037718D01*
X0060801Y0039439D01*
X0060801Y0041302D01*
X0060088Y0043023D01*
X0058771Y0044340D01*
X0057050Y0045053D01*
X0055187Y0045053D01*
X0053466Y0044340D01*
X0052148Y0043023D01*
X0051435Y0041302D01*
X0051435Y0039439D01*
X0051522Y0039230D01*
X0051522Y0030157D01*
X0051053Y0029963D01*
X0049622Y0028532D01*
X0048191Y0029963D01*
X0047722Y0030157D01*
X0047722Y0035901D01*
X0048928Y0036400D01*
X0050245Y0037718D01*
X0050958Y0039439D01*
X0050958Y0041302D01*
X0050245Y0043023D01*
X0048928Y0044340D01*
X0047207Y0045053D01*
X0045344Y0045053D01*
X0043623Y0044340D01*
X0042306Y0043023D01*
X0041593Y0041302D01*
X0041593Y0039504D01*
X0041522Y0039333D01*
X0041522Y0030157D01*
X0041053Y0029963D01*
X0039622Y0028532D01*
X0038191Y0029963D01*
X0038065Y0030015D01*
X0038065Y0040847D01*
X0043830Y0046613D01*
X0045138Y0044967D02*
X0042184Y0044967D01*
X0042284Y0042969D02*
X0040186Y0042969D01*
X0041593Y0040970D02*
X0038187Y0040970D01*
X0038065Y0038972D02*
X0041522Y0038972D01*
X0041522Y0036973D02*
X0038065Y0036973D01*
X0038065Y0034975D02*
X0041522Y0034975D01*
X0041522Y0032976D02*
X0038065Y0032976D01*
X0038065Y0030978D02*
X0041522Y0030978D01*
X0040070Y0028979D02*
X0039174Y0028979D01*
X0047722Y0030978D02*
X0051522Y0030978D01*
X0051522Y0032976D02*
X0047722Y0032976D01*
X0047722Y0034975D02*
X0051522Y0034975D01*
X0051522Y0036973D02*
X0049501Y0036973D01*
X0050765Y0038972D02*
X0051522Y0038972D01*
X0051435Y0040970D02*
X0050958Y0040970D01*
X0050268Y0042969D02*
X0052126Y0042969D01*
X0054980Y0044967D02*
X0047413Y0044967D01*
X0057256Y0044967D02*
X0066791Y0044967D01*
X0069067Y0044967D02*
X0135400Y0044967D01*
X0135014Y0042969D02*
X0071921Y0042969D01*
X0072612Y0040970D02*
X0135011Y0040970D01*
X0133013Y0038972D02*
X0072418Y0038972D01*
X0071155Y0036973D02*
X0131014Y0036973D01*
X0129016Y0034975D02*
X0067722Y0034975D01*
X0067722Y0032976D02*
X0127017Y0032976D01*
X0125019Y0030978D02*
X0067722Y0030978D01*
X0069174Y0028979D02*
X0070070Y0028979D01*
X0079174Y0028979D02*
X0123020Y0028979D01*
X0127791Y0024982D02*
X0176197Y0024982D01*
X0179802Y0024982D01*
X0179802Y0026981D02*
X0176197Y0026981D01*
X0129790Y0026981D01*
X0131788Y0028979D02*
X0176197Y0028979D01*
X0179802Y0028979D01*
X0178910Y0030978D02*
X0176197Y0030978D01*
X0133787Y0030978D01*
X0125793Y0022984D02*
X0176197Y0022984D01*
X0178312Y0022984D01*
X0178137Y0020985D02*
X0176197Y0020985D01*
X0079895Y0020985D01*
X0077480Y0018987D02*
X0135616Y0018987D01*
X0135614Y0018980D02*
X0135614Y0014764D01*
X0140189Y0014764D01*
X0140189Y0020717D01*
X0137351Y0020717D01*
X0136842Y0020580D01*
X0136386Y0020317D01*
X0136014Y0019945D01*
X0135750Y0019488D01*
X0135614Y0018980D01*
X0135614Y0016988D02*
X0004937Y0016988D01*
X0004937Y0014990D02*
X0135614Y0014990D01*
X0135614Y0013614D02*
X0135614Y0009398D01*
X0135750Y0008889D01*
X0136014Y0008433D01*
X0136386Y0008061D01*
X0136842Y0007798D01*
X0137351Y0007661D01*
X0140189Y0007661D01*
X0140189Y0013614D01*
X0141339Y0013614D01*
X0141339Y0014764D01*
X0145913Y0014764D01*
X0145913Y0018980D01*
X0145777Y0019488D01*
X0145514Y0019945D01*
X0145141Y0020317D01*
X0144685Y0020580D01*
X0144177Y0020717D01*
X0141339Y0020717D01*
X0141339Y0014764D01*
X0140189Y0014764D01*
X0140189Y0013614D01*
X0135614Y0013614D01*
X0135614Y0012991D02*
X0004937Y0012991D01*
X0004937Y0010993D02*
X0135614Y0010993D01*
X0135722Y0008994D02*
X0004937Y0008994D01*
X0004937Y0006996D02*
X0176197Y0006996D01*
X0252969Y0006996D01*
X0252969Y0008994D02*
X0176197Y0008994D01*
X0145805Y0008994D01*
X0145777Y0008889D02*
X0145913Y0009398D01*
X0145913Y0013614D01*
X0141339Y0013614D01*
X0141339Y0007661D01*
X0144177Y0007661D01*
X0144685Y0007798D01*
X0145141Y0008061D01*
X0145514Y0008433D01*
X0145777Y0008889D01*
X0145913Y0010993D02*
X0176197Y0010993D01*
X0177984Y0010993D01*
X0177937Y0012991D02*
X0176197Y0012991D01*
X0145913Y0012991D01*
X0145913Y0014990D02*
X0176197Y0014990D01*
X0177937Y0014990D01*
X0178529Y0016988D02*
X0176197Y0016988D01*
X0145913Y0016988D01*
X0145912Y0018987D02*
X0176197Y0018987D01*
X0178137Y0018987D01*
X0185675Y0016988D02*
X0202151Y0016988D01*
X0201759Y0018987D02*
X0186068Y0018987D01*
X0186068Y0020985D02*
X0201759Y0020985D01*
X0201934Y0022984D02*
X0185893Y0022984D01*
X0184402Y0024982D02*
X0203424Y0024982D01*
X0203424Y0026981D02*
X0184402Y0026981D01*
X0184402Y0028979D02*
X0203424Y0028979D01*
X0202532Y0030978D02*
X0185295Y0030978D01*
X0185477Y0032976D02*
X0202350Y0032976D01*
X0202350Y0034975D02*
X0185477Y0034975D01*
X0185385Y0036973D02*
X0202442Y0036973D01*
X0202350Y0038972D02*
X0185477Y0038972D01*
X0185477Y0040970D02*
X0200887Y0040970D01*
X0198889Y0042969D02*
X0176197Y0042969D01*
X0176197Y0048964D02*
X0214733Y0048964D01*
X0214244Y0048475D02*
X0213653Y0047048D01*
X0213653Y0045503D01*
X0214244Y0044076D01*
X0215336Y0042984D01*
X0216763Y0042393D01*
X0218308Y0042393D01*
X0219735Y0042984D01*
X0220726Y0043976D01*
X0221504Y0043976D01*
X0225972Y0039508D01*
X0225972Y0037065D01*
X0226604Y0036433D01*
X0225972Y0035801D01*
X0225972Y0031160D01*
X0227026Y0030106D01*
X0227046Y0030106D01*
X0227046Y0023863D01*
X0226436Y0023863D01*
X0225381Y0022809D01*
X0225381Y0017380D01*
X0225872Y0016889D01*
X0225581Y0016598D01*
X0225317Y0016142D01*
X0225181Y0015633D01*
X0225181Y0013402D01*
X0229346Y0013402D01*
X0229346Y0013402D01*
X0225181Y0013402D01*
X0225181Y0011170D01*
X0225317Y0010661D01*
X0225581Y0010205D01*
X0225953Y0009833D01*
X0226409Y0009569D01*
X0226918Y0009433D01*
X0229346Y0009433D01*
X0229346Y0013401D01*
X0229347Y0013401D01*
X0229347Y0013402D02*
X0229347Y0013402D01*
X0233512Y0013402D01*
X0233512Y0015633D01*
X0233376Y0016142D01*
X0233112Y0016598D01*
X0232821Y0016889D01*
X0233312Y0017380D01*
X0233312Y0022809D01*
X0232257Y0023863D01*
X0231646Y0023863D01*
X0231646Y0030106D01*
X0231667Y0030106D01*
X0232721Y0031160D01*
X0232721Y0035801D01*
X0232089Y0036433D01*
X0232721Y0037065D01*
X0232721Y0041706D01*
X0231667Y0042761D01*
X0229224Y0042761D01*
X0223409Y0048576D01*
X0220726Y0048576D01*
X0219735Y0049567D01*
X0218308Y0050158D01*
X0216763Y0050158D01*
X0215336Y0049567D01*
X0214244Y0048475D01*
X0213653Y0046966D02*
X0201397Y0046966D01*
X0203396Y0044967D02*
X0213875Y0044967D01*
X0215373Y0042969D02*
X0205394Y0042969D01*
X0209099Y0040970D02*
X0224509Y0040970D01*
X0225972Y0038972D02*
X0209099Y0038972D01*
X0209007Y0036973D02*
X0226064Y0036973D01*
X0225972Y0034975D02*
X0209099Y0034975D01*
X0209099Y0032976D02*
X0225972Y0032976D01*
X0226154Y0030978D02*
X0208917Y0030978D01*
X0208024Y0028979D02*
X0227046Y0028979D01*
X0227046Y0026981D02*
X0208024Y0026981D01*
X0208024Y0024982D02*
X0227046Y0024982D01*
X0225556Y0022984D02*
X0209515Y0022984D01*
X0209690Y0020985D02*
X0225381Y0020985D01*
X0225381Y0018987D02*
X0209690Y0018987D01*
X0209297Y0016988D02*
X0225773Y0016988D01*
X0225181Y0014990D02*
X0209890Y0014990D01*
X0209890Y0013402D02*
X0205725Y0013402D01*
X0205725Y0013402D01*
X0209890Y0013402D01*
X0209890Y0012991D02*
X0225181Y0012991D01*
X0225229Y0010993D02*
X0209842Y0010993D01*
X0205724Y0010993D02*
X0205724Y0010993D01*
X0205724Y0012991D02*
X0205724Y0012991D01*
X0205724Y0013402D02*
X0229346Y0013402D01*
X0229347Y0013401D02*
X0229347Y0009433D01*
X0231775Y0009433D01*
X0232284Y0009569D01*
X0232740Y0009833D01*
X0233112Y0010205D01*
X0233376Y0010661D01*
X0233512Y0011170D01*
X0233512Y0013402D01*
X0229347Y0013402D01*
X0229346Y0012991D02*
X0229347Y0012991D01*
X0229346Y0010993D02*
X0229347Y0010993D01*
X0233464Y0010993D02*
X0252969Y0010993D01*
X0252969Y0012991D02*
X0233512Y0012991D01*
X0233512Y0014990D02*
X0252969Y0014990D01*
X0252969Y0016988D02*
X0232919Y0016988D01*
X0233312Y0018987D02*
X0252969Y0018987D01*
X0252969Y0020985D02*
X0233312Y0020985D01*
X0233137Y0022984D02*
X0252969Y0022984D01*
X0252969Y0024982D02*
X0231646Y0024982D01*
X0231646Y0026981D02*
X0252969Y0026981D01*
X0252969Y0028979D02*
X0231646Y0028979D01*
X0232539Y0030978D02*
X0252969Y0030978D01*
X0252969Y0032976D02*
X0232721Y0032976D01*
X0232721Y0034975D02*
X0252969Y0034975D01*
X0252969Y0036973D02*
X0232629Y0036973D01*
X0232721Y0038972D02*
X0252969Y0038972D01*
X0252969Y0040970D02*
X0232721Y0040970D01*
X0229016Y0042969D02*
X0252969Y0042969D01*
X0252969Y0044967D02*
X0227018Y0044967D01*
X0225019Y0046966D02*
X0252969Y0046966D01*
X0252969Y0048964D02*
X0220338Y0048964D01*
X0219698Y0042969D02*
X0222511Y0042969D01*
X0235252Y0052961D02*
X0243353Y0052961D01*
X0243196Y0054960D02*
X0240989Y0054960D01*
X0240989Y0056958D02*
X0244381Y0056958D01*
X0244763Y0058957D02*
X0240989Y0058957D01*
X0241189Y0060955D02*
X0244763Y0060955D01*
X0244763Y0062954D02*
X0241189Y0062954D01*
X0241189Y0063008D02*
X0235252Y0063008D01*
X0241189Y0063008D01*
X0241189Y0064952D02*
X0242850Y0064952D01*
X0247357Y0066951D02*
X0252969Y0066951D01*
X0252969Y0064952D02*
X0249355Y0064952D01*
X0249363Y0062954D02*
X0252969Y0062954D01*
X0252969Y0060955D02*
X0249363Y0060955D01*
X0249363Y0058957D02*
X0252969Y0058957D01*
X0252969Y0056958D02*
X0249745Y0056958D01*
X0250930Y0054960D02*
X0252969Y0054960D01*
X0252969Y0052961D02*
X0250773Y0052961D01*
X0249367Y0050963D02*
X0252969Y0050963D01*
X0244759Y0050963D02*
X0176197Y0050963D01*
X0162114Y0050963D01*
X0160116Y0052961D02*
X0170755Y0052961D01*
X0164827Y0054960D02*
X0158117Y0054960D01*
X0156119Y0056958D02*
X0163722Y0056958D01*
X0163640Y0058957D02*
X0153822Y0058957D01*
X0155165Y0060955D02*
X0143864Y0060955D01*
X0143864Y0058957D02*
X0144854Y0058957D01*
X0143955Y0056958D02*
X0143864Y0056958D01*
X0143864Y0054960D02*
X0144049Y0054960D01*
X0143864Y0052961D02*
X0144764Y0052961D01*
X0143955Y0050963D02*
X0143864Y0050963D01*
X0143864Y0048964D02*
X0144086Y0048964D01*
X0143864Y0046966D02*
X0145262Y0046966D01*
X0146128Y0044967D02*
X0149499Y0044967D01*
X0151498Y0042969D02*
X0146513Y0042969D01*
X0146513Y0040970D02*
X0153496Y0040970D01*
X0155495Y0038972D02*
X0146513Y0038972D01*
X0146513Y0036973D02*
X0157493Y0036973D01*
X0146513Y0034975D02*
X0176197Y0034975D01*
X0178728Y0034975D01*
X0178728Y0032976D02*
X0176197Y0032976D01*
X0146102Y0032976D01*
X0141339Y0018987D02*
X0140189Y0018987D01*
X0140189Y0016988D02*
X0141339Y0016988D01*
X0141339Y0014990D02*
X0140189Y0014990D01*
X0140764Y0014189D02*
X0141551Y0013402D01*
X0182102Y0013402D01*
X0205724Y0013402D01*
X0201559Y0012991D02*
X0186268Y0012991D01*
X0186268Y0013402D02*
X0182102Y0013402D01*
X0186268Y0013402D01*
X0186268Y0014990D02*
X0201559Y0014990D01*
X0201607Y0010993D02*
X0186220Y0010993D01*
X0182102Y0010993D02*
X0182102Y0010993D01*
X0182102Y0012991D02*
X0182102Y0012991D01*
X0182102Y0013402D02*
X0182102Y0013402D01*
X0176197Y0004997D02*
X0252969Y0004997D01*
X0178820Y0036973D02*
X0176197Y0036973D01*
X0153166Y0062954D02*
X0143864Y0062954D01*
X0143864Y0064952D02*
X0151168Y0064952D01*
X0149169Y0066951D02*
X0143864Y0066951D01*
X0143864Y0068949D02*
X0147170Y0068949D01*
X0145172Y0070948D02*
X0143864Y0070948D01*
X0137664Y0066951D02*
X0114149Y0066951D01*
X0114149Y0064952D02*
X0137664Y0064952D01*
X0137664Y0062954D02*
X0114690Y0062954D01*
X0116689Y0060955D02*
X0137664Y0060955D01*
X0137664Y0058957D02*
X0134705Y0058957D01*
X0135604Y0056958D02*
X0137664Y0056958D01*
X0137664Y0054960D02*
X0135510Y0054960D01*
X0134795Y0052961D02*
X0137664Y0052961D01*
X0137664Y0050963D02*
X0135604Y0050963D01*
X0135473Y0048964D02*
X0137664Y0048964D01*
X0137664Y0046966D02*
X0134297Y0046966D01*
X0127546Y0046966D02*
X0093120Y0046966D01*
X0098835Y0048964D02*
X0098835Y0048964D01*
X0098835Y0050963D02*
X0098835Y0050963D01*
X0098835Y0052961D02*
X0098835Y0052961D01*
X0098835Y0054960D02*
X0098835Y0054960D01*
X0102842Y0054960D02*
X0108010Y0054960D01*
X0106012Y0056958D02*
X0095151Y0056958D01*
X0095151Y0058957D02*
X0104399Y0058957D01*
X0104199Y0060955D02*
X0095151Y0060955D01*
X0101000Y0062277D02*
X0101000Y0062650D01*
X0101000Y0062650D01*
X0101000Y0062650D01*
X0101000Y0062277D01*
X0101000Y0065990D02*
X0101000Y0066777D01*
X0101000Y0058087D01*
X0103000Y0052961D02*
X0110009Y0052961D01*
X0112007Y0050963D02*
X0103000Y0050963D01*
X0102580Y0048964D02*
X0114006Y0048964D01*
X0114149Y0068949D02*
X0131153Y0068949D01*
X0130176Y0070948D02*
X0121389Y0070948D01*
X0121425Y0072946D02*
X0129394Y0072946D01*
X0127395Y0074945D02*
X0121425Y0074945D01*
X0121425Y0076943D02*
X0125397Y0076943D01*
X0123398Y0078942D02*
X0121425Y0078942D01*
X0137862Y0092932D02*
X0169660Y0092932D01*
X0169660Y0094930D02*
X0135604Y0094930D01*
X0135604Y0095080D02*
X0135604Y0094598D01*
X0136614Y0094179D01*
X0158182Y0072612D01*
X0159412Y0072612D01*
X0161133Y0071899D01*
X0162450Y0070582D01*
X0163163Y0068861D01*
X0163163Y0066998D01*
X0162794Y0066108D01*
X0169914Y0066108D01*
X0170056Y0066449D01*
X0170266Y0066659D01*
X0170260Y0066682D01*
X0170260Y0068913D01*
X0176197Y0068913D01*
X0176197Y0068913D01*
X0170260Y0068913D01*
X0170260Y0071145D01*
X0170266Y0071167D01*
X0170056Y0071378D01*
X0169660Y0072333D01*
X0169660Y0077305D01*
X0169853Y0077772D01*
X0169660Y0078239D01*
X0169660Y0082329D01*
X0169007Y0081676D01*
X0167286Y0080963D01*
X0165423Y0080963D01*
X0163702Y0081676D01*
X0162385Y0082993D01*
X0161672Y0084714D01*
X0161672Y0086577D01*
X0162385Y0088298D01*
X0163702Y0089615D01*
X0165423Y0090328D01*
X0167286Y0090328D01*
X0168730Y0089730D01*
X0169792Y0089730D01*
X0169660Y0090050D01*
X0169660Y0095021D01*
X0170056Y0095977D01*
X0170266Y0096187D01*
X0170260Y0096209D01*
X0170260Y0098441D01*
X0176197Y0098441D01*
X0176197Y0098441D01*
X0170260Y0098441D01*
X0170260Y0100673D01*
X0170266Y0100695D01*
X0170056Y0100905D01*
X0169660Y0101861D01*
X0169660Y0106652D01*
X0159578Y0106652D01*
X0159112Y0106186D01*
X0159112Y0104026D01*
X0158716Y0103071D01*
X0158423Y0102777D01*
X0158512Y0102444D01*
X0158512Y0100016D01*
X0154543Y0100016D01*
X0154543Y0100016D01*
X0150575Y0100016D01*
X0150575Y0102444D01*
X0150664Y0102777D01*
X0150371Y0103071D01*
X0150110Y0103699D01*
X0144223Y0103699D01*
X0135604Y0095080D01*
X0137453Y0096929D02*
X0150798Y0096929D01*
X0150711Y0097078D02*
X0150974Y0096622D01*
X0151347Y0096250D01*
X0151803Y0095987D01*
X0152311Y0095850D01*
X0154543Y0095850D01*
X0154543Y0100016D01*
X0150575Y0100016D01*
X0150575Y0097587D01*
X0150711Y0097078D01*
X0150575Y0098927D02*
X0139451Y0098927D01*
X0141450Y0100926D02*
X0150575Y0100926D01*
X0150517Y0102924D02*
X0143448Y0102924D01*
X0142732Y0107299D02*
X0130921Y0095488D01*
X0126449Y0096929D02*
X0122966Y0096929D01*
X0121425Y0095388D02*
X0144488Y0118451D01*
X0145360Y0119323D01*
X0145832Y0120462D01*
X0145832Y0139480D01*
X0156299Y0149947D01*
X0157171Y0150819D01*
X0157643Y0151958D01*
X0157643Y0162050D01*
X0157171Y0163189D01*
X0153489Y0166872D01*
X0153600Y0167140D01*
X0153600Y0169506D01*
X0152695Y0171691D01*
X0151022Y0173364D01*
X0148935Y0174228D01*
X0176197Y0174228D01*
X0176197Y0162334D01*
X0176167Y0162406D01*
X0174217Y0164356D01*
X0171670Y0165411D01*
X0169863Y0165411D01*
X0169943Y0165521D01*
X0170325Y0166270D01*
X0170585Y0167071D01*
X0170717Y0167902D01*
X0170717Y0168323D01*
X0170717Y0168744D01*
X0170585Y0169575D01*
X0170325Y0170375D01*
X0169943Y0171125D01*
X0169448Y0171806D01*
X0168853Y0172401D01*
X0168172Y0172896D01*
X0167422Y0173278D01*
X0166622Y0173538D01*
X0165791Y0173669D01*
X0165370Y0173669D01*
X0164949Y0173669D01*
X0164118Y0173538D01*
X0163318Y0173278D01*
X0162568Y0172896D01*
X0161887Y0172401D01*
X0161292Y0171806D01*
X0160797Y0171125D01*
X0160415Y0170375D01*
X0160155Y0169575D01*
X0160024Y0168744D01*
X0160024Y0168323D01*
X0165370Y0168323D01*
X0165370Y0173669D01*
X0165370Y0168323D01*
X0165370Y0168323D01*
X0165370Y0168323D01*
X0170717Y0168323D01*
X0165370Y0168323D01*
X0165370Y0168323D01*
X0160024Y0168323D01*
X0160024Y0167902D01*
X0160155Y0167071D01*
X0160415Y0166270D01*
X0160797Y0165521D01*
X0161292Y0164840D01*
X0161887Y0164245D01*
X0162568Y0163750D01*
X0163318Y0163368D01*
X0164118Y0163108D01*
X0164949Y0162976D01*
X0164986Y0162976D01*
X0164416Y0162406D01*
X0163361Y0159859D01*
X0163361Y0157102D01*
X0164416Y0154554D01*
X0166365Y0152605D01*
X0168913Y0151550D01*
X0171670Y0151550D01*
X0174217Y0152605D01*
X0176167Y0154554D01*
X0176197Y0154627D01*
X0176197Y0144868D01*
X0176025Y0144939D01*
X0172825Y0144939D01*
X0171870Y0144543D01*
X0171138Y0143812D01*
X0171041Y0143577D01*
X0155599Y0143577D01*
X0154276Y0143029D01*
X0154217Y0142970D01*
X0152058Y0142970D01*
X0151102Y0142574D01*
X0150371Y0141843D01*
X0149975Y0140887D01*
X0149975Y0135522D01*
X0150371Y0134567D01*
X0150664Y0134273D01*
X0150575Y0133940D01*
X0150575Y0131512D01*
X0154543Y0131512D01*
X0154543Y0131512D01*
X0150575Y0131512D01*
X0150575Y0129083D01*
X0150711Y0128574D01*
X0150974Y0128118D01*
X0151347Y0127746D01*
X0151803Y0127483D01*
X0152311Y0127346D01*
X0154543Y0127346D01*
X0154543Y0131512D01*
X0149228Y0131512D01*
X0148638Y0130921D01*
X0150575Y0130903D02*
X0145832Y0130903D01*
X0145832Y0128905D02*
X0150623Y0128905D01*
X0154543Y0128905D02*
X0154543Y0128905D01*
X0154543Y0127346D02*
X0156775Y0127346D01*
X0157284Y0127483D01*
X0157740Y0127746D01*
X0158112Y0128118D01*
X0158376Y0128574D01*
X0158512Y0129083D01*
X0158512Y0131512D01*
X0158512Y0133940D01*
X0158423Y0134273D01*
X0158716Y0134567D01*
X0159112Y0135522D01*
X0159112Y0136377D01*
X0162754Y0136377D01*
X0162754Y0128475D01*
X0155428Y0121149D01*
X0154880Y0119826D01*
X0154880Y0112137D01*
X0154217Y0111474D01*
X0152058Y0111474D01*
X0151102Y0111078D01*
X0150923Y0110899D01*
X0142016Y0110899D01*
X0140693Y0110351D01*
X0130513Y0100171D01*
X0129990Y0100171D01*
X0128269Y0099458D01*
X0126951Y0098141D01*
X0126239Y0096420D01*
X0126239Y0094651D01*
X0121425Y0094651D01*
X0121425Y0095388D01*
X0121425Y0094930D02*
X0126239Y0094930D01*
X0124965Y0098927D02*
X0127738Y0098927D01*
X0126963Y0100926D02*
X0131267Y0100926D01*
X0133266Y0102924D02*
X0128962Y0102924D01*
X0130960Y0104923D02*
X0135264Y0104923D01*
X0137263Y0106921D02*
X0132959Y0106921D01*
X0134957Y0108920D02*
X0139262Y0108920D01*
X0136956Y0110918D02*
X0150942Y0110918D01*
X0154880Y0112917D02*
X0138954Y0112917D01*
X0140953Y0114915D02*
X0154880Y0114915D01*
X0154880Y0116914D02*
X0142951Y0116914D01*
X0144950Y0118912D02*
X0154880Y0118912D01*
X0155329Y0120911D02*
X0145832Y0120911D01*
X0145832Y0122909D02*
X0157188Y0122909D01*
X0159187Y0124908D02*
X0145832Y0124908D01*
X0145832Y0126906D02*
X0161185Y0126906D01*
X0162754Y0128905D02*
X0158464Y0128905D01*
X0158512Y0130903D02*
X0162754Y0130903D01*
X0162754Y0132902D02*
X0158512Y0132902D01*
X0158512Y0131512D02*
X0154543Y0131512D01*
X0159858Y0131512D01*
X0160449Y0130921D01*
X0158512Y0131512D02*
X0154543Y0131512D01*
X0154543Y0131512D01*
X0154543Y0131512D01*
X0154543Y0127346D01*
X0154543Y0130903D02*
X0154543Y0130903D01*
X0150575Y0132902D02*
X0145832Y0132902D01*
X0145832Y0134900D02*
X0150232Y0134900D01*
X0149975Y0136899D02*
X0145832Y0136899D01*
X0145832Y0138897D02*
X0149975Y0138897D01*
X0149978Y0140896D02*
X0147248Y0140896D01*
X0149247Y0142894D02*
X0151875Y0142894D01*
X0151245Y0144893D02*
X0172714Y0144893D01*
X0176136Y0144893D02*
X0176197Y0144893D01*
X0210132Y0144893D01*
X0210307Y0144470D02*
X0211399Y0143378D01*
X0212826Y0142787D01*
X0214371Y0142787D01*
X0215798Y0143378D01*
X0216890Y0144470D01*
X0217481Y0145897D01*
X0217481Y0147442D01*
X0216890Y0148869D01*
X0216398Y0149360D01*
X0216398Y0152743D01*
X0216706Y0152743D01*
X0217761Y0153798D01*
X0217761Y0165131D01*
X0216706Y0166186D01*
X0210491Y0166186D01*
X0209436Y0165131D01*
X0209436Y0153798D01*
X0210491Y0152743D01*
X0210798Y0152743D01*
X0210798Y0149360D01*
X0210307Y0148869D01*
X0209716Y0147442D01*
X0209716Y0145897D01*
X0210307Y0144470D01*
X0209716Y0146891D02*
X0176197Y0146891D01*
X0153244Y0146891D01*
X0155242Y0148890D02*
X0176197Y0148890D01*
X0210328Y0148890D01*
X0210798Y0150888D02*
X0176197Y0150888D01*
X0157200Y0150888D01*
X0157643Y0152887D02*
X0166083Y0152887D01*
X0164279Y0154885D02*
X0157643Y0154885D01*
X0157643Y0156884D02*
X0163451Y0156884D01*
X0163361Y0158882D02*
X0157643Y0158882D01*
X0157643Y0160881D02*
X0163784Y0160881D01*
X0164889Y0162879D02*
X0157300Y0162879D01*
X0155482Y0164878D02*
X0161264Y0164878D01*
X0160218Y0166876D02*
X0153491Y0166876D01*
X0153600Y0168875D02*
X0160044Y0168875D01*
X0160669Y0170873D02*
X0153033Y0170873D01*
X0151514Y0172872D02*
X0162536Y0172872D01*
X0165370Y0172872D02*
X0165370Y0172872D01*
X0165370Y0170873D02*
X0165370Y0170873D01*
X0165370Y0168875D02*
X0165370Y0168875D01*
X0170071Y0170873D02*
X0176197Y0170873D01*
X0196050Y0170873D01*
X0196050Y0171002D02*
X0196050Y0169581D01*
X0196594Y0168268D01*
X0197599Y0167263D01*
X0198912Y0166720D01*
X0200332Y0166720D01*
X0201645Y0167263D01*
X0202650Y0168268D01*
X0203194Y0169581D01*
X0203194Y0171002D01*
X0202650Y0172315D01*
X0201645Y0173319D01*
X0200332Y0173863D01*
X0198912Y0173863D01*
X0197599Y0173319D01*
X0196594Y0172315D01*
X0196050Y0171002D01*
X0196343Y0168875D02*
X0176197Y0168875D01*
X0170696Y0168875D01*
X0170522Y0166876D02*
X0176197Y0166876D01*
X0198533Y0166876D01*
X0199594Y0165131D02*
X0200648Y0166186D01*
X0206864Y0166186D01*
X0207918Y0165131D01*
X0207918Y0153798D01*
X0206864Y0152743D01*
X0200648Y0152743D01*
X0199594Y0153798D01*
X0199594Y0165131D01*
X0199594Y0164878D02*
X0176197Y0164878D01*
X0172957Y0164878D01*
X0175694Y0162879D02*
X0176197Y0162879D01*
X0199594Y0162879D01*
X0199594Y0160881D02*
X0176197Y0160881D01*
X0176422Y0158882D02*
X0199594Y0158882D01*
X0199594Y0156884D02*
X0176266Y0156884D01*
X0176197Y0154885D02*
X0199594Y0154885D01*
X0200505Y0152887D02*
X0176197Y0152887D01*
X0174499Y0152887D01*
X0180077Y0144139D02*
X0179023Y0143085D01*
X0179023Y0136869D01*
X0180077Y0135815D01*
X0183734Y0135815D01*
X0184788Y0136869D01*
X0184788Y0137677D01*
X0198019Y0137677D01*
X0198019Y0135294D01*
X0198313Y0135000D01*
X0198218Y0134905D01*
X0197955Y0134449D01*
X0197819Y0133940D01*
X0197819Y0131512D01*
X0201787Y0131512D01*
X0201787Y0131512D01*
X0197819Y0131512D01*
X0197819Y0129083D01*
X0197955Y0128574D01*
X0198218Y0128118D01*
X0198591Y0127746D01*
X0199047Y0127483D01*
X0199556Y0127346D01*
X0201787Y0127346D01*
X0201787Y0131512D01*
X0207102Y0131512D01*
X0207693Y0130921D01*
X0205756Y0130903D02*
X0213558Y0130903D01*
X0215556Y0132902D02*
X0205756Y0132902D01*
X0205756Y0133940D02*
X0205620Y0134449D01*
X0205356Y0134905D01*
X0205262Y0135000D01*
X0205556Y0135294D01*
X0205556Y0141116D01*
X0204501Y0142170D01*
X0201075Y0142170D01*
X0200968Y0142277D01*
X0184788Y0142277D01*
X0184788Y0143085D01*
X0183734Y0144139D01*
X0180077Y0144139D01*
X0179023Y0142894D02*
X0177308Y0142894D01*
X0177308Y0140896D02*
X0179023Y0140896D01*
X0179023Y0138897D02*
X0177308Y0138897D01*
X0177308Y0136899D02*
X0179023Y0136899D01*
X0176197Y0134900D02*
X0198216Y0134900D01*
X0198019Y0136899D02*
X0184788Y0136899D01*
X0183734Y0133902D02*
X0180130Y0133902D01*
X0180020Y0133966D01*
X0179511Y0134102D01*
X0178165Y0134102D01*
X0178165Y0129740D01*
X0178165Y0129740D01*
X0178165Y0129740D01*
X0178165Y0125378D01*
X0179511Y0125378D01*
X0180020Y0125514D01*
X0180130Y0125578D01*
X0182108Y0125578D01*
X0184715Y0122970D01*
X0184715Y0122275D01*
X0185306Y0120848D01*
X0186399Y0119756D01*
X0187826Y0119165D01*
X0189370Y0119165D01*
X0190797Y0119756D01*
X0191289Y0120247D01*
X0210218Y0120247D01*
X0211247Y0120674D01*
X0212035Y0121461D01*
X0212035Y0121461D01*
X0225815Y0135241D01*
X0226241Y0136270D01*
X0226241Y0152743D01*
X0226549Y0152743D01*
X0227603Y0153798D01*
X0227603Y0165131D01*
X0226549Y0166186D01*
X0220333Y0166186D01*
X0219279Y0165131D01*
X0219279Y0153798D01*
X0220333Y0152743D01*
X0220641Y0152743D01*
X0220641Y0137987D01*
X0208502Y0125847D01*
X0191289Y0125847D01*
X0190797Y0126339D01*
X0189370Y0126930D01*
X0188675Y0126930D01*
X0184788Y0130817D01*
X0184788Y0132848D01*
X0183734Y0133902D01*
X0184734Y0132902D02*
X0197819Y0132902D01*
X0197819Y0130903D02*
X0184788Y0130903D01*
X0186700Y0128905D02*
X0197867Y0128905D01*
X0201787Y0128905D02*
X0201787Y0128905D01*
X0201787Y0127346D02*
X0204019Y0127346D01*
X0204528Y0127483D01*
X0204984Y0127746D01*
X0205356Y0128118D01*
X0205620Y0128574D01*
X0205756Y0129083D01*
X0205756Y0131512D01*
X0205756Y0133940D01*
X0205359Y0134900D02*
X0217555Y0134900D01*
X0219553Y0136899D02*
X0205556Y0136899D01*
X0205556Y0138897D02*
X0220641Y0138897D01*
X0220641Y0140896D02*
X0205556Y0140896D01*
X0212566Y0142894D02*
X0184788Y0142894D01*
X0174425Y0139977D02*
X0166354Y0139977D01*
X0166354Y0126984D01*
X0158480Y0119110D01*
X0158480Y0110252D01*
X0158087Y0110252D01*
X0154543Y0106709D01*
X0153953Y0107299D01*
X0142732Y0107299D01*
X0132185Y0114915D02*
X0113549Y0114915D01*
X0113549Y0112917D02*
X0130186Y0112917D01*
X0128188Y0110918D02*
X0113549Y0110918D01*
X0113549Y0108920D02*
X0126189Y0108920D01*
X0124191Y0106921D02*
X0113549Y0106921D01*
X0113549Y0104923D02*
X0122192Y0104923D01*
X0120194Y0102924D02*
X0114149Y0102924D01*
X0114149Y0103594D02*
X0113753Y0104550D01*
X0113549Y0104754D01*
X0113549Y0156932D01*
X0113077Y0158071D01*
X0104276Y0166872D01*
X0104387Y0167140D01*
X0104387Y0169506D01*
X0103482Y0171691D01*
X0101809Y0173364D01*
X0099723Y0174228D01*
X0146372Y0174228D01*
X0144285Y0173364D01*
X0142612Y0171691D01*
X0141707Y0169506D01*
X0141707Y0167140D01*
X0142423Y0165411D01*
X0141354Y0165411D01*
X0138806Y0164356D01*
X0136857Y0162406D01*
X0135802Y0159859D01*
X0135802Y0157102D01*
X0136857Y0154554D01*
X0138806Y0152605D01*
X0141354Y0151550D01*
X0144111Y0151550D01*
X0146658Y0152605D01*
X0148608Y0154554D01*
X0149663Y0157102D01*
X0149663Y0159859D01*
X0148620Y0162376D01*
X0148836Y0162376D01*
X0149105Y0162488D01*
X0151443Y0160149D01*
X0151443Y0153859D01*
X0140104Y0142520D01*
X0139632Y0141380D01*
X0139632Y0122363D01*
X0115670Y0098401D01*
X0114149Y0098401D01*
X0114149Y0103594D01*
X0114149Y0100926D02*
X0118195Y0100926D01*
X0116197Y0098927D02*
X0114149Y0098927D01*
X0113549Y0116914D02*
X0134183Y0116914D01*
X0136182Y0118912D02*
X0113549Y0118912D01*
X0113549Y0120911D02*
X0138180Y0120911D01*
X0139632Y0122909D02*
X0113549Y0122909D01*
X0113549Y0124908D02*
X0139632Y0124908D01*
X0139632Y0126906D02*
X0113549Y0126906D01*
X0113549Y0128905D02*
X0139632Y0128905D01*
X0139632Y0130903D02*
X0113549Y0130903D01*
X0113549Y0132902D02*
X0139632Y0132902D01*
X0139632Y0134900D02*
X0113549Y0134900D01*
X0113549Y0136899D02*
X0139632Y0136899D01*
X0139632Y0138897D02*
X0113549Y0138897D01*
X0113549Y0140896D02*
X0139632Y0140896D01*
X0140479Y0142894D02*
X0113549Y0142894D01*
X0113549Y0144893D02*
X0142477Y0144893D01*
X0144476Y0146891D02*
X0113549Y0146891D01*
X0113549Y0148890D02*
X0146474Y0148890D01*
X0148473Y0150888D02*
X0113549Y0150888D01*
X0117153Y0152605D02*
X0119700Y0151550D01*
X0122457Y0151550D01*
X0125005Y0152605D01*
X0126954Y0154554D01*
X0128009Y0157102D01*
X0128009Y0159859D01*
X0126954Y0162406D01*
X0125005Y0164356D01*
X0122457Y0165411D01*
X0120650Y0165411D01*
X0120730Y0165521D01*
X0121112Y0166270D01*
X0121372Y0167071D01*
X0121504Y0167902D01*
X0121504Y0168323D01*
X0121504Y0168744D01*
X0121372Y0169575D01*
X0121112Y0170375D01*
X0120730Y0171125D01*
X0120236Y0171806D01*
X0119640Y0172401D01*
X0118960Y0172896D01*
X0118210Y0173278D01*
X0117409Y0173538D01*
X0116578Y0173669D01*
X0116158Y0173669D01*
X0116158Y0168323D01*
X0121504Y0168323D01*
X0116158Y0168323D01*
X0116158Y0168323D01*
X0116157Y0168323D01*
X0116157Y0168323D01*
X0110811Y0168323D01*
X0110811Y0168744D01*
X0110943Y0169575D01*
X0111203Y0170375D01*
X0111585Y0171125D01*
X0112079Y0171806D01*
X0112674Y0172401D01*
X0113355Y0172896D01*
X0114105Y0173278D01*
X0114906Y0173538D01*
X0115737Y0173669D01*
X0116157Y0173669D01*
X0116157Y0168323D01*
X0110811Y0168323D01*
X0110811Y0167902D01*
X0110943Y0167071D01*
X0111203Y0166270D01*
X0111585Y0165521D01*
X0112079Y0164840D01*
X0112674Y0164245D01*
X0113355Y0163750D01*
X0114105Y0163368D01*
X0114906Y0163108D01*
X0115737Y0162976D01*
X0115773Y0162976D01*
X0115203Y0162406D01*
X0114148Y0159859D01*
X0114148Y0157102D01*
X0115203Y0154554D01*
X0117153Y0152605D01*
X0116871Y0152887D02*
X0113549Y0152887D01*
X0113549Y0154885D02*
X0115066Y0154885D01*
X0114238Y0156884D02*
X0113549Y0156884D01*
X0114148Y0158882D02*
X0112265Y0158882D01*
X0110267Y0160881D02*
X0114571Y0160881D01*
X0115676Y0162879D02*
X0108268Y0162879D01*
X0106270Y0164878D02*
X0112052Y0164878D01*
X0111006Y0166876D02*
X0104278Y0166876D01*
X0104387Y0168875D02*
X0110832Y0168875D01*
X0111457Y0170873D02*
X0103821Y0170873D01*
X0102301Y0172872D02*
X0113323Y0172872D01*
X0116157Y0172872D02*
X0116158Y0172872D01*
X0116157Y0170873D02*
X0116158Y0170873D01*
X0116157Y0168875D02*
X0116158Y0168875D01*
X0120858Y0170873D02*
X0142274Y0170873D01*
X0141707Y0168875D02*
X0121483Y0168875D01*
X0121309Y0166876D02*
X0141816Y0166876D01*
X0140067Y0164878D02*
X0123744Y0164878D01*
X0126481Y0162879D02*
X0137330Y0162879D01*
X0136225Y0160881D02*
X0127586Y0160881D01*
X0128009Y0158882D02*
X0135802Y0158882D01*
X0135892Y0156884D02*
X0127919Y0156884D01*
X0127091Y0154885D02*
X0136720Y0154885D01*
X0138524Y0152887D02*
X0125287Y0152887D01*
X0146940Y0152887D02*
X0150471Y0152887D01*
X0151443Y0154885D02*
X0148745Y0154885D01*
X0149573Y0156884D02*
X0151443Y0156884D01*
X0151443Y0158882D02*
X0149663Y0158882D01*
X0149240Y0160881D02*
X0150711Y0160881D01*
X0143793Y0172872D02*
X0118992Y0172872D01*
X0097159Y0174228D02*
X0095073Y0173364D01*
X0093400Y0171691D01*
X0092494Y0169506D01*
X0092494Y0167140D01*
X0093211Y0165411D01*
X0092141Y0165411D01*
X0089594Y0164356D01*
X0087644Y0162406D01*
X0086589Y0159859D01*
X0086589Y0157102D01*
X0087644Y0154554D01*
X0089594Y0152605D01*
X0091687Y0151738D01*
X0073699Y0151738D01*
X0075792Y0152605D01*
X0077742Y0154554D01*
X0078797Y0157102D01*
X0078797Y0159859D01*
X0077742Y0162406D01*
X0075792Y0164356D01*
X0073245Y0165411D01*
X0071438Y0165411D01*
X0071518Y0165521D01*
X0071900Y0166270D01*
X0072160Y0167071D01*
X0072291Y0167902D01*
X0072291Y0168323D01*
X0072291Y0168744D01*
X0072160Y0169575D01*
X0071900Y0170375D01*
X0071518Y0171125D01*
X0071023Y0171806D01*
X0070428Y0172401D01*
X0069747Y0172896D01*
X0068997Y0173278D01*
X0068197Y0173538D01*
X0067366Y0173669D01*
X0066945Y0173669D01*
X0066945Y0168323D01*
X0066945Y0168323D01*
X0072291Y0168323D01*
X0066945Y0168323D01*
X0066945Y0168323D01*
X0066945Y0173669D01*
X0066524Y0173669D01*
X0065693Y0173538D01*
X0064893Y0173278D01*
X0064143Y0172896D01*
X0063462Y0172401D01*
X0062867Y0171806D01*
X0062372Y0171125D01*
X0061990Y0170375D01*
X0061730Y0169575D01*
X0061598Y0168744D01*
X0061598Y0168323D01*
X0066945Y0168323D01*
X0066945Y0168323D01*
X0061598Y0168323D01*
X0061598Y0167902D01*
X0061730Y0167071D01*
X0061990Y0166270D01*
X0062372Y0165521D01*
X0062867Y0164840D01*
X0063462Y0164245D01*
X0064143Y0163750D01*
X0064893Y0163368D01*
X0065693Y0163108D01*
X0066524Y0162976D01*
X0066561Y0162976D01*
X0065991Y0162406D01*
X0064935Y0159859D01*
X0064935Y0157102D01*
X0065008Y0156928D01*
X0055064Y0166872D01*
X0055175Y0167140D01*
X0055175Y0169506D01*
X0054270Y0171691D01*
X0052597Y0173364D01*
X0050510Y0174228D01*
X0097159Y0174228D01*
X0094581Y0172872D02*
X0069779Y0172872D01*
X0071646Y0170873D02*
X0093061Y0170873D01*
X0092494Y0168875D02*
X0072271Y0168875D01*
X0072097Y0166876D02*
X0092604Y0166876D01*
X0090854Y0164878D02*
X0074532Y0164878D01*
X0077269Y0162879D02*
X0088117Y0162879D01*
X0087012Y0160881D02*
X0078374Y0160881D01*
X0078797Y0158882D02*
X0086589Y0158882D01*
X0086679Y0156884D02*
X0078707Y0156884D01*
X0077879Y0154885D02*
X0087507Y0154885D01*
X0089312Y0152887D02*
X0076074Y0152887D01*
X0066276Y0146891D02*
X0004937Y0146891D01*
X0004937Y0148890D02*
X0064277Y0148890D01*
X0062279Y0150888D02*
X0004937Y0150888D01*
X0004937Y0152887D02*
X0040099Y0152887D01*
X0038294Y0154885D02*
X0004937Y0154885D01*
X0004937Y0156884D02*
X0037467Y0156884D01*
X0037376Y0158882D02*
X0004937Y0158882D01*
X0004937Y0160881D02*
X0037800Y0160881D01*
X0038905Y0162879D02*
X0004937Y0162879D01*
X0004937Y0164878D02*
X0041641Y0164878D01*
X0043391Y0166876D02*
X0004937Y0166876D01*
X0004937Y0168875D02*
X0043282Y0168875D01*
X0043848Y0170873D02*
X0004937Y0170873D01*
X0004937Y0172872D02*
X0045368Y0172872D01*
X0053089Y0172872D02*
X0064110Y0172872D01*
X0062244Y0170873D02*
X0054608Y0170873D01*
X0055175Y0168875D02*
X0061619Y0168875D01*
X0061793Y0166876D02*
X0055066Y0166876D01*
X0057057Y0164878D02*
X0062839Y0164878D01*
X0066464Y0162879D02*
X0059056Y0162879D01*
X0061054Y0160881D02*
X0065359Y0160881D01*
X0064935Y0158882D02*
X0063053Y0158882D01*
X0058282Y0154885D02*
X0050320Y0154885D01*
X0051148Y0156884D02*
X0056283Y0156884D01*
X0054285Y0158882D02*
X0051238Y0158882D01*
X0050814Y0160881D02*
X0052286Y0160881D01*
X0048515Y0152887D02*
X0060280Y0152887D01*
X0066945Y0168875D02*
X0066945Y0168875D01*
X0066945Y0170873D02*
X0066945Y0170873D01*
X0066945Y0172872D02*
X0066945Y0172872D01*
X0103000Y0140896D02*
X0104199Y0140896D01*
X0104199Y0138897D02*
X0103000Y0138897D01*
X0103000Y0136899D02*
X0104199Y0136899D01*
X0096132Y0134900D02*
X0096058Y0134900D01*
X0154543Y0138205D02*
X0156315Y0139977D01*
X0166354Y0139977D01*
X0162754Y0134900D02*
X0158854Y0134900D01*
X0174425Y0129740D02*
X0174425Y0123244D01*
X0174228Y0123047D01*
X0177660Y0124908D02*
X0182778Y0124908D01*
X0178165Y0126906D02*
X0178165Y0126906D01*
X0178165Y0128905D02*
X0178165Y0128905D01*
X0178165Y0130903D02*
X0178165Y0130903D01*
X0178165Y0132902D02*
X0178165Y0132902D01*
X0181906Y0129740D02*
X0188598Y0123047D01*
X0209661Y0123047D01*
X0223441Y0136827D01*
X0223441Y0159465D01*
X0219279Y0158882D02*
X0217761Y0158882D01*
X0217761Y0156884D02*
X0219279Y0156884D01*
X0219279Y0154885D02*
X0217761Y0154885D01*
X0216850Y0152887D02*
X0220190Y0152887D01*
X0220641Y0150888D02*
X0216398Y0150888D01*
X0216869Y0148890D02*
X0220641Y0148890D01*
X0220641Y0146891D02*
X0217481Y0146891D01*
X0217065Y0144893D02*
X0220641Y0144893D01*
X0220641Y0142894D02*
X0214631Y0142894D01*
X0213598Y0146669D02*
X0213598Y0159465D01*
X0209436Y0158882D02*
X0207918Y0158882D01*
X0207918Y0156884D02*
X0209436Y0156884D01*
X0209436Y0154885D02*
X0207918Y0154885D01*
X0207007Y0152887D02*
X0210347Y0152887D01*
X0209436Y0160881D02*
X0207918Y0160881D01*
X0207918Y0162879D02*
X0209436Y0162879D01*
X0209436Y0164878D02*
X0207918Y0164878D01*
X0202901Y0168875D02*
X0224296Y0168875D01*
X0224547Y0168268D02*
X0224003Y0169581D01*
X0224003Y0171002D01*
X0224547Y0172315D01*
X0225552Y0173319D01*
X0226864Y0173863D01*
X0228285Y0173863D01*
X0229598Y0173319D01*
X0230603Y0172315D01*
X0231146Y0171002D01*
X0231146Y0169581D01*
X0230603Y0168268D01*
X0229598Y0167263D01*
X0228285Y0166720D01*
X0226864Y0166720D01*
X0225552Y0167263D01*
X0224547Y0168268D01*
X0226486Y0166876D02*
X0200711Y0166876D01*
X0203194Y0170873D02*
X0224003Y0170873D01*
X0225104Y0172872D02*
X0202092Y0172872D01*
X0197152Y0172872D02*
X0176197Y0172872D01*
X0168205Y0172872D01*
X0217761Y0164878D02*
X0219279Y0164878D01*
X0219279Y0162879D02*
X0217761Y0162879D01*
X0217761Y0160881D02*
X0219279Y0160881D01*
X0227603Y0160881D02*
X0252969Y0160881D01*
X0252969Y0162879D02*
X0227603Y0162879D01*
X0227603Y0164878D02*
X0252969Y0164878D01*
X0252969Y0166876D02*
X0228664Y0166876D01*
X0230854Y0168875D02*
X0252969Y0168875D01*
X0252969Y0170873D02*
X0231146Y0170873D01*
X0230045Y0172872D02*
X0252969Y0172872D01*
X0252969Y0158882D02*
X0227603Y0158882D01*
X0227603Y0156884D02*
X0252969Y0156884D01*
X0252969Y0154885D02*
X0227603Y0154885D01*
X0226692Y0152887D02*
X0252969Y0152887D01*
X0252969Y0150888D02*
X0226241Y0150888D01*
X0226241Y0148890D02*
X0252969Y0148890D01*
X0252969Y0146891D02*
X0226241Y0146891D01*
X0226241Y0144893D02*
X0252969Y0144893D01*
X0252969Y0142894D02*
X0226241Y0142894D01*
X0226241Y0140896D02*
X0252969Y0140896D01*
X0252969Y0138897D02*
X0226241Y0138897D01*
X0226241Y0136899D02*
X0252969Y0136899D01*
X0252969Y0134900D02*
X0225474Y0134900D01*
X0223476Y0132902D02*
X0252969Y0132902D01*
X0252969Y0130903D02*
X0221477Y0130903D01*
X0219479Y0128905D02*
X0252969Y0128905D01*
X0252969Y0126906D02*
X0217480Y0126906D01*
X0215482Y0124908D02*
X0252969Y0124908D01*
X0252969Y0122909D02*
X0213483Y0122909D01*
X0211485Y0120911D02*
X0252969Y0120911D01*
X0252969Y0118912D02*
X0176197Y0118912D01*
X0176197Y0116914D02*
X0252969Y0116914D01*
X0252969Y0114915D02*
X0235252Y0114915D01*
X0240989Y0112917D02*
X0252969Y0112917D01*
X0252969Y0110918D02*
X0240989Y0110918D01*
X0240989Y0108920D02*
X0252969Y0108920D01*
X0252969Y0106921D02*
X0241097Y0106921D01*
X0241189Y0104923D02*
X0252969Y0104923D01*
X0252969Y0102924D02*
X0241189Y0102924D01*
X0240989Y0100926D02*
X0252969Y0100926D01*
X0252969Y0098927D02*
X0240989Y0098927D01*
X0240989Y0096929D02*
X0252969Y0096929D01*
X0252969Y0094930D02*
X0240989Y0094930D01*
X0240989Y0092932D02*
X0252969Y0092932D01*
X0252969Y0090933D02*
X0240989Y0090933D01*
X0240989Y0088934D02*
X0252969Y0088934D01*
X0252969Y0086936D02*
X0240989Y0086936D01*
X0240989Y0084937D02*
X0252969Y0084937D01*
X0252969Y0082939D02*
X0240989Y0082939D01*
X0240989Y0080940D02*
X0252969Y0080940D01*
X0252969Y0078942D02*
X0240989Y0078942D01*
X0240989Y0076943D02*
X0252969Y0076943D01*
X0252969Y0074945D02*
X0240989Y0074945D01*
X0240989Y0072946D02*
X0252969Y0072946D01*
X0252969Y0070948D02*
X0240989Y0070948D01*
X0245358Y0068949D02*
X0252969Y0068949D01*
X0235252Y0063008D02*
X0235252Y0063008D01*
X0170260Y0066951D02*
X0163144Y0066951D01*
X0163126Y0068949D02*
X0170260Y0068949D01*
X0170260Y0070948D02*
X0162084Y0070948D01*
X0157847Y0072946D02*
X0169660Y0072946D01*
X0169660Y0074945D02*
X0155849Y0074945D01*
X0153850Y0076943D02*
X0169660Y0076943D01*
X0169660Y0078942D02*
X0151852Y0078942D01*
X0149853Y0080940D02*
X0169660Y0080940D01*
X0162439Y0082939D02*
X0147855Y0082939D01*
X0145856Y0084937D02*
X0161672Y0084937D01*
X0161820Y0086936D02*
X0143858Y0086936D01*
X0141859Y0088934D02*
X0163021Y0088934D01*
X0169660Y0090933D02*
X0139860Y0090933D01*
X0154543Y0095850D02*
X0154543Y0100016D01*
X0154543Y0100016D01*
X0154543Y0100016D01*
X0158512Y0100016D01*
X0158512Y0097587D01*
X0158376Y0097078D01*
X0158112Y0096622D01*
X0157740Y0096250D01*
X0157284Y0095987D01*
X0156775Y0095850D01*
X0154543Y0095850D01*
X0154543Y0096929D02*
X0154543Y0096929D01*
X0154543Y0098927D02*
X0154543Y0098927D01*
X0158512Y0098927D02*
X0170260Y0098927D01*
X0170260Y0096929D02*
X0158289Y0096929D01*
X0158512Y0100926D02*
X0170047Y0100926D01*
X0169660Y0102924D02*
X0158570Y0102924D01*
X0159112Y0104923D02*
X0169660Y0104923D01*
X0176197Y0110252D02*
X0158480Y0110252D01*
X0177546Y0120911D02*
X0185280Y0120911D01*
X0184715Y0122909D02*
X0178111Y0122909D01*
X0189428Y0126906D02*
X0209561Y0126906D01*
X0211559Y0128905D02*
X0205708Y0128905D01*
X0205756Y0131512D02*
X0201788Y0131512D01*
X0205756Y0131512D01*
X0201788Y0131512D02*
X0201788Y0131512D01*
X0201787Y0131512D02*
X0201787Y0127346D01*
X0201787Y0130903D02*
X0201787Y0130903D01*
X0201787Y0131512D02*
X0201787Y0131512D01*
X0063937Y0042969D02*
X0060110Y0042969D01*
X0060801Y0040970D02*
X0063246Y0040970D01*
X0062147Y0038972D02*
X0060607Y0038972D01*
X0061522Y0036973D02*
X0059344Y0036973D01*
X0057722Y0034975D02*
X0061522Y0034975D01*
X0061522Y0032976D02*
X0057722Y0032976D01*
X0057722Y0030978D02*
X0061522Y0030978D01*
X0060070Y0028979D02*
X0059174Y0028979D01*
X0050070Y0028979D02*
X0049174Y0028979D01*
X0047480Y0018987D02*
X0051765Y0018987D01*
X0057480Y0018987D02*
X0061765Y0018987D01*
X0067480Y0018987D02*
X0071765Y0018987D01*
X0041765Y0018987D02*
X0037480Y0018987D01*
X0031765Y0018987D02*
X0025478Y0018987D01*
X0024622Y0018987D02*
X0024622Y0018987D01*
X0023766Y0018987D02*
X0004937Y0018987D01*
X0004937Y0020985D02*
X0020219Y0020985D01*
X0019161Y0022984D02*
X0004937Y0022984D01*
X0004937Y0024982D02*
X0018922Y0024982D01*
X0019427Y0026981D02*
X0004937Y0026981D01*
X0004937Y0028979D02*
X0020922Y0028979D01*
X0024622Y0028979D02*
X0024622Y0028979D01*
X0024622Y0030322D02*
X0024622Y0024622D01*
X0024622Y0030322D01*
X0024622Y0026981D02*
X0024622Y0026981D01*
X0024622Y0024982D02*
X0024622Y0024982D01*
X0024622Y0024622D02*
X0024622Y0024622D01*
X0024622Y0022984D02*
X0024622Y0022984D01*
X0024622Y0020985D02*
X0024622Y0020985D01*
X0029025Y0020985D02*
X0029349Y0020985D01*
X0006623Y0038972D02*
X0004937Y0038972D01*
X0027848Y0054960D02*
X0054861Y0054960D01*
X0052862Y0056958D02*
X0032085Y0056958D01*
X0033173Y0058957D02*
X0050864Y0058957D01*
X0048865Y0060955D02*
X0033242Y0060955D01*
X0004937Y0004997D02*
X0176197Y0004997D01*
X0141339Y0008994D02*
X0140189Y0008994D01*
X0140189Y0010993D02*
X0141339Y0010993D01*
X0141339Y0012991D02*
X0140189Y0012991D01*
D25*
X0164386Y0026591D03*
X0148638Y0050213D03*
X0148638Y0056118D03*
X0158480Y0067929D03*
X0168323Y0058087D03*
X0134858Y0071866D03*
X0154150Y0084071D03*
X0154150Y0092339D03*
X0166354Y0098638D03*
X0166354Y0085646D03*
X0130921Y0095488D03*
X0094701Y0082890D03*
X0089583Y0089583D03*
X0067929Y0093520D03*
X0058087Y0099425D03*
X0040370Y0088402D03*
X0028559Y0060055D03*
X0024622Y0044307D03*
X0016748Y0034465D03*
X0046276Y0040370D03*
X0056118Y0040370D03*
X0067929Y0040370D03*
X0083677Y0056118D03*
X0077772Y0063992D03*
X0063992Y0058087D03*
X0091551Y0042339D03*
X0091551Y0014780D03*
X0107299Y0014780D03*
X0130921Y0050213D03*
X0130921Y0056118D03*
X0193913Y0026591D03*
X0217535Y0026591D03*
X0217535Y0046276D03*
X0247063Y0054150D03*
X0247063Y0081709D03*
X0247063Y0103362D03*
X0207693Y0130921D03*
X0188598Y0123047D03*
X0174228Y0123047D03*
X0160449Y0130921D03*
X0148638Y0130921D03*
X0126984Y0132890D03*
X0126984Y0144701D03*
X0099425Y0130921D03*
X0071866Y0138795D03*
X0058087Y0138795D03*
X0044307Y0138795D03*
X0188008Y0158480D03*
X0213598Y0146669D03*
D26*
X0201787Y0138205D02*
X0200015Y0139977D01*
X0181906Y0139977D01*
X0154543Y0152575D02*
X0154543Y0161433D01*
X0147654Y0168323D01*
X0154543Y0152575D02*
X0142732Y0140764D01*
X0142732Y0121079D01*
X0116354Y0094701D01*
X0116325Y0094701D01*
X0116325Y0091551D02*
X0134858Y0091551D01*
X0156512Y0069898D01*
X0158480Y0067929D01*
X0157496Y0063008D02*
X0132102Y0088402D01*
X0116325Y0088402D01*
X0116325Y0085252D02*
X0129346Y0085252D01*
X0140764Y0073835D01*
X0140764Y0042339D01*
X0123047Y0024622D01*
X0074622Y0024622D01*
X0064622Y0024622D02*
X0064622Y0037063D01*
X0067929Y0040370D01*
X0056118Y0040370D02*
X0054622Y0038874D01*
X0054622Y0024622D01*
X0044622Y0024622D02*
X0044622Y0038717D01*
X0046276Y0040370D01*
X0060055Y0054150D02*
X0081709Y0054150D01*
X0083677Y0056118D01*
X0083677Y0062053D01*
X0088402Y0066777D01*
X0082919Y0072654D02*
X0082525Y0072654D01*
X0077772Y0067900D01*
X0077772Y0063992D01*
X0072890Y0074858D02*
X0063992Y0065961D01*
X0063992Y0058087D01*
X0060055Y0054150D02*
X0049346Y0064858D01*
X0008874Y0064858D01*
X0008874Y0074858D02*
X0072890Y0074858D01*
X0073835Y0075803D01*
X0082525Y0075803D01*
X0082525Y0078953D02*
X0036433Y0078953D01*
X0031315Y0084858D01*
X0008874Y0084858D01*
X0008874Y0104858D02*
X0017220Y0104858D01*
X0039976Y0082102D01*
X0082525Y0082102D01*
X0082525Y0085252D02*
X0082919Y0085646D01*
X0087614Y0085646D01*
X0089583Y0087614D01*
X0089583Y0089583D01*
X0082525Y0088402D02*
X0040370Y0088402D01*
X0058087Y0099425D02*
X0042654Y0114858D01*
X0008874Y0114858D01*
X0063402Y0115173D02*
X0063992Y0114583D01*
X0075803Y0114583D01*
X0076394Y0114583D01*
X0075803Y0115173D01*
X0090961Y0123638D02*
X0092142Y0124819D01*
X0097457Y0119504D01*
X0097457Y0111236D01*
X0091551Y0105331D01*
X0091551Y0100577D01*
X0088402Y0100577D02*
X0088402Y0102575D01*
X0077772Y0091551D02*
X0075803Y0093520D01*
X0067929Y0093520D01*
X0077772Y0091551D02*
X0082525Y0091551D01*
X0107299Y0100577D02*
X0107299Y0142732D01*
X0101394Y0148638D01*
X0068913Y0148638D01*
X0049228Y0168323D01*
X0092142Y0138795D02*
X0092142Y0124819D01*
X0110449Y0100577D02*
X0110449Y0156315D01*
X0098441Y0168323D01*
X0167339Y0086630D02*
X0166354Y0085646D01*
X0167339Y0086630D02*
X0176197Y0086630D01*
X0176197Y0063008D02*
X0157496Y0063008D01*
X0152575Y0056118D02*
X0162417Y0046276D01*
X0198835Y0046276D01*
X0205724Y0039386D01*
X0205724Y0033480D02*
X0205724Y0020094D01*
X0182102Y0020094D02*
X0182102Y0033480D01*
X0182102Y0039386D02*
X0159465Y0039386D01*
X0148638Y0050213D01*
X0148638Y0056118D02*
X0152575Y0056118D01*
X0168323Y0058087D02*
X0175213Y0058087D01*
X0176197Y0057102D01*
X0140764Y0042339D02*
X0140764Y0038992D01*
X0130921Y0050213D02*
X0117142Y0050213D01*
X0107299Y0060055D01*
X0107299Y0066777D01*
X0110449Y0066777D02*
X0110449Y0062811D01*
X0117142Y0056118D01*
X0130921Y0056118D01*
X0134858Y0071866D02*
X0124622Y0082102D01*
X0116325Y0082102D01*
X0028559Y0060055D02*
X0013362Y0044858D01*
X0008874Y0044858D01*
X0217535Y0046276D02*
X0222457Y0046276D01*
X0229346Y0039386D01*
X0229346Y0033480D02*
X0229346Y0020094D01*
X0247063Y0054150D02*
X0247063Y0063992D01*
X0243126Y0067929D01*
X0236236Y0067929D01*
X0235252Y0068913D01*
M02*
