G75*
%MOIN*%
%OFA0B0*%
%FSLAX25Y25*%
%IPPOS*%
%LPD*%
%AMOC8*
5,1,8,0,0,1.08239X$1,22.5*
%
%ADD10R,0.05131X0.04737*%
%ADD11R,0.04737X0.05131*%
%ADD12C,0.08200*%
%ADD13R,0.03950X0.03950*%
%ADD14R,0.05524X0.10643*%
%ADD15C,0.04343*%
%ADD16R,0.07099X0.09855*%
%ADD17C,0.03500*%
%ADD18C,0.05000*%
%ADD19R,0.03000X0.05800*%
%ADD20R,0.05800X0.03000*%
%ADD21R,0.08674X0.04737*%
%ADD22C,0.12611*%
%ADD23R,0.02965X0.05524*%
%ADD24R,0.08280X0.05131*%
%ADD25C,0.04965*%
D10*
X0092142Y0052181D03*
X0098835Y0052181D03*
X0182102Y0020094D03*
X0182102Y0013402D03*
X0205724Y0013402D03*
X0205724Y0020094D03*
X0229346Y0020094D03*
X0229346Y0013402D03*
X0063402Y0115173D03*
X0056709Y0115173D03*
X0092142Y0138795D03*
X0098835Y0138795D03*
D11*
X0154543Y0138205D03*
X0154543Y0131512D03*
X0154543Y0106709D03*
X0154543Y0100016D03*
X0201787Y0131512D03*
X0201787Y0138205D03*
D12*
X0024622Y0024622D03*
X0034622Y0024622D03*
X0044622Y0024622D03*
X0054622Y0024622D03*
X0064622Y0024622D03*
X0074622Y0024622D03*
X0008874Y0044858D03*
X0008874Y0054858D03*
X0008874Y0064858D03*
X0008874Y0074858D03*
X0008874Y0084858D03*
X0008874Y0094858D03*
X0008874Y0104858D03*
X0008874Y0114858D03*
X0008874Y0124858D03*
X0008874Y0134858D03*
D13*
X0182102Y0039386D03*
X0182102Y0033480D03*
X0205724Y0033480D03*
X0205724Y0039386D03*
X0229346Y0039386D03*
X0229346Y0033480D03*
D14*
X0223441Y0159465D03*
X0213598Y0159465D03*
X0203756Y0159465D03*
D15*
X0199622Y0170291D03*
X0227575Y0170291D03*
D16*
X0140764Y0038992D03*
X0140764Y0014189D03*
D17*
X0146669Y0168323D03*
X0166354Y0168323D03*
X0117142Y0168323D03*
X0097457Y0168323D03*
X0067929Y0168323D03*
X0048244Y0168323D03*
D18*
X0044307Y0158480D03*
X0071866Y0158480D03*
X0093520Y0158480D03*
X0121079Y0158480D03*
X0142732Y0158480D03*
X0170291Y0158480D03*
D19*
X0110449Y0100577D03*
X0107299Y0100577D03*
X0104150Y0100577D03*
X0101000Y0100577D03*
X0097850Y0100577D03*
X0094701Y0100577D03*
X0091551Y0100577D03*
X0088402Y0100577D03*
X0088402Y0066777D03*
X0091551Y0066777D03*
X0094701Y0066777D03*
X0097850Y0066777D03*
X0101000Y0066777D03*
X0104150Y0066777D03*
X0107299Y0066777D03*
X0110449Y0066777D03*
D20*
X0116325Y0072654D03*
X0116325Y0075803D03*
X0116325Y0078953D03*
X0116325Y0082102D03*
X0116325Y0085252D03*
X0116325Y0088402D03*
X0116325Y0091551D03*
X0116325Y0094701D03*
X0082525Y0094701D03*
X0082525Y0091551D03*
X0082525Y0088402D03*
X0082525Y0085252D03*
X0082525Y0082102D03*
X0082525Y0078953D03*
X0082525Y0075803D03*
X0082525Y0072654D03*
D21*
X0176197Y0074819D03*
X0176197Y0080724D03*
X0176197Y0086630D03*
X0176197Y0092535D03*
X0176197Y0098441D03*
X0176197Y0104346D03*
X0176197Y0110252D03*
X0176197Y0068913D03*
X0176197Y0063008D03*
X0176197Y0057102D03*
X0235252Y0057102D03*
X0235252Y0063008D03*
X0235252Y0068913D03*
X0235252Y0074819D03*
X0235252Y0080724D03*
X0235252Y0086630D03*
X0235252Y0092535D03*
X0235252Y0098441D03*
X0235252Y0104346D03*
X0235252Y0110252D03*
D22*
X0207693Y0087024D03*
D23*
X0181906Y0129740D03*
X0178165Y0129740D03*
X0174425Y0129740D03*
X0174425Y0139977D03*
X0181906Y0139977D03*
D24*
X0090961Y0123638D03*
X0090961Y0114583D03*
X0076394Y0114583D03*
X0076394Y0123638D03*
D25*
X0071866Y0138795D03*
X0058087Y0138795D03*
X0044307Y0138795D03*
X0058087Y0099425D03*
X0067929Y0093520D03*
X0089583Y0089583D03*
X0094701Y0082890D03*
X0077772Y0063992D03*
X0083677Y0056118D03*
X0091551Y0042339D03*
X0067929Y0040370D03*
X0056118Y0040370D03*
X0046276Y0040370D03*
X0024622Y0044307D03*
X0016748Y0034465D03*
X0028559Y0060055D03*
X0063992Y0058087D03*
X0040370Y0088402D03*
X0099425Y0130921D03*
X0126984Y0132890D03*
X0126984Y0144701D03*
X0148638Y0130921D03*
X0160449Y0130921D03*
X0174228Y0123047D03*
X0188598Y0123047D03*
X0207693Y0130921D03*
X0213598Y0146669D03*
X0188008Y0158480D03*
X0247063Y0103362D03*
X0247063Y0081709D03*
X0247063Y0054150D03*
X0217535Y0046276D03*
X0217535Y0026591D03*
X0193913Y0026591D03*
X0164386Y0026591D03*
X0148638Y0050213D03*
X0148638Y0056118D03*
X0158480Y0067929D03*
X0168323Y0058087D03*
X0134858Y0071866D03*
X0154150Y0084071D03*
X0154150Y0092339D03*
X0166354Y0098638D03*
X0166354Y0085646D03*
X0130921Y0095488D03*
X0130921Y0056118D03*
X0130921Y0050213D03*
X0107299Y0014780D03*
X0091551Y0014780D03*
M02*
