G75*
%MOIN*%
%OFA0B0*%
%FSLAX25Y25*%
%IPPOS*%
%LPD*%
%AMOC8*
5,1,8,0,0,1.08239X$1,22.5*
%
%ADD10C,0.07400*%
%ADD11R,0.18110X0.03937*%
%ADD12R,0.13386X0.06299*%
%ADD13C,0.08661*%
%ADD14C,0.06693*%
%ADD15C,0.02000*%
%ADD16C,0.04165*%
%ADD17C,0.01000*%
D10*
X0024622Y0024622D03*
X0034622Y0024622D03*
X0044622Y0024622D03*
X0054622Y0024622D03*
X0064622Y0024622D03*
X0074622Y0024622D03*
X0008874Y0044858D03*
X0008874Y0054858D03*
X0008874Y0064858D03*
X0008874Y0074858D03*
X0008874Y0084858D03*
X0008874Y0094858D03*
X0008874Y0104858D03*
X0008874Y0114858D03*
X0008874Y0124858D03*
X0008874Y0134858D03*
D11*
X0222654Y0130921D03*
X0222654Y0138795D03*
D12*
X0243126Y0148244D03*
X0243126Y0121472D03*
D13*
X0170291Y0158480D03*
X0142732Y0158480D03*
X0121079Y0158480D03*
X0093520Y0158480D03*
X0071866Y0158480D03*
X0044307Y0158480D03*
D14*
X0049228Y0168323D03*
X0066945Y0168323D03*
X0098441Y0168323D03*
X0116157Y0168323D03*
X0147654Y0168323D03*
X0165370Y0168323D03*
D15*
X0004937Y0040734D02*
X0004937Y0006906D01*
X0251000Y0006906D01*
X0251000Y0052986D01*
X0250524Y0051837D01*
X0249376Y0050688D01*
X0247875Y0050067D01*
X0246516Y0050067D01*
X0231466Y0035017D01*
X0231466Y0035017D01*
X0230763Y0034314D01*
X0229844Y0033933D01*
X0209164Y0033933D01*
X0208245Y0034314D01*
X0207542Y0035017D01*
X0173193Y0069366D01*
X0162304Y0069366D01*
X0162563Y0068741D01*
X0162563Y0067382D01*
X0167776Y0062169D01*
X0169135Y0062169D01*
X0170635Y0061548D01*
X0171784Y0060399D01*
X0172405Y0058899D01*
X0172405Y0057275D01*
X0171784Y0055774D01*
X0170635Y0054625D01*
X0169135Y0054004D01*
X0167511Y0054004D01*
X0166010Y0054625D01*
X0164862Y0055774D01*
X0164240Y0057275D01*
X0164240Y0058634D01*
X0159027Y0063846D01*
X0157668Y0063846D01*
X0156168Y0064468D01*
X0155019Y0065616D01*
X0154398Y0067117D01*
X0154398Y0068741D01*
X0154656Y0069366D01*
X0138132Y0069366D01*
X0137171Y0068405D01*
X0135670Y0067783D01*
X0134046Y0067783D01*
X0132546Y0068405D01*
X0131397Y0069553D01*
X0130776Y0071054D01*
X0130776Y0072678D01*
X0131397Y0074179D01*
X0132546Y0075327D01*
X0134046Y0075949D01*
X0135670Y0075949D01*
X0137171Y0075327D01*
X0138132Y0074366D01*
X0174098Y0074366D01*
X0168172Y0080293D01*
X0166901Y0081563D01*
X0165542Y0081563D01*
X0164042Y0082185D01*
X0162893Y0083333D01*
X0162272Y0084834D01*
X0162272Y0086458D01*
X0162893Y0087958D01*
X0164042Y0089107D01*
X0165542Y0089728D01*
X0167166Y0089728D01*
X0168667Y0089107D01*
X0169815Y0087958D01*
X0170437Y0086458D01*
X0170437Y0085099D01*
X0171707Y0083828D01*
X0206760Y0048776D01*
X0214262Y0048776D01*
X0215223Y0049737D01*
X0216723Y0050358D01*
X0218348Y0050358D01*
X0219848Y0049737D01*
X0220997Y0048588D01*
X0221618Y0047088D01*
X0221618Y0045463D01*
X0220997Y0043963D01*
X0219848Y0042814D01*
X0218348Y0042193D01*
X0216723Y0042193D01*
X0215223Y0042814D01*
X0214262Y0043776D01*
X0205854Y0043776D01*
X0210697Y0038933D01*
X0228311Y0038933D01*
X0242980Y0053602D01*
X0242980Y0054962D01*
X0243602Y0056462D01*
X0244750Y0057611D01*
X0246251Y0058232D01*
X0247875Y0058232D01*
X0249376Y0057611D01*
X0250524Y0056462D01*
X0251000Y0055313D01*
X0251000Y0116676D01*
X0250647Y0116323D01*
X0235605Y0116323D01*
X0234433Y0117494D01*
X0234433Y0125450D01*
X0235605Y0126622D01*
X0250647Y0126622D01*
X0251000Y0126269D01*
X0251000Y0143447D01*
X0250647Y0143094D01*
X0235605Y0143094D01*
X0234433Y0144266D01*
X0234433Y0152222D01*
X0235605Y0153394D01*
X0250647Y0153394D01*
X0251000Y0153041D01*
X0251000Y0174228D01*
X0004937Y0174228D01*
X0004937Y0138982D01*
X0005161Y0139206D01*
X0005887Y0139733D01*
X0006686Y0140141D01*
X0007539Y0140418D01*
X0008425Y0140558D01*
X0008874Y0140558D01*
X0008874Y0134858D01*
X0008874Y0134858D01*
X0014574Y0134858D01*
X0014574Y0134410D01*
X0014434Y0133523D01*
X0014156Y0132670D01*
X0013749Y0131871D01*
X0013222Y0131145D01*
X0012587Y0130511D01*
X0011861Y0129983D01*
X0011653Y0129877D01*
X0012103Y0129690D01*
X0013706Y0128087D01*
X0013801Y0127858D01*
X0161203Y0127858D01*
X0162306Y0127402D01*
X0163660Y0126047D01*
X0171455Y0126047D01*
X0171916Y0126508D01*
X0173416Y0127130D01*
X0175040Y0127130D01*
X0176541Y0126508D01*
X0177002Y0126047D01*
X0185824Y0126047D01*
X0186285Y0126508D01*
X0187786Y0127130D01*
X0189410Y0127130D01*
X0190911Y0126508D01*
X0192059Y0125360D01*
X0192681Y0123859D01*
X0192681Y0122235D01*
X0192059Y0120735D01*
X0190911Y0119586D01*
X0189410Y0118965D01*
X0187786Y0118965D01*
X0186285Y0119586D01*
X0185824Y0120047D01*
X0177002Y0120047D01*
X0176541Y0119586D01*
X0175040Y0118965D01*
X0173416Y0118965D01*
X0171916Y0119586D01*
X0171455Y0120047D01*
X0161821Y0120047D01*
X0160718Y0120504D01*
X0159874Y0121348D01*
X0159364Y0121858D01*
X0013801Y0121858D01*
X0013706Y0121629D01*
X0012103Y0120026D01*
X0011698Y0119858D01*
X0012103Y0119690D01*
X0013706Y0118087D01*
X0014574Y0115992D01*
X0014574Y0113724D01*
X0013706Y0111629D01*
X0012103Y0110026D01*
X0011698Y0109858D01*
X0012103Y0109690D01*
X0013706Y0108087D01*
X0014574Y0105992D01*
X0014574Y0103724D01*
X0013706Y0101629D01*
X0012103Y0100026D01*
X0011698Y0099858D01*
X0012103Y0099690D01*
X0013706Y0098087D01*
X0014041Y0097280D01*
X0034265Y0096971D01*
X0034288Y0096980D01*
X0034762Y0096964D01*
X0035236Y0096957D01*
X0035258Y0096947D01*
X0035282Y0096946D01*
X0035714Y0096750D01*
X0036149Y0096562D01*
X0036166Y0096545D01*
X0036187Y0096535D01*
X0036512Y0096188D01*
X0036842Y0095848D01*
X0036850Y0095826D01*
X0039975Y0092484D01*
X0041182Y0092484D01*
X0042683Y0091863D01*
X0043831Y0090714D01*
X0044453Y0089214D01*
X0044453Y0087589D01*
X0043831Y0086089D01*
X0042683Y0084940D01*
X0041182Y0084319D01*
X0039558Y0084319D01*
X0038057Y0084940D01*
X0036909Y0086089D01*
X0036287Y0087589D01*
X0036287Y0089107D01*
X0033600Y0091981D01*
X0013976Y0092280D01*
X0013706Y0091629D01*
X0012103Y0090026D01*
X0011698Y0089858D01*
X0012103Y0089690D01*
X0013706Y0088087D01*
X0014574Y0085992D01*
X0014574Y0083724D01*
X0013706Y0081629D01*
X0012103Y0080026D01*
X0011698Y0079858D01*
X0012103Y0079690D01*
X0013706Y0078087D01*
X0014574Y0075992D01*
X0014574Y0073724D01*
X0013706Y0071629D01*
X0012103Y0070026D01*
X0011698Y0069858D01*
X0012103Y0069690D01*
X0013706Y0068087D01*
X0014574Y0065992D01*
X0014574Y0063724D01*
X0013706Y0061629D01*
X0012103Y0060026D01*
X0011698Y0059858D01*
X0012103Y0059690D01*
X0013706Y0058087D01*
X0014008Y0057358D01*
X0025482Y0057358D01*
X0025098Y0057742D01*
X0024476Y0059243D01*
X0024476Y0060867D01*
X0025098Y0062368D01*
X0026246Y0063516D01*
X0027747Y0064138D01*
X0029106Y0064138D01*
X0060607Y0095639D01*
X0061526Y0096020D01*
X0064655Y0096020D01*
X0065561Y0096925D01*
X0061360Y0096925D01*
X0060399Y0095964D01*
X0058899Y0095343D01*
X0057275Y0095343D01*
X0055774Y0095964D01*
X0054625Y0097113D01*
X0054004Y0098613D01*
X0054004Y0100237D01*
X0054625Y0101738D01*
X0055774Y0102886D01*
X0057275Y0103508D01*
X0058899Y0103508D01*
X0060399Y0102886D01*
X0061360Y0101925D01*
X0080237Y0101925D01*
X0081156Y0101545D01*
X0081860Y0100841D01*
X0089036Y0093665D01*
X0090395Y0093665D01*
X0091895Y0093044D01*
X0093044Y0091895D01*
X0093665Y0090395D01*
X0093665Y0088771D01*
X0093044Y0087270D01*
X0091895Y0086122D01*
X0090395Y0085500D01*
X0088771Y0085500D01*
X0087270Y0086122D01*
X0086122Y0087270D01*
X0085500Y0088771D01*
X0085500Y0090130D01*
X0078705Y0096925D01*
X0070297Y0096925D01*
X0071390Y0095832D01*
X0072012Y0094332D01*
X0072012Y0092708D01*
X0071390Y0091207D01*
X0070242Y0090059D01*
X0068741Y0089437D01*
X0067117Y0089437D01*
X0065616Y0090059D01*
X0064655Y0091020D01*
X0063059Y0091020D01*
X0032642Y0060602D01*
X0032642Y0059243D01*
X0032020Y0057742D01*
X0031636Y0057358D01*
X0051854Y0057358D01*
X0059904Y0065408D01*
X0060607Y0066112D01*
X0061526Y0066492D01*
X0074498Y0066492D01*
X0075459Y0067453D01*
X0076960Y0068075D01*
X0078584Y0068075D01*
X0080084Y0067453D01*
X0081233Y0066305D01*
X0081854Y0064804D01*
X0081854Y0063180D01*
X0081233Y0061679D01*
X0080084Y0060531D01*
X0079624Y0060340D01*
X0060201Y0040917D01*
X0060201Y0039558D01*
X0059579Y0038057D01*
X0058431Y0036909D01*
X0056930Y0036287D01*
X0055306Y0036287D01*
X0053805Y0036909D01*
X0052657Y0038057D01*
X0052035Y0039558D01*
X0052035Y0041182D01*
X0052657Y0042683D01*
X0053805Y0043831D01*
X0055306Y0044453D01*
X0056665Y0044453D01*
X0073705Y0061492D01*
X0066360Y0061492D01*
X0067453Y0060399D01*
X0068075Y0058899D01*
X0068075Y0057275D01*
X0067453Y0055774D01*
X0066305Y0054625D01*
X0064804Y0054004D01*
X0063445Y0054004D01*
X0050358Y0040917D01*
X0050358Y0039558D01*
X0049737Y0038057D01*
X0048588Y0036909D01*
X0047088Y0036287D01*
X0045463Y0036287D01*
X0043963Y0036909D01*
X0042814Y0038057D01*
X0042193Y0039558D01*
X0042193Y0041182D01*
X0042814Y0042683D01*
X0043963Y0043831D01*
X0045463Y0044453D01*
X0046823Y0044453D01*
X0059909Y0057539D01*
X0059909Y0058342D01*
X0054306Y0052739D01*
X0053387Y0052358D01*
X0014008Y0052358D01*
X0013706Y0051629D01*
X0012103Y0050026D01*
X0011698Y0049858D01*
X0012103Y0049690D01*
X0013706Y0048087D01*
X0014574Y0045992D01*
X0014574Y0043724D01*
X0013706Y0041629D01*
X0012103Y0040026D01*
X0010008Y0039158D01*
X0007740Y0039158D01*
X0005645Y0040026D01*
X0004937Y0040734D01*
X0004937Y0038972D02*
X0042436Y0038972D01*
X0042193Y0040970D02*
X0013047Y0040970D01*
X0014261Y0042969D02*
X0043100Y0042969D01*
X0047337Y0044967D02*
X0014574Y0044967D01*
X0014171Y0046966D02*
X0049336Y0046966D01*
X0051334Y0048964D02*
X0012829Y0048964D01*
X0013040Y0050963D02*
X0053333Y0050963D01*
X0054528Y0052961D02*
X0055331Y0052961D01*
X0056527Y0054960D02*
X0057330Y0054960D01*
X0058525Y0056958D02*
X0059328Y0056958D01*
X0062402Y0052961D02*
X0065174Y0052961D01*
X0066639Y0054960D02*
X0067172Y0054960D01*
X0067944Y0056958D02*
X0069171Y0056958D01*
X0068051Y0058957D02*
X0071169Y0058957D01*
X0073168Y0060955D02*
X0066897Y0060955D01*
X0059448Y0064952D02*
X0036992Y0064952D01*
X0034993Y0062954D02*
X0057450Y0062954D01*
X0055451Y0060955D02*
X0032995Y0060955D01*
X0032523Y0058957D02*
X0053453Y0058957D01*
X0060404Y0050963D02*
X0063175Y0050963D01*
X0061177Y0048964D02*
X0058405Y0048964D01*
X0059178Y0046966D02*
X0056407Y0046966D01*
X0057180Y0044967D02*
X0054408Y0044967D01*
X0052943Y0042969D02*
X0052410Y0042969D01*
X0052035Y0040970D02*
X0050411Y0040970D01*
X0050115Y0038972D02*
X0052278Y0038972D01*
X0053741Y0036973D02*
X0048652Y0036973D01*
X0043899Y0036973D02*
X0004937Y0036973D01*
X0004937Y0034975D02*
X0207584Y0034975D01*
X0205586Y0036973D02*
X0070306Y0036973D01*
X0070242Y0036909D02*
X0071390Y0038057D01*
X0072012Y0039558D01*
X0072012Y0040917D01*
X0083130Y0052035D01*
X0084489Y0052035D01*
X0085990Y0052657D01*
X0087138Y0053805D01*
X0087760Y0055306D01*
X0087760Y0056930D01*
X0087138Y0058431D01*
X0085990Y0059579D01*
X0084489Y0060201D01*
X0082865Y0060201D01*
X0081365Y0059579D01*
X0080216Y0058431D01*
X0079594Y0056930D01*
X0079594Y0055571D01*
X0068476Y0044453D01*
X0067117Y0044453D01*
X0065616Y0043831D01*
X0064468Y0042683D01*
X0063846Y0041182D01*
X0063846Y0039558D01*
X0064468Y0038057D01*
X0065616Y0036909D01*
X0067117Y0036287D01*
X0068741Y0036287D01*
X0070242Y0036909D01*
X0071769Y0038972D02*
X0203587Y0038972D01*
X0201589Y0040970D02*
X0072065Y0040970D01*
X0074063Y0042969D02*
X0199590Y0042969D01*
X0197592Y0044967D02*
X0076062Y0044967D01*
X0078060Y0046966D02*
X0128394Y0046966D01*
X0128609Y0046751D02*
X0130109Y0046130D01*
X0131733Y0046130D01*
X0133234Y0046751D01*
X0134195Y0047713D01*
X0145364Y0047713D01*
X0146325Y0046751D01*
X0147826Y0046130D01*
X0149450Y0046130D01*
X0150950Y0046751D01*
X0152099Y0047900D01*
X0152720Y0049400D01*
X0152720Y0051025D01*
X0152099Y0052525D01*
X0151459Y0053165D01*
X0152099Y0053805D01*
X0152720Y0055306D01*
X0152720Y0056930D01*
X0152099Y0058431D01*
X0150950Y0059579D01*
X0149450Y0060201D01*
X0147826Y0060201D01*
X0146325Y0059579D01*
X0145364Y0058618D01*
X0134195Y0058618D01*
X0133234Y0059579D01*
X0131733Y0060201D01*
X0130109Y0060201D01*
X0128609Y0059579D01*
X0127460Y0058431D01*
X0126839Y0056930D01*
X0126839Y0055306D01*
X0127460Y0053805D01*
X0128100Y0053165D01*
X0127460Y0052525D01*
X0126839Y0051025D01*
X0126839Y0049400D01*
X0127460Y0047900D01*
X0128609Y0046751D01*
X0127019Y0048964D02*
X0080059Y0048964D01*
X0082057Y0050963D02*
X0126839Y0050963D01*
X0127896Y0052961D02*
X0086294Y0052961D01*
X0087616Y0054960D02*
X0126982Y0054960D01*
X0126850Y0056958D02*
X0087748Y0056958D01*
X0086612Y0058957D02*
X0127986Y0058957D01*
X0133856Y0058957D02*
X0145703Y0058957D01*
X0151573Y0058957D02*
X0163917Y0058957D01*
X0164371Y0056958D02*
X0152709Y0056958D01*
X0152577Y0054960D02*
X0165676Y0054960D01*
X0170970Y0054960D02*
X0187599Y0054960D01*
X0185601Y0056958D02*
X0172275Y0056958D01*
X0172381Y0058957D02*
X0183602Y0058957D01*
X0181604Y0060955D02*
X0171228Y0060955D01*
X0166991Y0062954D02*
X0179605Y0062954D01*
X0177607Y0064952D02*
X0164993Y0064952D01*
X0162994Y0066951D02*
X0175608Y0066951D01*
X0173610Y0068949D02*
X0162477Y0068949D01*
X0155683Y0064952D02*
X0081793Y0064952D01*
X0081761Y0062954D02*
X0159920Y0062954D01*
X0161919Y0060955D02*
X0080509Y0060955D01*
X0080742Y0058957D02*
X0078240Y0058957D01*
X0079606Y0056958D02*
X0076242Y0056958D01*
X0074243Y0054960D02*
X0078983Y0054960D01*
X0076985Y0052961D02*
X0072245Y0052961D01*
X0070246Y0050963D02*
X0074986Y0050963D01*
X0072988Y0048964D02*
X0068248Y0048964D01*
X0066249Y0046966D02*
X0070989Y0046966D01*
X0068991Y0044967D02*
X0064251Y0044967D01*
X0064754Y0042969D02*
X0062252Y0042969D01*
X0063846Y0040970D02*
X0060254Y0040970D01*
X0059958Y0038972D02*
X0064089Y0038972D01*
X0065552Y0036973D02*
X0058495Y0036973D01*
X0055756Y0030322D02*
X0053488Y0030322D01*
X0051393Y0029454D01*
X0049790Y0027851D01*
X0049622Y0027446D01*
X0049454Y0027851D01*
X0047851Y0029454D01*
X0045756Y0030322D01*
X0043488Y0030322D01*
X0041393Y0029454D01*
X0039790Y0027851D01*
X0039622Y0027446D01*
X0039454Y0027851D01*
X0037851Y0029454D01*
X0035756Y0030322D01*
X0033488Y0030322D01*
X0031393Y0029454D01*
X0029790Y0027851D01*
X0029603Y0027401D01*
X0029497Y0027609D01*
X0028970Y0028335D01*
X0028335Y0028970D01*
X0027609Y0029497D01*
X0026810Y0029904D01*
X0025957Y0030182D01*
X0025071Y0030322D01*
X0024622Y0030322D01*
X0024173Y0030322D01*
X0023287Y0030182D01*
X0022434Y0029904D01*
X0021635Y0029497D01*
X0020909Y0028970D01*
X0020274Y0028335D01*
X0019747Y0027609D01*
X0019340Y0026810D01*
X0019062Y0025957D01*
X0018922Y0025071D01*
X0018922Y0024622D01*
X0018922Y0024173D01*
X0019062Y0023287D01*
X0019340Y0022434D01*
X0019747Y0021635D01*
X0020274Y0020909D01*
X0020909Y0020274D01*
X0021635Y0019747D01*
X0022434Y0019340D01*
X0023287Y0019062D01*
X0024173Y0018922D01*
X0024622Y0018922D01*
X0024622Y0024622D01*
X0024622Y0028559D01*
X0030528Y0034465D01*
X0083677Y0034465D01*
X0078326Y0028979D02*
X0251000Y0028979D01*
X0251000Y0026981D02*
X0079815Y0026981D01*
X0079454Y0027851D02*
X0077851Y0029454D01*
X0075756Y0030322D01*
X0073488Y0030322D01*
X0071393Y0029454D01*
X0069790Y0027851D01*
X0069622Y0027446D01*
X0069454Y0027851D01*
X0067851Y0029454D01*
X0065756Y0030322D01*
X0063488Y0030322D01*
X0061393Y0029454D01*
X0059790Y0027851D01*
X0059622Y0027446D01*
X0059454Y0027851D01*
X0057851Y0029454D01*
X0055756Y0030322D01*
X0058326Y0028979D02*
X0060918Y0028979D01*
X0068326Y0028979D02*
X0070918Y0028979D01*
X0079454Y0027851D02*
X0080322Y0025756D01*
X0080322Y0023488D01*
X0079454Y0021393D01*
X0077851Y0019790D01*
X0075756Y0018922D01*
X0073488Y0018922D01*
X0071393Y0019790D01*
X0069790Y0021393D01*
X0069622Y0021798D01*
X0069454Y0021393D01*
X0067851Y0019790D01*
X0065756Y0018922D01*
X0063488Y0018922D01*
X0061393Y0019790D01*
X0059790Y0021393D01*
X0059622Y0021798D01*
X0059454Y0021393D01*
X0057851Y0019790D01*
X0055756Y0018922D01*
X0053488Y0018922D01*
X0051393Y0019790D01*
X0049790Y0021393D01*
X0049622Y0021798D01*
X0049454Y0021393D01*
X0047851Y0019790D01*
X0045756Y0018922D01*
X0043488Y0018922D01*
X0041393Y0019790D01*
X0039790Y0021393D01*
X0039622Y0021798D01*
X0039454Y0021393D01*
X0037851Y0019790D01*
X0035756Y0018922D01*
X0033488Y0018922D01*
X0031393Y0019790D01*
X0029790Y0021393D01*
X0029603Y0021843D01*
X0029497Y0021635D01*
X0028970Y0020909D01*
X0028335Y0020274D01*
X0027609Y0019747D01*
X0026810Y0019340D01*
X0025957Y0019062D01*
X0025071Y0018922D01*
X0024622Y0018922D01*
X0024622Y0024622D01*
X0018922Y0024622D01*
X0024622Y0024622D01*
X0024622Y0024622D01*
X0024622Y0024622D01*
X0024622Y0030322D01*
X0024622Y0024622D01*
X0024622Y0024622D01*
X0024622Y0024982D02*
X0024622Y0024982D01*
X0024622Y0022984D02*
X0024622Y0022984D01*
X0024622Y0020985D02*
X0024622Y0020985D01*
X0024622Y0018987D02*
X0024622Y0018987D01*
X0023766Y0018987D02*
X0004937Y0018987D01*
X0004937Y0020985D02*
X0020219Y0020985D01*
X0019161Y0022984D02*
X0004937Y0022984D01*
X0004937Y0024982D02*
X0018922Y0024982D01*
X0019427Y0026981D02*
X0004937Y0026981D01*
X0004937Y0028979D02*
X0020922Y0028979D01*
X0024622Y0028979D02*
X0024622Y0028979D01*
X0024622Y0026981D02*
X0024622Y0026981D01*
X0028322Y0028979D02*
X0030918Y0028979D01*
X0038326Y0028979D02*
X0040918Y0028979D01*
X0048326Y0028979D02*
X0050918Y0028979D01*
X0050198Y0020985D02*
X0049046Y0020985D01*
X0045912Y0018987D02*
X0053332Y0018987D01*
X0055912Y0018987D02*
X0063332Y0018987D01*
X0065912Y0018987D02*
X0073332Y0018987D01*
X0075912Y0018987D02*
X0251000Y0018987D01*
X0251000Y0020985D02*
X0079046Y0020985D01*
X0080113Y0022984D02*
X0251000Y0022984D01*
X0251000Y0024982D02*
X0080322Y0024982D01*
X0070198Y0020985D02*
X0069046Y0020985D01*
X0060198Y0020985D02*
X0059046Y0020985D01*
X0043332Y0018987D02*
X0035912Y0018987D01*
X0033332Y0018987D02*
X0025478Y0018987D01*
X0029025Y0020985D02*
X0030198Y0020985D01*
X0039046Y0020985D02*
X0040198Y0020985D01*
X0004937Y0016988D02*
X0251000Y0016988D01*
X0251000Y0014990D02*
X0004937Y0014990D01*
X0004937Y0012991D02*
X0251000Y0012991D01*
X0251000Y0010993D02*
X0004937Y0010993D01*
X0004937Y0008994D02*
X0251000Y0008994D01*
X0251000Y0006996D02*
X0004937Y0006996D01*
X0004937Y0030978D02*
X0251000Y0030978D01*
X0251000Y0032976D02*
X0004937Y0032976D01*
X0012836Y0058957D02*
X0024595Y0058957D01*
X0024513Y0060955D02*
X0013032Y0060955D01*
X0014255Y0062954D02*
X0025684Y0062954D01*
X0029921Y0064952D02*
X0014574Y0064952D01*
X0014177Y0066951D02*
X0031919Y0066951D01*
X0033918Y0068949D02*
X0012844Y0068949D01*
X0013025Y0070948D02*
X0035916Y0070948D01*
X0037915Y0072946D02*
X0014252Y0072946D01*
X0014574Y0074945D02*
X0039913Y0074945D01*
X0041912Y0076943D02*
X0014180Y0076943D01*
X0012851Y0078942D02*
X0043910Y0078942D01*
X0045909Y0080940D02*
X0013017Y0080940D01*
X0014249Y0082939D02*
X0047907Y0082939D01*
X0049906Y0084937D02*
X0042676Y0084937D01*
X0044182Y0086936D02*
X0051904Y0086936D01*
X0053903Y0088934D02*
X0044453Y0088934D01*
X0043612Y0090933D02*
X0055901Y0090933D01*
X0057900Y0092932D02*
X0039557Y0092932D01*
X0037688Y0094930D02*
X0059898Y0094930D01*
X0062972Y0090933D02*
X0064742Y0090933D01*
X0060974Y0088934D02*
X0085500Y0088934D01*
X0084697Y0090933D02*
X0071116Y0090933D01*
X0072012Y0092932D02*
X0082698Y0092932D01*
X0080700Y0094930D02*
X0071764Y0094930D01*
X0081775Y0100926D02*
X0251000Y0100926D01*
X0251000Y0102924D02*
X0060308Y0102924D01*
X0055865Y0102924D02*
X0014242Y0102924D01*
X0014574Y0104923D02*
X0251000Y0104923D01*
X0251000Y0106921D02*
X0014189Y0106921D01*
X0012874Y0108920D02*
X0251000Y0108920D01*
X0251000Y0110918D02*
X0012995Y0110918D01*
X0014239Y0112917D02*
X0251000Y0112917D01*
X0251000Y0114915D02*
X0014574Y0114915D01*
X0014192Y0116914D02*
X0235014Y0116914D01*
X0234433Y0118912D02*
X0012881Y0118912D01*
X0012987Y0120911D02*
X0160311Y0120911D01*
X0162417Y0123047D02*
X0174228Y0123047D01*
X0188598Y0123047D01*
X0192681Y0122909D02*
X0234433Y0122909D01*
X0234433Y0120911D02*
X0192132Y0120911D01*
X0192246Y0124908D02*
X0234433Y0124908D01*
X0232937Y0127352D02*
X0233309Y0127725D01*
X0233572Y0128181D01*
X0233709Y0128689D01*
X0233709Y0130921D01*
X0222654Y0130921D01*
X0222654Y0130921D01*
X0222654Y0126953D01*
X0231972Y0126953D01*
X0232481Y0127089D01*
X0232937Y0127352D01*
X0233709Y0128905D02*
X0251000Y0128905D01*
X0251000Y0130903D02*
X0233709Y0130903D01*
X0233709Y0130921D02*
X0233709Y0133153D01*
X0233572Y0133662D01*
X0233309Y0134118D01*
X0232937Y0134490D01*
X0232481Y0134753D01*
X0232207Y0134827D01*
X0232537Y0134827D01*
X0233709Y0135998D01*
X0233709Y0141592D01*
X0232537Y0142764D01*
X0221747Y0142764D01*
X0217681Y0146829D01*
X0217681Y0147481D01*
X0217060Y0148982D01*
X0215911Y0150130D01*
X0214411Y0150752D01*
X0212786Y0150752D01*
X0211286Y0150130D01*
X0210137Y0148982D01*
X0209516Y0147481D01*
X0209516Y0145857D01*
X0210137Y0144357D01*
X0211286Y0143208D01*
X0212650Y0142643D01*
X0211598Y0141592D01*
X0211598Y0135998D01*
X0212770Y0134827D01*
X0213100Y0134827D01*
X0212826Y0134753D01*
X0212370Y0134490D01*
X0211998Y0134118D01*
X0211735Y0133662D01*
X0211598Y0133153D01*
X0211598Y0130921D01*
X0211598Y0128689D01*
X0211735Y0128181D01*
X0211998Y0127725D01*
X0212370Y0127352D01*
X0212826Y0127089D01*
X0213335Y0126953D01*
X0222653Y0126953D01*
X0222653Y0130921D01*
X0211598Y0130921D01*
X0222653Y0130921D01*
X0222653Y0130921D01*
X0222654Y0130921D01*
X0233709Y0130921D01*
X0233709Y0132902D02*
X0251000Y0132902D01*
X0251000Y0134900D02*
X0232611Y0134900D01*
X0233709Y0136899D02*
X0251000Y0136899D01*
X0251000Y0138897D02*
X0233709Y0138897D01*
X0233709Y0140896D02*
X0251000Y0140896D01*
X0251000Y0142894D02*
X0221616Y0142894D01*
X0219618Y0144893D02*
X0234433Y0144893D01*
X0234433Y0146891D02*
X0217681Y0146891D01*
X0217098Y0148890D02*
X0234433Y0148890D01*
X0234433Y0150888D02*
X0004937Y0150888D01*
X0004937Y0148890D02*
X0210099Y0148890D01*
X0209516Y0146891D02*
X0004937Y0146891D01*
X0004937Y0144893D02*
X0209915Y0144893D01*
X0212043Y0142894D02*
X0004937Y0142894D01*
X0004937Y0140896D02*
X0211598Y0140896D01*
X0211598Y0138897D02*
X0012896Y0138897D01*
X0012587Y0139206D02*
X0013222Y0138572D01*
X0013749Y0137846D01*
X0014156Y0137046D01*
X0014434Y0136193D01*
X0014574Y0135307D01*
X0014574Y0134858D01*
X0008874Y0134858D01*
X0008874Y0140558D01*
X0009323Y0140558D01*
X0010209Y0140418D01*
X0011062Y0140141D01*
X0011861Y0139733D01*
X0012587Y0139206D01*
X0014204Y0136899D02*
X0211598Y0136899D01*
X0212697Y0134900D02*
X0014574Y0134900D01*
X0014232Y0132902D02*
X0211598Y0132902D01*
X0211598Y0130903D02*
X0012980Y0130903D01*
X0012889Y0128905D02*
X0211598Y0128905D01*
X0207693Y0130921D02*
X0222654Y0130921D01*
X0222653Y0130903D02*
X0222654Y0130903D01*
X0222653Y0128905D02*
X0222654Y0128905D01*
X0222654Y0138795D02*
X0221472Y0138795D01*
X0213598Y0146669D01*
X0235098Y0152887D02*
X0173330Y0152887D01*
X0173877Y0153113D02*
X0175658Y0154894D01*
X0176622Y0157221D01*
X0176622Y0159740D01*
X0175658Y0162066D01*
X0173877Y0163847D01*
X0171551Y0164811D01*
X0169419Y0164811D01*
X0169448Y0164840D01*
X0169943Y0165521D01*
X0170325Y0166270D01*
X0170585Y0167071D01*
X0170717Y0167902D01*
X0170717Y0168323D01*
X0170717Y0168744D01*
X0170585Y0169575D01*
X0170325Y0170375D01*
X0169943Y0171125D01*
X0169448Y0171806D01*
X0168853Y0172401D01*
X0168172Y0172896D01*
X0167422Y0173278D01*
X0166622Y0173538D01*
X0165791Y0173669D01*
X0165370Y0173669D01*
X0164949Y0173669D01*
X0164118Y0173538D01*
X0163318Y0173278D01*
X0162568Y0172896D01*
X0161887Y0172401D01*
X0161292Y0171806D01*
X0160797Y0171125D01*
X0160415Y0170375D01*
X0160155Y0169575D01*
X0160024Y0168744D01*
X0160024Y0168323D01*
X0165370Y0168323D01*
X0165370Y0173669D01*
X0165370Y0168323D01*
X0165370Y0168323D01*
X0165370Y0168323D01*
X0170717Y0168323D01*
X0165370Y0168323D01*
X0165370Y0168323D01*
X0160024Y0168323D01*
X0160024Y0167902D01*
X0160155Y0167071D01*
X0160415Y0166270D01*
X0160797Y0165521D01*
X0161292Y0164840D01*
X0161887Y0164245D01*
X0162568Y0163750D01*
X0163318Y0163368D01*
X0164118Y0163108D01*
X0164949Y0162976D01*
X0165370Y0162976D01*
X0165370Y0168323D01*
X0165370Y0168323D01*
X0165370Y0162976D01*
X0165791Y0162976D01*
X0165843Y0162985D01*
X0164924Y0162066D01*
X0163961Y0159740D01*
X0163961Y0157221D01*
X0164924Y0154894D01*
X0166705Y0153113D01*
X0169032Y0152150D01*
X0171551Y0152150D01*
X0173877Y0153113D01*
X0175649Y0154885D02*
X0251000Y0154885D01*
X0251000Y0156884D02*
X0176482Y0156884D01*
X0176622Y0158882D02*
X0251000Y0158882D01*
X0251000Y0160881D02*
X0176149Y0160881D01*
X0174845Y0162879D02*
X0251000Y0162879D01*
X0251000Y0164878D02*
X0169476Y0164878D01*
X0170522Y0166876D02*
X0198011Y0166876D01*
X0197486Y0167094D02*
X0198872Y0166520D01*
X0200372Y0166520D01*
X0201759Y0167094D01*
X0202819Y0168155D01*
X0203394Y0169541D01*
X0203394Y0171042D01*
X0202819Y0172428D01*
X0201759Y0173489D01*
X0200372Y0174063D01*
X0198872Y0174063D01*
X0197486Y0173489D01*
X0196425Y0172428D01*
X0195850Y0171042D01*
X0195850Y0169541D01*
X0196425Y0168155D01*
X0197486Y0167094D01*
X0196126Y0168875D02*
X0170696Y0168875D01*
X0170071Y0170873D02*
X0195850Y0170873D01*
X0196869Y0172872D02*
X0168205Y0172872D01*
X0165370Y0172872D02*
X0165370Y0172872D01*
X0165370Y0170873D02*
X0165370Y0170873D01*
X0165370Y0168875D02*
X0165370Y0168875D01*
X0165370Y0166876D02*
X0165370Y0166876D01*
X0165370Y0164878D02*
X0165370Y0164878D01*
X0165737Y0162879D02*
X0147286Y0162879D01*
X0147189Y0162976D02*
X0148717Y0162976D01*
X0150682Y0163790D01*
X0152186Y0165294D01*
X0153000Y0167259D01*
X0153000Y0169386D01*
X0152186Y0171351D01*
X0150682Y0172855D01*
X0148717Y0173669D01*
X0146590Y0173669D01*
X0144625Y0172855D01*
X0143121Y0171351D01*
X0142307Y0169386D01*
X0142307Y0167259D01*
X0143121Y0165294D01*
X0143604Y0164811D01*
X0141473Y0164811D01*
X0139146Y0163847D01*
X0137365Y0162066D01*
X0136402Y0159740D01*
X0136402Y0157221D01*
X0137365Y0154894D01*
X0139146Y0153113D01*
X0141473Y0152150D01*
X0143992Y0152150D01*
X0146318Y0153113D01*
X0148099Y0154894D01*
X0149063Y0157221D01*
X0149063Y0159740D01*
X0148099Y0162066D01*
X0147189Y0162976D01*
X0148590Y0160881D02*
X0164433Y0160881D01*
X0163961Y0158882D02*
X0149063Y0158882D01*
X0148923Y0156884D02*
X0164100Y0156884D01*
X0164933Y0154885D02*
X0148090Y0154885D01*
X0145771Y0152887D02*
X0167252Y0152887D01*
X0161264Y0164878D02*
X0151770Y0164878D01*
X0152841Y0166876D02*
X0160218Y0166876D01*
X0160044Y0168875D02*
X0153000Y0168875D01*
X0152384Y0170873D02*
X0160669Y0170873D01*
X0162536Y0172872D02*
X0150642Y0172872D01*
X0144665Y0172872D02*
X0118992Y0172872D01*
X0118960Y0172896D02*
X0118210Y0173278D01*
X0117409Y0173538D01*
X0116578Y0173669D01*
X0116158Y0173669D01*
X0116158Y0168323D01*
X0121504Y0168323D01*
X0121504Y0168744D01*
X0121372Y0169575D01*
X0121112Y0170375D01*
X0120730Y0171125D01*
X0120236Y0171806D01*
X0119640Y0172401D01*
X0118960Y0172896D01*
X0120858Y0170873D02*
X0142923Y0170873D01*
X0142307Y0168875D02*
X0121483Y0168875D01*
X0121504Y0168323D02*
X0116158Y0168323D01*
X0116158Y0168323D01*
X0116157Y0168323D01*
X0116157Y0168323D01*
X0110811Y0168323D01*
X0110811Y0168744D01*
X0110943Y0169575D01*
X0111203Y0170375D01*
X0111585Y0171125D01*
X0112079Y0171806D01*
X0112674Y0172401D01*
X0113355Y0172896D01*
X0114105Y0173278D01*
X0114906Y0173538D01*
X0115737Y0173669D01*
X0116157Y0173669D01*
X0116157Y0168323D01*
X0110811Y0168323D01*
X0110811Y0167902D01*
X0110943Y0167071D01*
X0111203Y0166270D01*
X0111585Y0165521D01*
X0112079Y0164840D01*
X0112674Y0164245D01*
X0113355Y0163750D01*
X0114105Y0163368D01*
X0114906Y0163108D01*
X0115737Y0162976D01*
X0116157Y0162976D01*
X0116157Y0168323D01*
X0116158Y0168323D01*
X0116157Y0168323D02*
X0116157Y0167339D01*
X0116157Y0166876D02*
X0116158Y0166876D01*
X0116158Y0168323D02*
X0116158Y0162976D01*
X0116578Y0162976D01*
X0116630Y0162985D01*
X0115712Y0162066D01*
X0114748Y0159740D01*
X0114748Y0157221D01*
X0115712Y0154894D01*
X0117493Y0153113D01*
X0119819Y0152150D01*
X0122338Y0152150D01*
X0124665Y0153113D01*
X0126446Y0154894D01*
X0127409Y0157221D01*
X0127409Y0159740D01*
X0126446Y0162066D01*
X0124665Y0163847D01*
X0122338Y0164811D01*
X0120207Y0164811D01*
X0120236Y0164840D01*
X0120730Y0165521D01*
X0121112Y0166270D01*
X0121372Y0167071D01*
X0121504Y0167902D01*
X0121504Y0168323D01*
X0121309Y0166876D02*
X0142466Y0166876D01*
X0143537Y0164878D02*
X0120263Y0164878D01*
X0116158Y0164878D02*
X0116157Y0164878D01*
X0116525Y0162879D02*
X0098074Y0162879D01*
X0097977Y0162976D02*
X0099504Y0162976D01*
X0101469Y0163790D01*
X0102973Y0165294D01*
X0103787Y0167259D01*
X0103787Y0169386D01*
X0102973Y0171351D01*
X0101469Y0172855D01*
X0099504Y0173669D01*
X0097377Y0173669D01*
X0095412Y0172855D01*
X0093908Y0171351D01*
X0093094Y0169386D01*
X0093094Y0167259D01*
X0093908Y0165294D01*
X0094392Y0164811D01*
X0092260Y0164811D01*
X0089934Y0163847D01*
X0088153Y0162066D01*
X0087189Y0159740D01*
X0087189Y0157221D01*
X0088153Y0154894D01*
X0089934Y0153113D01*
X0092260Y0152150D01*
X0094779Y0152150D01*
X0097106Y0153113D01*
X0098887Y0154894D01*
X0099850Y0157221D01*
X0099850Y0159740D01*
X0098887Y0162066D01*
X0097977Y0162976D01*
X0099378Y0160881D02*
X0115221Y0160881D01*
X0114748Y0158882D02*
X0099850Y0158882D01*
X0099711Y0156884D02*
X0114888Y0156884D01*
X0115721Y0154885D02*
X0098878Y0154885D01*
X0096559Y0152887D02*
X0118040Y0152887D01*
X0124118Y0152887D02*
X0139693Y0152887D01*
X0137374Y0154885D02*
X0126437Y0154885D01*
X0127270Y0156884D02*
X0136541Y0156884D01*
X0136402Y0158882D02*
X0127409Y0158882D01*
X0126937Y0160881D02*
X0136874Y0160881D01*
X0138178Y0162879D02*
X0125633Y0162879D01*
X0116158Y0168875D02*
X0116157Y0168875D01*
X0116157Y0170873D02*
X0116158Y0170873D01*
X0116157Y0172872D02*
X0116158Y0172872D01*
X0113323Y0172872D02*
X0101429Y0172872D01*
X0103171Y0170873D02*
X0111457Y0170873D01*
X0110832Y0168875D02*
X0103787Y0168875D01*
X0103629Y0166876D02*
X0111006Y0166876D01*
X0112052Y0164878D02*
X0102557Y0164878D01*
X0109268Y0160449D02*
X0109268Y0140764D01*
X0099425Y0130921D01*
X0099425Y0132890D01*
X0083677Y0148638D01*
X0090481Y0152887D02*
X0074905Y0152887D01*
X0075452Y0153113D02*
X0077233Y0154894D01*
X0078197Y0157221D01*
X0078197Y0159740D01*
X0077233Y0162066D01*
X0075452Y0163847D01*
X0073125Y0164811D01*
X0070994Y0164811D01*
X0071023Y0164840D01*
X0071518Y0165521D01*
X0071900Y0166270D01*
X0072160Y0167071D01*
X0072291Y0167902D01*
X0072291Y0168323D01*
X0072291Y0168744D01*
X0072160Y0169575D01*
X0071900Y0170375D01*
X0071518Y0171125D01*
X0071023Y0171806D01*
X0070428Y0172401D01*
X0069747Y0172896D01*
X0068997Y0173278D01*
X0068197Y0173538D01*
X0067366Y0173669D01*
X0066945Y0173669D01*
X0066945Y0168323D01*
X0066945Y0168323D01*
X0072291Y0168323D01*
X0066945Y0168323D01*
X0066945Y0168323D01*
X0066945Y0173669D01*
X0066524Y0173669D01*
X0065693Y0173538D01*
X0064893Y0173278D01*
X0064143Y0172896D01*
X0063462Y0172401D01*
X0062867Y0171806D01*
X0062372Y0171125D01*
X0061990Y0170375D01*
X0061730Y0169575D01*
X0061598Y0168744D01*
X0061598Y0168323D01*
X0066945Y0168323D01*
X0066945Y0168323D01*
X0066945Y0162976D01*
X0067366Y0162976D01*
X0067417Y0162985D01*
X0066499Y0162066D01*
X0065535Y0159740D01*
X0065535Y0157221D01*
X0066499Y0154894D01*
X0068280Y0153113D01*
X0070607Y0152150D01*
X0073125Y0152150D01*
X0075452Y0153113D01*
X0077224Y0154885D02*
X0088162Y0154885D01*
X0087329Y0156884D02*
X0078057Y0156884D01*
X0078197Y0158882D02*
X0087189Y0158882D01*
X0087662Y0160881D02*
X0077724Y0160881D01*
X0076420Y0162879D02*
X0088966Y0162879D01*
X0094325Y0164878D02*
X0071051Y0164878D01*
X0072097Y0166876D02*
X0093253Y0166876D01*
X0093094Y0168875D02*
X0072271Y0168875D01*
X0071646Y0170873D02*
X0093710Y0170873D01*
X0095453Y0172872D02*
X0069779Y0172872D01*
X0066945Y0172872D02*
X0066945Y0172872D01*
X0066945Y0170873D02*
X0066945Y0170873D01*
X0066945Y0168875D02*
X0066945Y0168875D01*
X0066945Y0168323D02*
X0061598Y0168323D01*
X0061598Y0167902D01*
X0061730Y0167071D01*
X0061990Y0166270D01*
X0062372Y0165521D01*
X0062867Y0164840D01*
X0063462Y0164245D01*
X0064143Y0163750D01*
X0064893Y0163368D01*
X0065693Y0163108D01*
X0066524Y0162976D01*
X0066945Y0162976D01*
X0066945Y0168323D01*
X0066945Y0168323D01*
X0066945Y0166876D02*
X0066945Y0166876D01*
X0066945Y0164878D02*
X0066945Y0164878D01*
X0067312Y0162879D02*
X0048861Y0162879D01*
X0048764Y0162976D02*
X0050292Y0162976D01*
X0052257Y0163790D01*
X0053761Y0165294D01*
X0054575Y0167259D01*
X0054575Y0169386D01*
X0053761Y0171351D01*
X0052257Y0172855D01*
X0050292Y0173669D01*
X0048165Y0173669D01*
X0046200Y0172855D01*
X0044696Y0171351D01*
X0043882Y0169386D01*
X0043882Y0167259D01*
X0044696Y0165294D01*
X0045179Y0164811D01*
X0043048Y0164811D01*
X0040721Y0163847D01*
X0038940Y0162066D01*
X0037976Y0159740D01*
X0037976Y0157221D01*
X0038940Y0154894D01*
X0040721Y0153113D01*
X0043048Y0152150D01*
X0045566Y0152150D01*
X0047893Y0153113D01*
X0049674Y0154894D01*
X0050638Y0157221D01*
X0050638Y0159740D01*
X0049674Y0162066D01*
X0048764Y0162976D01*
X0050165Y0160881D02*
X0066008Y0160881D01*
X0065535Y0158882D02*
X0050638Y0158882D01*
X0050498Y0156884D02*
X0065675Y0156884D01*
X0066508Y0154885D02*
X0049665Y0154885D01*
X0047346Y0152887D02*
X0068827Y0152887D01*
X0062839Y0164878D02*
X0053344Y0164878D01*
X0054416Y0166876D02*
X0061793Y0166876D01*
X0061619Y0168875D02*
X0054575Y0168875D01*
X0053959Y0170873D02*
X0062244Y0170873D01*
X0064110Y0172872D02*
X0052217Y0172872D01*
X0046240Y0172872D02*
X0004937Y0172872D01*
X0004937Y0170873D02*
X0044498Y0170873D01*
X0043882Y0168875D02*
X0004937Y0168875D01*
X0004937Y0166876D02*
X0044040Y0166876D01*
X0045112Y0164878D02*
X0004937Y0164878D01*
X0004937Y0162879D02*
X0039753Y0162879D01*
X0038449Y0160881D02*
X0004937Y0160881D01*
X0004937Y0158882D02*
X0037976Y0158882D01*
X0038116Y0156884D02*
X0004937Y0156884D01*
X0004937Y0154885D02*
X0038949Y0154885D01*
X0041268Y0152887D02*
X0004937Y0152887D01*
X0008874Y0138897D02*
X0008874Y0138897D01*
X0008874Y0136899D02*
X0008874Y0136899D01*
X0008874Y0134900D02*
X0008874Y0134900D01*
X0008874Y0134858D02*
X0008874Y0134858D01*
X0008874Y0124858D02*
X0160606Y0124858D01*
X0162417Y0123047D01*
X0162801Y0126906D02*
X0172876Y0126906D01*
X0175580Y0126906D02*
X0187246Y0126906D01*
X0189950Y0126906D02*
X0251000Y0126906D01*
X0251000Y0098927D02*
X0133256Y0098927D01*
X0133234Y0098949D02*
X0131733Y0099571D01*
X0130109Y0099571D01*
X0128609Y0098949D01*
X0128147Y0098488D01*
X0106702Y0098488D01*
X0105600Y0098031D01*
X0094541Y0086972D01*
X0093889Y0086972D01*
X0092388Y0086351D01*
X0091240Y0085202D01*
X0090618Y0083702D01*
X0090618Y0082078D01*
X0091240Y0080577D01*
X0092388Y0079429D01*
X0093889Y0078807D01*
X0095513Y0078807D01*
X0097013Y0079429D01*
X0098162Y0080577D01*
X0098783Y0082078D01*
X0098783Y0082730D01*
X0108542Y0092488D01*
X0128147Y0092488D01*
X0128609Y0092027D01*
X0130109Y0091406D01*
X0131733Y0091406D01*
X0133234Y0092027D01*
X0134382Y0093176D01*
X0135004Y0094676D01*
X0135004Y0096300D01*
X0134382Y0097801D01*
X0133234Y0098949D01*
X0134744Y0096929D02*
X0251000Y0096929D01*
X0251000Y0094930D02*
X0135004Y0094930D01*
X0134138Y0092932D02*
X0202421Y0092932D01*
X0203215Y0093726D02*
X0200991Y0091502D01*
X0199787Y0088596D01*
X0199787Y0085451D01*
X0200991Y0082546D01*
X0203215Y0080322D01*
X0206120Y0079118D01*
X0209265Y0079118D01*
X0212171Y0080322D01*
X0214395Y0082546D01*
X0215598Y0085451D01*
X0215598Y0088596D01*
X0214395Y0091502D01*
X0212171Y0093726D01*
X0209265Y0094929D01*
X0206120Y0094929D01*
X0203215Y0093726D01*
X0200755Y0090933D02*
X0106987Y0090933D01*
X0104988Y0088934D02*
X0163869Y0088934D01*
X0162470Y0086936D02*
X0102990Y0086936D01*
X0100991Y0084937D02*
X0162272Y0084937D01*
X0163287Y0082939D02*
X0098993Y0082939D01*
X0098312Y0080940D02*
X0167524Y0080940D01*
X0169523Y0078942D02*
X0095838Y0078942D01*
X0093563Y0078942D02*
X0050981Y0078942D01*
X0048983Y0076943D02*
X0171521Y0076943D01*
X0173520Y0074945D02*
X0137553Y0074945D01*
X0132163Y0074945D02*
X0046984Y0074945D01*
X0044986Y0072946D02*
X0130887Y0072946D01*
X0130820Y0070948D02*
X0042987Y0070948D01*
X0040989Y0068949D02*
X0132001Y0068949D01*
X0137715Y0068949D02*
X0154484Y0068949D01*
X0154466Y0066951D02*
X0080587Y0066951D01*
X0074957Y0066951D02*
X0038990Y0066951D01*
X0052980Y0080940D02*
X0091089Y0080940D01*
X0090618Y0082939D02*
X0054978Y0082939D01*
X0056977Y0084937D02*
X0091130Y0084937D01*
X0092710Y0086936D02*
X0093801Y0086936D01*
X0093665Y0088934D02*
X0096503Y0088934D01*
X0098501Y0090933D02*
X0093442Y0090933D01*
X0092008Y0092932D02*
X0100500Y0092932D01*
X0102498Y0094930D02*
X0087771Y0094930D01*
X0085772Y0096929D02*
X0104497Y0096929D01*
X0107299Y0095488D02*
X0094701Y0082890D01*
X0086456Y0086936D02*
X0058975Y0086936D01*
X0054809Y0096929D02*
X0035321Y0096929D01*
X0034580Y0090933D02*
X0013010Y0090933D01*
X0012859Y0088934D02*
X0036287Y0088934D01*
X0036558Y0086936D02*
X0014183Y0086936D01*
X0014574Y0084937D02*
X0038065Y0084937D01*
X0054004Y0098927D02*
X0012866Y0098927D01*
X0013002Y0100926D02*
X0054289Y0100926D01*
X0083774Y0098927D02*
X0128586Y0098927D01*
X0130921Y0095488D02*
X0107299Y0095488D01*
X0151663Y0052961D02*
X0189598Y0052961D01*
X0191596Y0050963D02*
X0152720Y0050963D01*
X0152540Y0048964D02*
X0193595Y0048964D01*
X0195593Y0046966D02*
X0151165Y0046966D01*
X0146111Y0046966D02*
X0133448Y0046966D01*
X0176594Y0078942D02*
X0251000Y0078942D01*
X0251000Y0080940D02*
X0212790Y0080940D01*
X0214558Y0082939D02*
X0251000Y0082939D01*
X0251000Y0084937D02*
X0215386Y0084937D01*
X0215598Y0086936D02*
X0251000Y0086936D01*
X0251000Y0088934D02*
X0215458Y0088934D01*
X0214630Y0090933D02*
X0251000Y0090933D01*
X0251000Y0092932D02*
X0212965Y0092932D01*
X0199928Y0088934D02*
X0168839Y0088934D01*
X0170239Y0086936D02*
X0199787Y0086936D01*
X0200000Y0084937D02*
X0170598Y0084937D01*
X0172597Y0082939D02*
X0200828Y0082939D01*
X0202596Y0080940D02*
X0174595Y0080940D01*
X0178592Y0076943D02*
X0251000Y0076943D01*
X0251000Y0074945D02*
X0180591Y0074945D01*
X0182589Y0072946D02*
X0251000Y0072946D01*
X0251000Y0070948D02*
X0184588Y0070948D01*
X0186586Y0068949D02*
X0251000Y0068949D01*
X0251000Y0066951D02*
X0188585Y0066951D01*
X0190583Y0064952D02*
X0251000Y0064952D01*
X0251000Y0062954D02*
X0192582Y0062954D01*
X0194580Y0060955D02*
X0251000Y0060955D01*
X0251000Y0058957D02*
X0196579Y0058957D01*
X0198577Y0056958D02*
X0244098Y0056958D01*
X0242980Y0054960D02*
X0200576Y0054960D01*
X0202574Y0052961D02*
X0242339Y0052961D01*
X0240341Y0050963D02*
X0204573Y0050963D01*
X0206571Y0048964D02*
X0214450Y0048964D01*
X0220621Y0048964D02*
X0238342Y0048964D01*
X0236344Y0046966D02*
X0221618Y0046966D01*
X0221413Y0044967D02*
X0234345Y0044967D01*
X0232347Y0042969D02*
X0220002Y0042969D01*
X0215068Y0042969D02*
X0206661Y0042969D01*
X0208660Y0040970D02*
X0230348Y0040970D01*
X0228350Y0038972D02*
X0210658Y0038972D01*
X0231424Y0034975D02*
X0251000Y0034975D01*
X0251000Y0036973D02*
X0233422Y0036973D01*
X0235421Y0038972D02*
X0251000Y0038972D01*
X0251000Y0040970D02*
X0237419Y0040970D01*
X0239418Y0042969D02*
X0251000Y0042969D01*
X0251000Y0044967D02*
X0241416Y0044967D01*
X0243415Y0046966D02*
X0251000Y0046966D01*
X0251000Y0048964D02*
X0245413Y0048964D01*
X0249650Y0050963D02*
X0251000Y0050963D01*
X0250990Y0052961D02*
X0251000Y0052961D01*
X0251000Y0056958D02*
X0250028Y0056958D01*
X0251000Y0166876D02*
X0229186Y0166876D01*
X0229711Y0167094D02*
X0228325Y0166520D01*
X0226825Y0166520D01*
X0225438Y0167094D01*
X0224377Y0168155D01*
X0223803Y0169541D01*
X0223803Y0171042D01*
X0224377Y0172428D01*
X0225438Y0173489D01*
X0226825Y0174063D01*
X0228325Y0174063D01*
X0229711Y0173489D01*
X0230772Y0172428D01*
X0231346Y0171042D01*
X0231346Y0169541D01*
X0230772Y0168155D01*
X0229711Y0167094D01*
X0231071Y0168875D02*
X0251000Y0168875D01*
X0251000Y0170873D02*
X0231346Y0170873D01*
X0230328Y0172872D02*
X0251000Y0172872D01*
X0225963Y0166876D02*
X0201234Y0166876D01*
X0203118Y0168875D02*
X0224079Y0168875D01*
X0223803Y0170873D02*
X0203394Y0170873D01*
X0202375Y0172872D02*
X0224822Y0172872D01*
D16*
X0213598Y0146669D03*
X0207693Y0130921D03*
X0188598Y0123047D03*
X0174228Y0123047D03*
X0160449Y0130921D03*
X0148638Y0130921D03*
X0126984Y0132890D03*
X0126984Y0144701D03*
X0099425Y0130921D03*
X0071866Y0138795D03*
X0058087Y0138795D03*
X0044307Y0138795D03*
X0058087Y0099425D03*
X0067929Y0093520D03*
X0089583Y0089583D03*
X0094701Y0082890D03*
X0077772Y0063992D03*
X0083677Y0056118D03*
X0091551Y0042339D03*
X0067929Y0040370D03*
X0056118Y0040370D03*
X0046276Y0040370D03*
X0024622Y0044307D03*
X0016748Y0034465D03*
X0028559Y0060055D03*
X0063992Y0058087D03*
X0040370Y0088402D03*
X0130921Y0095488D03*
X0154150Y0092339D03*
X0154150Y0084071D03*
X0166354Y0085646D03*
X0166354Y0098638D03*
X0134858Y0071866D03*
X0130921Y0056118D03*
X0130921Y0050213D03*
X0148638Y0050213D03*
X0148638Y0056118D03*
X0158480Y0067929D03*
X0168323Y0058087D03*
X0164386Y0026591D03*
X0193913Y0026591D03*
X0217535Y0026591D03*
X0217535Y0046276D03*
X0247063Y0054150D03*
X0247063Y0081709D03*
X0247063Y0103362D03*
X0188008Y0158480D03*
X0107299Y0014780D03*
X0091551Y0014780D03*
D17*
X0067929Y0040370D02*
X0083677Y0056118D01*
X0077772Y0062024D02*
X0056118Y0040370D01*
X0046276Y0040370D02*
X0063992Y0058087D01*
X0062024Y0063992D02*
X0077772Y0063992D01*
X0077772Y0062024D01*
X0062024Y0063992D02*
X0052890Y0054858D01*
X0008874Y0054858D01*
X0028559Y0060055D02*
X0062024Y0093520D01*
X0067929Y0093520D01*
X0058087Y0099425D02*
X0079740Y0099425D01*
X0089583Y0089583D01*
X0134858Y0071866D02*
X0174228Y0071866D01*
X0209661Y0036433D01*
X0229346Y0036433D01*
X0247063Y0054150D01*
X0217535Y0046276D02*
X0205724Y0046276D01*
X0170291Y0081709D01*
X0166354Y0085646D01*
X0158480Y0067929D02*
X0168323Y0058087D01*
X0148638Y0056118D02*
X0130921Y0056118D01*
X0130921Y0050213D02*
X0148638Y0050213D01*
X0040370Y0088402D02*
X0034701Y0094465D01*
X0008874Y0094858D01*
M02*
