%
M48
M72
T01C0.02165
T02C0.03150
T03C0.03543
T04C0.04000
T05C0.04724
T06C0.11811
%
T01
X16748Y34465
X24622Y44307
X46276Y40370
X56118Y40370
X67929Y40370
X83677Y56118
X77772Y63992
X63992Y58087
X91551Y42339
X91551Y14780
X107299Y14780
X130921Y50213
X130921Y56118
X148638Y56118
X148638Y50213
X168323Y58087
X158480Y67929
X154150Y84071
X154150Y92339
X166354Y98638
X166354Y85646
X134858Y71866
X130921Y95488
X94701Y82890
X89583Y89583
X67929Y93520
X58087Y99425
X40370Y88402
X28559Y60055
X99425Y130921
X126984Y132890
X126984Y144701
X148638Y130921
X160449Y130921
X174228Y123047
X188598Y123047
X207693Y130921
X213598Y146669
X188008Y158480
X247063Y103362
X247063Y81709
X247063Y54150
X217535Y46276
X217535Y26591
X193913Y26591
X164386Y26591
X71866Y138795
X58087Y138795
X44307Y138795
T02
X49228Y168323
X66945Y168323
X98441Y168323
X116157Y168323
X147654Y168323
X165370Y168323
T03
X199622Y170291
X227575Y170291
T04
X24622Y24622
X34622Y24622
X44622Y24622
X54622Y24622
X64622Y24622
X74622Y24622
X8874Y44858
X8874Y54858
X8874Y64858
X8874Y74858
X8874Y84858
X8874Y94858
X8874Y104858
X8874Y114858
X8874Y124858
X8874Y134858
T05
X44307Y158480
X71866Y158480
X93520Y158480
X121079Y158480
X142732Y158480
X170291Y158480
T06
X207693Y87024
M30
