G75*
%MOIN*%
%OFA0B0*%
%FSLAX25Y25*%
%IPPOS*%
%LPD*%
%AMOC8*
5,1,8,0,0,1.08239X$1,22.5*
%
%ADD10C,0.00500*%
%ADD11C,0.00400*%
%ADD12C,0.00300*%
%ADD13C,0.00800*%
%ADD14R,0.00886X0.00984*%
%ADD15C,0.03200*%
%ADD16C,0.01000*%
D10*
X0174228Y0052181D02*
X0237220Y0052181D01*
X0237220Y0054150D01*
X0237220Y0060055D02*
X0237220Y0107299D01*
X0237220Y0113205D02*
X0237220Y0115173D01*
X0174228Y0115173D01*
X0242142Y0114355D02*
X0243043Y0115256D01*
X0244844Y0115256D01*
X0244844Y0116401D02*
X0244844Y0117302D01*
X0244844Y0116852D02*
X0242142Y0116852D01*
X0242142Y0116401D01*
X0243493Y0115256D02*
X0243493Y0113455D01*
X0243043Y0113455D02*
X0242142Y0114355D01*
X0243043Y0113455D02*
X0244844Y0113455D01*
X0244394Y0118366D02*
X0243493Y0118366D01*
X0243043Y0118816D01*
X0243043Y0119717D01*
X0243493Y0120167D01*
X0243944Y0120167D01*
X0243944Y0118366D01*
X0244394Y0118366D02*
X0244844Y0118816D01*
X0244844Y0119717D01*
X0244394Y0121312D02*
X0244844Y0121762D01*
X0244844Y0123114D01*
X0244394Y0124709D02*
X0244844Y0125159D01*
X0244394Y0124709D02*
X0242593Y0124709D01*
X0243043Y0124259D02*
X0243043Y0125159D01*
X0243043Y0126223D02*
X0244844Y0126223D01*
X0243944Y0126223D02*
X0243043Y0127124D01*
X0243043Y0127574D01*
X0243043Y0128678D02*
X0244394Y0128678D01*
X0244844Y0129129D01*
X0244844Y0130480D01*
X0245295Y0130480D02*
X0243043Y0130480D01*
X0243493Y0131625D02*
X0244394Y0131625D01*
X0244844Y0132075D01*
X0244844Y0132976D01*
X0244394Y0133426D01*
X0243493Y0133426D01*
X0243043Y0132976D01*
X0243043Y0132075D01*
X0243493Y0131625D01*
X0245295Y0130480D02*
X0245745Y0130030D01*
X0245745Y0129579D01*
X0244844Y0134571D02*
X0243043Y0134571D01*
X0243043Y0135923D01*
X0243493Y0136373D01*
X0244844Y0136373D01*
X0242142Y0140464D02*
X0242142Y0142266D01*
X0242142Y0141365D02*
X0244844Y0141365D01*
X0244394Y0143411D02*
X0243493Y0143411D01*
X0243043Y0143861D01*
X0243043Y0144762D01*
X0243493Y0145213D01*
X0243944Y0145213D01*
X0243944Y0143411D01*
X0244394Y0143411D02*
X0244844Y0143861D01*
X0244844Y0144762D01*
X0244394Y0146358D02*
X0244844Y0146808D01*
X0244844Y0148159D01*
X0244844Y0149304D02*
X0242142Y0149304D01*
X0243043Y0149754D02*
X0243043Y0150655D01*
X0243493Y0151106D01*
X0244844Y0151106D01*
X0244844Y0152251D02*
X0243043Y0152251D01*
X0243043Y0153602D01*
X0243493Y0154052D01*
X0244844Y0154052D01*
X0244394Y0155197D02*
X0244844Y0155647D01*
X0244844Y0156548D01*
X0244394Y0156999D01*
X0243493Y0156999D01*
X0243043Y0156548D01*
X0243043Y0155647D01*
X0243493Y0155197D01*
X0244394Y0155197D01*
X0244844Y0158144D02*
X0244844Y0159044D01*
X0244844Y0158594D02*
X0242142Y0158594D01*
X0242142Y0158144D01*
X0243493Y0160108D02*
X0244394Y0160108D01*
X0244844Y0160558D01*
X0244844Y0161459D01*
X0244394Y0161909D01*
X0243493Y0161909D01*
X0243043Y0161459D01*
X0243043Y0160558D01*
X0243493Y0160108D01*
X0243493Y0163054D02*
X0244394Y0163054D01*
X0244844Y0163505D01*
X0244844Y0164856D01*
X0245295Y0164856D02*
X0243043Y0164856D01*
X0243043Y0163505D01*
X0243493Y0163054D01*
X0245745Y0163955D02*
X0245745Y0164406D01*
X0245295Y0164856D01*
X0244844Y0166001D02*
X0244844Y0166902D01*
X0244844Y0166451D02*
X0243043Y0166451D01*
X0243043Y0166001D01*
X0242142Y0166451D02*
X0241692Y0166451D01*
X0243493Y0167965D02*
X0243043Y0168416D01*
X0243043Y0169316D01*
X0243493Y0169767D01*
X0243944Y0169767D01*
X0243944Y0167965D01*
X0244394Y0167965D02*
X0243493Y0167965D01*
X0244394Y0167965D02*
X0244844Y0168416D01*
X0244844Y0169316D01*
X0244844Y0170912D02*
X0244844Y0172263D01*
X0244394Y0172713D01*
X0243944Y0172263D01*
X0243944Y0171362D01*
X0243493Y0170912D01*
X0243043Y0171362D01*
X0243043Y0172713D01*
X0243043Y0149754D02*
X0243493Y0149304D01*
X0243043Y0148159D02*
X0243043Y0146808D01*
X0243493Y0146358D01*
X0244394Y0146358D01*
X0243043Y0123114D02*
X0243043Y0121762D01*
X0243493Y0121312D01*
X0244394Y0121312D01*
D11*
X0246830Y0122244D02*
X0248498Y0122244D01*
X0248831Y0122578D01*
X0248831Y0123245D01*
X0248498Y0123579D01*
X0246830Y0123579D01*
X0247497Y0124454D02*
X0247497Y0125121D01*
X0247163Y0124788D02*
X0248498Y0124788D01*
X0248831Y0125121D01*
X0248831Y0125927D02*
X0248831Y0126595D01*
X0248831Y0126261D02*
X0247497Y0126261D01*
X0247497Y0125927D01*
X0246830Y0126261D02*
X0246496Y0126261D01*
X0246830Y0127401D02*
X0246830Y0127734D01*
X0248831Y0127734D01*
X0248831Y0127401D02*
X0248831Y0128068D01*
X0248831Y0128874D02*
X0248831Y0129541D01*
X0248831Y0129207D02*
X0247497Y0129207D01*
X0247497Y0128874D01*
X0246830Y0129207D02*
X0246496Y0129207D01*
X0247497Y0130347D02*
X0247497Y0131014D01*
X0247163Y0130681D02*
X0248498Y0130681D01*
X0248831Y0131014D01*
X0248498Y0131820D02*
X0248831Y0132154D01*
X0248831Y0133155D01*
X0249165Y0133155D02*
X0249499Y0132821D01*
X0249499Y0132488D01*
X0249165Y0133155D02*
X0247497Y0133155D01*
X0247497Y0131820D02*
X0248498Y0131820D01*
X0251434Y0130611D02*
X0251434Y0129944D01*
X0251768Y0129611D01*
X0252435Y0129611D01*
X0252769Y0129944D01*
X0252769Y0130611D01*
X0252435Y0130945D01*
X0251768Y0130945D01*
X0251434Y0130611D01*
X0251768Y0128735D02*
X0252769Y0128735D01*
X0252769Y0127734D01*
X0252435Y0127401D01*
X0252101Y0127734D01*
X0252101Y0128735D01*
X0251768Y0128735D02*
X0251434Y0128401D01*
X0251434Y0127734D01*
X0251434Y0126261D02*
X0252769Y0126261D01*
X0252769Y0125927D02*
X0252769Y0126595D01*
X0251434Y0126261D02*
X0251434Y0125927D01*
X0250767Y0126261D02*
X0250433Y0126261D01*
X0250767Y0123717D02*
X0252769Y0123717D01*
X0252769Y0125052D01*
X0252769Y0120632D02*
X0251434Y0119298D01*
X0251768Y0118422D02*
X0252101Y0118422D01*
X0252101Y0117088D01*
X0251768Y0117088D02*
X0251434Y0117421D01*
X0251434Y0118089D01*
X0251768Y0118422D01*
X0252769Y0118089D02*
X0252769Y0117421D01*
X0252435Y0117088D01*
X0251768Y0117088D01*
X0252769Y0116282D02*
X0252769Y0115615D01*
X0252769Y0115948D02*
X0250767Y0115948D01*
X0250767Y0115615D01*
X0251434Y0114739D02*
X0252769Y0114739D01*
X0251768Y0114739D02*
X0251768Y0113405D01*
X0251434Y0113405D02*
X0250767Y0114072D01*
X0251434Y0114739D01*
X0251434Y0113405D02*
X0252769Y0113405D01*
X0248831Y0113738D02*
X0248498Y0113405D01*
X0247163Y0113405D01*
X0246830Y0113738D01*
X0246830Y0114406D01*
X0247163Y0114739D01*
X0247831Y0114739D02*
X0247831Y0114072D01*
X0247831Y0114739D02*
X0248498Y0114739D01*
X0248831Y0114406D01*
X0248831Y0113738D01*
X0248831Y0115615D02*
X0246830Y0115615D01*
X0246830Y0116615D01*
X0247163Y0116949D01*
X0247831Y0116949D01*
X0248164Y0116615D01*
X0248164Y0115615D01*
X0248498Y0117824D02*
X0248831Y0118158D01*
X0248831Y0118825D01*
X0248498Y0119159D01*
X0248164Y0119159D01*
X0247831Y0118825D01*
X0247831Y0118158D01*
X0247497Y0117824D01*
X0247163Y0117824D01*
X0246830Y0118158D01*
X0246830Y0118825D01*
X0247163Y0119159D01*
X0251434Y0120632D02*
X0252769Y0119298D01*
X0247497Y0136240D02*
X0248831Y0136907D01*
X0247497Y0137575D01*
X0247497Y0138450D02*
X0246830Y0139117D01*
X0248831Y0139117D01*
X0248831Y0138450D02*
X0248831Y0139784D01*
X0248831Y0140660D02*
X0248831Y0140994D01*
X0248498Y0140994D01*
X0248498Y0140660D01*
X0248831Y0140660D01*
X0248498Y0141765D02*
X0247163Y0143099D01*
X0248498Y0143099D01*
X0248831Y0142766D01*
X0248831Y0142098D01*
X0248498Y0141765D01*
X0247163Y0141765D01*
X0246830Y0142098D01*
X0246830Y0142766D01*
X0247163Y0143099D01*
X0230724Y0037220D02*
X0230724Y0035646D01*
X0227969Y0035646D02*
X0227969Y0037220D01*
X0207102Y0037220D02*
X0207102Y0035646D01*
X0204346Y0035646D02*
X0204346Y0037220D01*
X0183480Y0037220D02*
X0183480Y0035646D01*
X0180724Y0035646D02*
X0180724Y0037220D01*
D12*
X0222240Y0117292D02*
X0223474Y0117292D01*
X0224091Y0117909D01*
X0224091Y0119143D01*
X0222857Y0119143D01*
X0221622Y0117909D02*
X0221622Y0120378D01*
X0222240Y0120995D01*
X0223474Y0120995D01*
X0224091Y0120378D01*
X0225306Y0120995D02*
X0227157Y0120995D01*
X0227774Y0120378D01*
X0227774Y0119143D01*
X0227157Y0118526D01*
X0225306Y0118526D01*
X0225306Y0117292D02*
X0225306Y0120995D01*
X0228989Y0120378D02*
X0228989Y0119761D01*
X0229606Y0119143D01*
X0230840Y0119143D01*
X0231458Y0118526D01*
X0231458Y0117909D01*
X0230840Y0117292D01*
X0229606Y0117292D01*
X0228989Y0117909D01*
X0228989Y0120378D02*
X0229606Y0120995D01*
X0230840Y0120995D01*
X0231458Y0120378D01*
X0222240Y0117292D02*
X0221622Y0117909D01*
D13*
X0027122Y0019622D02*
X0022122Y0019622D01*
X0019622Y0022122D01*
X0019622Y0027122D01*
X0022122Y0029622D01*
X0027122Y0029622D01*
X0029622Y0027122D01*
X0032122Y0029622D01*
X0037122Y0029622D01*
X0039622Y0027122D01*
X0042122Y0029622D01*
X0047122Y0029622D01*
X0049622Y0027122D01*
X0052122Y0029622D01*
X0057122Y0029622D01*
X0059622Y0027122D01*
X0062122Y0029622D01*
X0067122Y0029622D01*
X0069622Y0027122D01*
X0072122Y0029622D01*
X0077122Y0029622D01*
X0079622Y0027122D01*
X0079622Y0022122D01*
X0077122Y0019622D01*
X0072122Y0019622D01*
X0069622Y0022122D01*
X0067122Y0019622D01*
X0062122Y0019622D01*
X0059622Y0022122D01*
X0057122Y0019622D01*
X0052122Y0019622D01*
X0049622Y0022122D01*
X0047122Y0019622D01*
X0042122Y0019622D01*
X0039622Y0022122D01*
X0037122Y0019622D01*
X0032122Y0019622D01*
X0029622Y0022122D01*
X0027122Y0019622D01*
X0011374Y0039858D02*
X0006374Y0039858D01*
X0003874Y0042358D01*
X0003874Y0047358D01*
X0006374Y0049858D01*
X0003874Y0052358D01*
X0003874Y0057358D01*
X0006374Y0059858D01*
X0003874Y0062358D01*
X0003874Y0067358D01*
X0006374Y0069858D01*
X0003874Y0072358D01*
X0003874Y0077358D01*
X0006374Y0079858D01*
X0003874Y0082358D01*
X0003874Y0087358D01*
X0006374Y0089858D01*
X0003874Y0092358D01*
X0003874Y0097358D01*
X0006374Y0099858D01*
X0003874Y0102358D01*
X0003874Y0107358D01*
X0006374Y0109858D01*
X0003874Y0112358D01*
X0003874Y0117358D01*
X0006374Y0119858D01*
X0003874Y0122358D01*
X0003874Y0127358D01*
X0006374Y0129858D01*
X0003874Y0132358D01*
X0003874Y0137358D01*
X0006374Y0139858D01*
X0011374Y0139858D01*
X0013874Y0137358D01*
X0013874Y0132358D01*
X0011374Y0129858D01*
X0013874Y0127358D01*
X0013874Y0122358D01*
X0011374Y0119858D01*
X0013874Y0117358D01*
X0013874Y0112358D01*
X0011374Y0109858D01*
X0013874Y0107358D01*
X0013874Y0102358D01*
X0011374Y0099858D01*
X0013874Y0097358D01*
X0013874Y0092358D01*
X0011374Y0089858D01*
X0013874Y0087358D01*
X0013874Y0082358D01*
X0011374Y0079858D01*
X0013874Y0077358D01*
X0013874Y0072358D01*
X0011374Y0069858D01*
X0013874Y0067358D01*
X0013874Y0062358D01*
X0011374Y0059858D01*
X0013874Y0057358D01*
X0013874Y0052358D01*
X0011374Y0049858D01*
X0013874Y0047358D01*
X0013874Y0042358D01*
X0011374Y0039858D01*
X0085626Y0069878D02*
X0085626Y0097476D01*
X0111827Y0097476D01*
X0113224Y0096079D01*
X0113224Y0069878D01*
X0085626Y0069878D01*
X0113325Y0098077D02*
X0113327Y0098126D01*
X0113333Y0098174D01*
X0113343Y0098222D01*
X0113357Y0098269D01*
X0113374Y0098315D01*
X0113395Y0098359D01*
X0113420Y0098401D01*
X0113448Y0098441D01*
X0113480Y0098479D01*
X0113514Y0098514D01*
X0113551Y0098546D01*
X0113590Y0098575D01*
X0113632Y0098601D01*
X0113676Y0098623D01*
X0113721Y0098641D01*
X0113768Y0098656D01*
X0113815Y0098667D01*
X0113864Y0098674D01*
X0113913Y0098677D01*
X0113962Y0098676D01*
X0114010Y0098671D01*
X0114059Y0098662D01*
X0114106Y0098649D01*
X0114152Y0098632D01*
X0114196Y0098612D01*
X0114239Y0098588D01*
X0114280Y0098561D01*
X0114318Y0098530D01*
X0114354Y0098497D01*
X0114386Y0098461D01*
X0114416Y0098422D01*
X0114443Y0098381D01*
X0114466Y0098337D01*
X0114485Y0098292D01*
X0114501Y0098246D01*
X0114513Y0098199D01*
X0114521Y0098150D01*
X0114525Y0098101D01*
X0114525Y0098053D01*
X0114521Y0098004D01*
X0114513Y0097955D01*
X0114501Y0097908D01*
X0114485Y0097862D01*
X0114466Y0097817D01*
X0114443Y0097773D01*
X0114416Y0097732D01*
X0114386Y0097693D01*
X0114354Y0097657D01*
X0114318Y0097624D01*
X0114280Y0097593D01*
X0114239Y0097566D01*
X0114196Y0097542D01*
X0114152Y0097522D01*
X0114106Y0097505D01*
X0114059Y0097492D01*
X0114010Y0097483D01*
X0113962Y0097478D01*
X0113913Y0097477D01*
X0113864Y0097480D01*
X0113815Y0097487D01*
X0113768Y0097498D01*
X0113721Y0097513D01*
X0113676Y0097531D01*
X0113632Y0097553D01*
X0113590Y0097579D01*
X0113551Y0097608D01*
X0113514Y0097640D01*
X0113480Y0097675D01*
X0113448Y0097713D01*
X0113420Y0097753D01*
X0113395Y0097795D01*
X0113374Y0097839D01*
X0113357Y0097885D01*
X0113343Y0097932D01*
X0113333Y0097980D01*
X0113327Y0098028D01*
X0113325Y0098077D01*
X0086039Y0112417D02*
X0081315Y0112417D01*
X0073441Y0117929D02*
X0073441Y0120291D01*
X0081315Y0125803D02*
X0086039Y0125803D01*
X0093913Y0120291D02*
X0093913Y0117929D01*
X0099425Y0159949D02*
X0115173Y0159949D01*
X0122169Y0164386D02*
X0122169Y0176697D01*
X0092429Y0176697D01*
X0092429Y0164386D01*
X0072957Y0164386D02*
X0072957Y0176697D01*
X0043217Y0176697D01*
X0043217Y0164386D01*
X0050213Y0159949D02*
X0065961Y0159949D01*
X0141642Y0164386D02*
X0141642Y0176697D01*
X0171382Y0176697D01*
X0171382Y0164386D01*
X0164386Y0159949D02*
X0148638Y0159949D01*
X0173165Y0136549D02*
X0173165Y0133168D01*
X0177109Y0137649D02*
X0179222Y0137649D01*
X0183165Y0136549D02*
X0183165Y0133168D01*
X0195882Y0163402D02*
X0195882Y0177181D01*
X0231315Y0177181D01*
X0231315Y0163402D01*
X0229346Y0163402D01*
X0197850Y0163402D02*
X0195882Y0163402D01*
X0146669Y0038402D02*
X0145094Y0038402D01*
X0146669Y0038401D02*
X0146731Y0038399D01*
X0146792Y0038393D01*
X0146853Y0038384D01*
X0146914Y0038370D01*
X0146973Y0038353D01*
X0147031Y0038332D01*
X0147088Y0038307D01*
X0147143Y0038279D01*
X0147196Y0038248D01*
X0147247Y0038213D01*
X0147296Y0038175D01*
X0147343Y0038134D01*
X0147386Y0038091D01*
X0147427Y0038044D01*
X0147465Y0037995D01*
X0147500Y0037944D01*
X0147531Y0037891D01*
X0147559Y0037836D01*
X0147584Y0037779D01*
X0147605Y0037721D01*
X0147622Y0037662D01*
X0147636Y0037601D01*
X0147645Y0037540D01*
X0147651Y0037479D01*
X0147653Y0037417D01*
X0147654Y0037417D02*
X0147654Y0015764D01*
X0147653Y0015764D02*
X0147651Y0015702D01*
X0147645Y0015641D01*
X0147636Y0015580D01*
X0147622Y0015519D01*
X0147605Y0015460D01*
X0147584Y0015402D01*
X0147559Y0015345D01*
X0147531Y0015290D01*
X0147500Y0015237D01*
X0147465Y0015186D01*
X0147427Y0015137D01*
X0147386Y0015090D01*
X0147343Y0015047D01*
X0147296Y0015006D01*
X0147247Y0014968D01*
X0147196Y0014933D01*
X0147143Y0014902D01*
X0147088Y0014874D01*
X0147031Y0014849D01*
X0146973Y0014828D01*
X0146914Y0014811D01*
X0146853Y0014797D01*
X0146792Y0014788D01*
X0146731Y0014782D01*
X0146669Y0014780D01*
X0145094Y0014780D01*
X0143717Y0020685D02*
X0137811Y0020685D01*
X0137811Y0032496D01*
X0143717Y0032496D01*
X0143717Y0020685D01*
X0134858Y0014780D02*
X0134796Y0014782D01*
X0134735Y0014788D01*
X0134674Y0014797D01*
X0134613Y0014811D01*
X0134554Y0014828D01*
X0134496Y0014849D01*
X0134439Y0014874D01*
X0134384Y0014902D01*
X0134331Y0014933D01*
X0134280Y0014968D01*
X0134231Y0015006D01*
X0134184Y0015047D01*
X0134141Y0015090D01*
X0134100Y0015137D01*
X0134062Y0015186D01*
X0134027Y0015237D01*
X0133996Y0015290D01*
X0133968Y0015345D01*
X0133943Y0015402D01*
X0133922Y0015460D01*
X0133905Y0015519D01*
X0133891Y0015580D01*
X0133882Y0015641D01*
X0133876Y0015702D01*
X0133874Y0015764D01*
X0133874Y0037417D01*
X0133876Y0037479D01*
X0133882Y0037540D01*
X0133891Y0037601D01*
X0133905Y0037662D01*
X0133922Y0037721D01*
X0133943Y0037779D01*
X0133968Y0037836D01*
X0133996Y0037891D01*
X0134027Y0037944D01*
X0134062Y0037995D01*
X0134100Y0038044D01*
X0134141Y0038091D01*
X0134184Y0038134D01*
X0134231Y0038175D01*
X0134280Y0038213D01*
X0134331Y0038248D01*
X0134384Y0038279D01*
X0134439Y0038307D01*
X0134496Y0038332D01*
X0134554Y0038353D01*
X0134613Y0038370D01*
X0134674Y0038384D01*
X0134735Y0038393D01*
X0134796Y0038399D01*
X0134858Y0038401D01*
X0134858Y0038402D02*
X0136433Y0038402D01*
X0136433Y0014780D02*
X0134858Y0014780D01*
D14*
X0180970Y0035941D03*
X0204593Y0035941D03*
X0228215Y0035941D03*
D15*
X0168653Y0116748D02*
X0168655Y0116818D01*
X0168661Y0116889D01*
X0168671Y0116958D01*
X0168685Y0117027D01*
X0168703Y0117096D01*
X0168724Y0117163D01*
X0168749Y0117229D01*
X0168778Y0117293D01*
X0168811Y0117355D01*
X0168847Y0117416D01*
X0168887Y0117474D01*
X0168929Y0117530D01*
X0168975Y0117584D01*
X0169024Y0117635D01*
X0169075Y0117683D01*
X0169130Y0117728D01*
X0169186Y0117770D01*
X0169245Y0117808D01*
X0169306Y0117843D01*
X0169369Y0117875D01*
X0169434Y0117903D01*
X0169500Y0117928D01*
X0169567Y0117948D01*
X0169636Y0117965D01*
X0169705Y0117978D01*
X0169775Y0117987D01*
X0169845Y0117992D01*
X0169916Y0117993D01*
X0169986Y0117990D01*
X0170056Y0117983D01*
X0170126Y0117972D01*
X0170195Y0117957D01*
X0170263Y0117938D01*
X0170329Y0117916D01*
X0170395Y0117890D01*
X0170459Y0117860D01*
X0170521Y0117826D01*
X0170581Y0117789D01*
X0170638Y0117749D01*
X0170694Y0117705D01*
X0170747Y0117659D01*
X0170797Y0117609D01*
X0170844Y0117557D01*
X0170888Y0117502D01*
X0170929Y0117445D01*
X0170967Y0117386D01*
X0171002Y0117324D01*
X0171032Y0117261D01*
X0171060Y0117196D01*
X0171083Y0117129D01*
X0171103Y0117062D01*
X0171119Y0116993D01*
X0171131Y0116924D01*
X0171139Y0116854D01*
X0171143Y0116783D01*
X0171143Y0116713D01*
X0171139Y0116642D01*
X0171131Y0116572D01*
X0171119Y0116503D01*
X0171103Y0116434D01*
X0171083Y0116367D01*
X0171060Y0116300D01*
X0171032Y0116235D01*
X0171002Y0116172D01*
X0170967Y0116110D01*
X0170929Y0116051D01*
X0170888Y0115994D01*
X0170844Y0115939D01*
X0170797Y0115887D01*
X0170747Y0115837D01*
X0170694Y0115791D01*
X0170638Y0115747D01*
X0170581Y0115707D01*
X0170520Y0115670D01*
X0170459Y0115636D01*
X0170395Y0115606D01*
X0170329Y0115580D01*
X0170263Y0115558D01*
X0170195Y0115539D01*
X0170126Y0115524D01*
X0170056Y0115513D01*
X0169986Y0115506D01*
X0169916Y0115503D01*
X0169845Y0115504D01*
X0169775Y0115509D01*
X0169705Y0115518D01*
X0169636Y0115531D01*
X0169567Y0115548D01*
X0169500Y0115568D01*
X0169434Y0115593D01*
X0169369Y0115621D01*
X0169306Y0115653D01*
X0169245Y0115688D01*
X0169186Y0115726D01*
X0169130Y0115768D01*
X0169075Y0115813D01*
X0169024Y0115861D01*
X0168975Y0115912D01*
X0168929Y0115966D01*
X0168887Y0116022D01*
X0168847Y0116080D01*
X0168811Y0116141D01*
X0168778Y0116203D01*
X0168749Y0116267D01*
X0168724Y0116333D01*
X0168703Y0116400D01*
X0168685Y0116469D01*
X0168671Y0116538D01*
X0168661Y0116607D01*
X0168655Y0116678D01*
X0168653Y0116748D01*
D16*
X0171865Y0130858D03*
M02*
