G75*
%MOIN*%
%OFA0B0*%
%FSLAX25Y25*%
%IPPOS*%
%LPD*%
%AMOC8*
5,1,8,0,0,1.08239X$1,22.5*
%
%ADD10R,0.04331X0.03937*%
%ADD11R,0.03937X0.04331*%
%ADD12R,0.03150X0.03150*%
%ADD13R,0.04724X0.09843*%
%ADD14R,0.06299X0.09055*%
%ADD15R,0.02200X0.05000*%
%ADD16R,0.05000X0.02200*%
%ADD17R,0.07874X0.03937*%
%ADD18R,0.02165X0.04724*%
%ADD19R,0.07480X0.04331*%
D10*
X0092142Y0052181D03*
X0098835Y0052181D03*
X0182102Y0020094D03*
X0182102Y0013402D03*
X0205724Y0013402D03*
X0205724Y0020094D03*
X0229346Y0020094D03*
X0229346Y0013402D03*
X0063402Y0115173D03*
X0056709Y0115173D03*
X0092142Y0138795D03*
X0098835Y0138795D03*
D11*
X0154543Y0138205D03*
X0154543Y0131512D03*
X0154543Y0106709D03*
X0154543Y0100016D03*
X0201787Y0131512D03*
X0201787Y0138205D03*
D12*
X0205724Y0039386D03*
X0205724Y0033480D03*
X0182102Y0033480D03*
X0182102Y0039386D03*
X0229346Y0039386D03*
X0229346Y0033480D03*
D13*
X0223441Y0159465D03*
X0213598Y0159465D03*
X0203756Y0159465D03*
D14*
X0140764Y0038992D03*
X0140764Y0014189D03*
D15*
X0110449Y0066777D03*
X0107299Y0066777D03*
X0104150Y0066777D03*
X0101000Y0066777D03*
X0097850Y0066777D03*
X0094701Y0066777D03*
X0091551Y0066777D03*
X0088402Y0066777D03*
X0088402Y0100577D03*
X0091551Y0100577D03*
X0094701Y0100577D03*
X0097850Y0100577D03*
X0101000Y0100577D03*
X0104150Y0100577D03*
X0107299Y0100577D03*
X0110449Y0100577D03*
D16*
X0116325Y0094701D03*
X0116325Y0091551D03*
X0116325Y0088402D03*
X0116325Y0085252D03*
X0116325Y0082102D03*
X0116325Y0078953D03*
X0116325Y0075803D03*
X0116325Y0072654D03*
X0082525Y0072654D03*
X0082525Y0075803D03*
X0082525Y0078953D03*
X0082525Y0082102D03*
X0082525Y0085252D03*
X0082525Y0088402D03*
X0082525Y0091551D03*
X0082525Y0094701D03*
D17*
X0176197Y0092535D03*
X0176197Y0086630D03*
X0176197Y0080724D03*
X0176197Y0074819D03*
X0176197Y0068913D03*
X0176197Y0063008D03*
X0176197Y0057102D03*
X0176197Y0098441D03*
X0176197Y0104346D03*
X0176197Y0110252D03*
X0235252Y0110252D03*
X0235252Y0104346D03*
X0235252Y0098441D03*
X0235252Y0092535D03*
X0235252Y0086630D03*
X0235252Y0080724D03*
X0235252Y0074819D03*
X0235252Y0068913D03*
X0235252Y0063008D03*
X0235252Y0057102D03*
D18*
X0181906Y0129740D03*
X0178165Y0129740D03*
X0174425Y0129740D03*
X0174425Y0139977D03*
X0181906Y0139977D03*
D19*
X0090961Y0123638D03*
X0090961Y0114583D03*
X0076394Y0114583D03*
X0076394Y0123638D03*
M02*
