G75*
%MOIN*%
%OFA0B0*%
%FSLAX25Y25*%
%IPPOS*%
%LPD*%
%AMOC8*
5,1,8,0,0,1.08239X$1,22.5*
%
%ADD10C,0.08200*%
%ADD11R,0.18910X0.04737*%
%ADD12R,0.14186X0.07099*%
%ADD13C,0.04343*%
%ADD14C,0.09000*%
%ADD15C,0.07000*%
%ADD16C,0.12611*%
%ADD17C,0.04965*%
D10*
X0024622Y0024622D03*
X0034622Y0024622D03*
X0044622Y0024622D03*
X0054622Y0024622D03*
X0064622Y0024622D03*
X0074622Y0024622D03*
X0008874Y0044858D03*
X0008874Y0054858D03*
X0008874Y0064858D03*
X0008874Y0074858D03*
X0008874Y0084858D03*
X0008874Y0094858D03*
X0008874Y0104858D03*
X0008874Y0114858D03*
X0008874Y0124858D03*
X0008874Y0134858D03*
D11*
X0222654Y0130921D03*
X0222654Y0138795D03*
D12*
X0243126Y0148244D03*
X0243126Y0121472D03*
D13*
X0227575Y0170291D03*
X0199622Y0170291D03*
D14*
X0170291Y0158480D03*
X0142732Y0158480D03*
X0121079Y0158480D03*
X0093520Y0158480D03*
X0071866Y0158480D03*
X0044307Y0158480D03*
D15*
X0048244Y0168323D03*
X0067929Y0168323D03*
X0097457Y0168323D03*
X0117142Y0168323D03*
X0146669Y0168323D03*
X0166354Y0168323D03*
D16*
X0207693Y0087024D03*
D17*
X0247063Y0081709D03*
X0247063Y0103362D03*
X0207693Y0130921D03*
X0188598Y0123047D03*
X0174228Y0123047D03*
X0160449Y0130921D03*
X0148638Y0130921D03*
X0126984Y0132890D03*
X0126984Y0144701D03*
X0099425Y0130921D03*
X0071866Y0138795D03*
X0058087Y0138795D03*
X0044307Y0138795D03*
X0058087Y0099425D03*
X0067929Y0093520D03*
X0089583Y0089583D03*
X0094701Y0082890D03*
X0077772Y0063992D03*
X0083677Y0056118D03*
X0091551Y0042339D03*
X0067929Y0040370D03*
X0056118Y0040370D03*
X0046276Y0040370D03*
X0024622Y0044307D03*
X0016748Y0034465D03*
X0028559Y0060055D03*
X0063992Y0058087D03*
X0040370Y0088402D03*
X0130921Y0095488D03*
X0154150Y0092339D03*
X0154150Y0084071D03*
X0166354Y0085646D03*
X0166354Y0098638D03*
X0134858Y0071866D03*
X0130921Y0056118D03*
X0130921Y0050213D03*
X0148638Y0050213D03*
X0148638Y0056118D03*
X0158480Y0067929D03*
X0168323Y0058087D03*
X0164386Y0026591D03*
X0193913Y0026591D03*
X0217535Y0026591D03*
X0217535Y0046276D03*
X0247063Y0054150D03*
X0213598Y0146669D03*
X0188008Y0158480D03*
X0107299Y0014780D03*
X0091551Y0014780D03*
M02*
